<?xml version="1.0" encoding="UTF-8" standalone="no"?>
<!DOCTYPE svg PUBLIC "-//W3C//DTD SVG 1.1//EN"
 "http://www.w3.org/Graphics/SVG/1.1/DTD/svg11.dtd">
<!-- Generated by graphviz version 2.38.0 (20140413.2041)
 -->
<!-- Title: dependency&#45;cruiser output Pages: 1 -->
<svg width="833pt" height="614pt"
 viewBox="0.00 0.00 833.00 614.00" xmlns="http://www.w3.org/2000/svg" xmlns:xlink="http://www.w3.org/1999/xlink">
<g id="graph0" class="graph" transform="scale(1 1) rotate(0) translate(4 610)">
<title>dependency&#45;cruiser output</title>
<polygon fill="white" stroke="none" points="-4,4 -4,-610 829,-610 829,4 -4,4"/>
<g id="clust1" class="cluster"><title>cluster_/src</title>
<path fill="none" stroke="black" stroke-width="2" d="M20,-26C20,-26 805,-26 805,-26 811,-26 817,-32 817,-38 817,-38 817,-586 817,-586 817,-592 811,-598 805,-598 805,-598 20,-598 20,-598 14,-598 8,-592 8,-586 8,-586 8,-38 8,-38 8,-32 14,-26 20,-26"/>
<text text-anchor="middle" x="412.5" y="-586.8" font-family="Helvetica,sans-Serif" font-weight="bold" font-size="9.00">src</text>
</g>
<g id="clust2" class="cluster"><title>cluster_/src/admin</title>
<path fill="none" stroke="black" stroke-width="2" d="M477,-248C477,-248 525,-248 525,-248 531,-248 537,-254 537,-260 537,-260 537,-288 537,-288 537,-294 531,-300 525,-300 525,-300 477,-300 477,-300 471,-300 465,-294 465,-288 465,-288 465,-260 465,-260 465,-254 471,-248 477,-248"/>
<text text-anchor="middle" x="501" y="-288.8" font-family="Helvetica,sans-Serif" font-weight="bold" font-size="9.00">admin</text>
</g>
<g id="clust4" class="cluster"><title>cluster_/src/auth</title>
<path fill="none" stroke="black" stroke-width="2" d="M478,-330C478,-330 797,-330 797,-330 803,-330 809,-336 809,-342 809,-342 809,-428 809,-428 809,-434 803,-440 797,-440 797,-440 478,-440 478,-440 472,-440 466,-434 466,-428 466,-428 466,-342 466,-342 466,-336 472,-330 478,-330"/>
<text text-anchor="middle" x="637.5" y="-428.8" font-family="Helvetica,sans-Serif" font-weight="bold" font-size="9.00">auth</text>
</g>
<g id="clust3" class="cluster"><title>cluster_/src/app</title>
<path fill="none" stroke="black" stroke-width="2" d="M110,-182C110,-182 396.5,-182 396.5,-182 402.5,-182 408.5,-188 408.5,-194 408.5,-194 408.5,-310 408.5,-310 408.5,-316 402.5,-322 396.5,-322 396.5,-322 110,-322 110,-322 104,-322 98,-316 98,-310 98,-310 98,-194 98,-194 98,-188 104,-182 110,-182"/>
<text text-anchor="middle" x="253.25" y="-310.8" font-family="Helvetica,sans-Serif" font-weight="bold" font-size="9.00">app</text>
</g>
<g id="clust5" class="cluster"><title>cluster_/src/home</title>
<path fill="none" stroke="black" stroke-width="2" d="M326,-34C326,-34 683,-34 683,-34 689,-34 695,-40 695,-46 695,-46 695,-162 695,-162 695,-168 689,-174 683,-174 683,-174 326,-174 326,-174 320,-174 314,-168 314,-162 314,-162 314,-46 314,-46 314,-40 320,-34 326,-34"/>
<text text-anchor="middle" x="504.5" y="-162.8" font-family="Helvetica,sans-Serif" font-weight="bold" font-size="9.00">home</text>
</g>
<g id="clust6" class="cluster"><title>cluster_/src/menu</title>
<path fill="none" stroke="black" stroke-width="2" d="M225,-490C225,-490 411.5,-490 411.5,-490 417.5,-490 423.5,-496 423.5,-502 423.5,-502 423.5,-560 423.5,-560 423.5,-566 417.5,-572 411.5,-572 411.5,-572 225,-572 225,-572 219,-572 213,-566 213,-560 213,-560 213,-502 213,-502 213,-496 219,-490 225,-490"/>
<text text-anchor="middle" x="318.25" y="-560.8" font-family="Helvetica,sans-Serif" font-weight="bold" font-size="9.00">menu</text>
</g>
<g id="clust7" class="cluster"><title>cluster_/src/root</title>
<path fill="none" stroke="black" stroke-width="2" d="M110,-356C110,-356 407.5,-356 407.5,-356 413.5,-356 419.5,-362 419.5,-368 419.5,-368 419.5,-470 419.5,-470 419.5,-476 413.5,-482 407.5,-482 407.5,-482 110,-482 110,-482 104,-482 98,-476 98,-470 98,-470 98,-368 98,-368 98,-362 104,-356 110,-356"/>
<text text-anchor="middle" x="258.75" y="-470.8" font-family="Helvetica,sans-Serif" font-weight="bold" font-size="9.00">root</text>
</g>
<!-- ./app.styles -->
<g id="node1" class="node"><title>./app.styles</title>
<path fill="#ffffcc" stroke="red" d="M397,-18C397,-18 350,-18 350,-18 347,-18 344,-15 344,-12 344,-12 344,-6 344,-6 344,-3 347,-0 350,-0 350,-0 397,-0 397,-0 400,-0 403,-3 403,-6 403,-6 403,-12 403,-12 403,-15 400,-18 397,-18"/>
<text text-anchor="middle" x="373.5" y="-6.8" font-family="Helvetica,sans-Serif" font-size="9.00" fill="red">app.styles</text>
</g>
<!-- src/admin/Admin.tsx -->
<g id="node2" class="node"><title>src/admin/Admin.tsx</title>
<g id="a_node2"><a xlink:href="src/admin/Admin.tsx" xlink:title="Admin.tsx">
<path fill="#ffffcc" stroke="black" d="M523,-274C523,-274 479,-274 479,-274 476,-274 473,-271 473,-268 473,-268 473,-262 473,-262 473,-259 476,-256 479,-256 479,-256 523,-256 523,-256 526,-256 529,-259 529,-262 529,-262 529,-268 529,-268 529,-271 526,-274 523,-274"/>
<text text-anchor="middle" x="501" y="-262.8" font-family="Helvetica,sans-Serif" font-size="9.00">Admin.tsx</text>
</a>
</g>
</g>
<!-- src/app/App.spec.tsx -->
<g id="node3" class="node"><title>src/app/App.spec.tsx</title>
<g id="a_node3"><a xlink:href="src/app/App.spec.tsx" xlink:title="App.spec.tsx">
<path fill="#ffffcc" stroke="black" d="M168,-255C168,-255 112,-255 112,-255 109,-255 106,-252 106,-249 106,-249 106,-243 106,-243 106,-240 109,-237 112,-237 112,-237 168,-237 168,-237 171,-237 174,-240 174,-243 174,-243 174,-249 174,-249 174,-252 171,-255 168,-255"/>
<text text-anchor="middle" x="140" y="-243.8" font-family="Helvetica,sans-Serif" font-size="9.00">App.spec.tsx</text>
</a>
</g>
</g>
<!-- src/app/App.tsx -->
<g id="node4" class="node"><title>src/app/App.tsx</title>
<g id="a_node4"><a xlink:href="src/app/App.tsx" xlink:title="App.tsx">
<path fill="#ffffcc" stroke="black" d="M269,-296C269,-296 227,-296 227,-296 224,-296 221,-293 221,-290 221,-290 221,-284 221,-284 221,-281 224,-278 227,-278 227,-278 269,-278 269,-278 272,-278 275,-281 275,-284 275,-284 275,-290 275,-290 275,-293 272,-296 269,-296"/>
<text text-anchor="middle" x="248" y="-284.8" font-family="Helvetica,sans-Serif" font-size="9.00">App.tsx</text>
</a>
</g>
</g>
<!-- src/app/App.spec.tsx&#45;&gt;src/app/App.tsx -->
<g id="edge3" class="edge"><title>src/app/App.spec.tsx&#45;&gt;src/app/App.tsx</title>
<path fill="none" stroke="black" d="M164.525,-255.099C179.072,-260.726 197.962,-268.033 213.993,-274.233"/>
<polygon fill="black" stroke="black" points="212.952,-277.583 223.541,-277.926 215.477,-271.054 212.952,-277.583"/>
</g>
<!-- src/app/routes.ts -->
<g id="node8" class="node"><title>src/app/routes.ts</title>
<g id="a_node8"><a xlink:href="src/app/routes.ts" xlink:title="routes.ts">
<path fill="#ffffcc" stroke="black" d="M394.5,-274C394.5,-274 352.5,-274 352.5,-274 349.5,-274 346.5,-271 346.5,-268 346.5,-268 346.5,-262 346.5,-262 346.5,-259 349.5,-256 352.5,-256 352.5,-256 394.5,-256 394.5,-256 397.5,-256 400.5,-259 400.5,-262 400.5,-262 400.5,-268 400.5,-268 400.5,-271 397.5,-274 394.5,-274"/>
<text text-anchor="middle" x="373.5" y="-262.8" font-family="Helvetica,sans-Serif" font-size="9.00">routes.ts</text>
</a>
</g>
</g>
<!-- src/app/App.spec.tsx&#45;&gt;src/app/routes.ts -->
<g id="edge4" class="edge"><title>src/app/App.spec.tsx&#45;&gt;src/app/routes.ts</title>
<path fill="none" stroke="black" d="M150.246,-236.719C162.603,-225.042 185.772,-205.598 210,-198 242.23,-187.892 254.04,-187.07 286,-198 315.038,-207.931 341.876,-232.012 357.726,-248.428"/>
<polygon fill="black" stroke="black" points="355.203,-250.854 364.585,-255.775 360.319,-246.077 355.203,-250.854"/>
</g>
<!-- src/auth/index.ts -->
<g id="node13" class="node"><title>src/auth/index.ts</title>
<g id="a_node13"><a xlink:href="src/auth/index.ts" xlink:title="index.ts">
<path fill="#ffffcc" stroke="black" d="M522,-381C522,-381 480,-381 480,-381 477,-381 474,-378 474,-375 474,-375 474,-369 474,-369 474,-366 477,-363 480,-363 480,-363 522,-363 522,-363 525,-363 528,-366 528,-369 528,-369 528,-375 528,-375 528,-378 525,-381 522,-381"/>
<text text-anchor="middle" x="501" y="-369.8" font-family="Helvetica,sans-Serif" font-size="9.00">index.ts</text>
</a>
</g>
</g>
<!-- src/app/App.spec.tsx&#45;&gt;src/auth/index.ts -->
<g id="edge1" class="edge"><title>src/app/App.spec.tsx&#45;&gt;src/auth/index.ts</title>
<path fill="none" stroke="black" d="M148.255,-236.708C159.655,-222.953 183.241,-197.753 210,-188 241.736,-176.434 252.963,-180.966 286,-188 352.162,-202.087 374.126,-205.418 425,-250 433.939,-257.833 471.369,-322.032 489.74,-354.022"/>
<polygon fill="black" stroke="black" points="486.77,-355.879 494.777,-362.817 492.845,-352.4 486.77,-355.879"/>
</g>
<!-- src/root/index.ts -->
<g id="node27" class="node"><title>src/root/index.ts</title>
<g id="a_node27"><a xlink:href="src/root/index.ts" xlink:title="index.ts">
<path fill="#ffffcc" stroke="black" d="M161,-442C161,-442 119,-442 119,-442 116,-442 113,-439 113,-436 113,-436 113,-430 113,-430 113,-427 116,-424 119,-424 119,-424 161,-424 161,-424 164,-424 167,-427 167,-430 167,-430 167,-436 167,-436 167,-439 164,-442 161,-442"/>
<text text-anchor="middle" x="140" y="-430.8" font-family="Helvetica,sans-Serif" font-size="9.00">index.ts</text>
</a>
</g>
</g>
<!-- src/app/App.spec.tsx&#45;&gt;src/root/index.ts -->
<g id="edge2" class="edge"><title>src/app/App.spec.tsx&#45;&gt;src/root/index.ts</title>
<path fill="none" stroke="black" d="M105.977,-251.808C99.1065,-254.631 92.7471,-258.812 88.6667,-265 79.553,-278.821 79.553,-400.179 88.6667,-414 92.237,-419.415 97.5522,-423.293 103.428,-426.068"/>
<polygon fill="black" stroke="black" points="102.36,-429.405 112.953,-429.586 104.785,-422.838 102.36,-429.405"/>
<path fill="none" stroke="black" d="M105.823,-251.04C95.5146,-254.367 85.348,-259.879 79.3333,-269 70.709,-282.079 70.709,-396.921 79.3333,-410 84.8098,-418.305 93.7284,-423.617 103.062,-427.013"/>
<polygon fill="black" stroke="black" points="102.23,-430.417 112.812,-429.904 104.22,-423.706 102.23,-430.417"/>
</g>
<!-- src/app/App.tsx&#45;&gt;./app.styles -->
<g id="edge8" class="edge"><title>src/app/App.tsx&#45;&gt;./app.styles</title>
<path fill="none" stroke="black" d="M265.915,-277.862C273.309,-272.969 281.342,-266.242 286,-258 336.013,-169.5 251.121,-110.873 314,-31 319.153,-24.4538 326.478,-19.8553 334.208,-16.6251"/>
<polygon fill="black" stroke="black" points="335.419,-19.9097 343.719,-13.3246 333.124,-13.2965 335.419,-19.9097"/>
</g>
<!-- src/app/App.tsx&#45;&gt;src/app/routes.ts -->
<g id="edge9" class="edge"><title>src/app/App.tsx&#45;&gt;src/app/routes.ts</title>
<path fill="none" stroke="black" d="M275.191,-282.334C292.957,-279.17 316.679,-274.944 336.253,-271.457"/>
<polygon fill="black" stroke="black" points="337.115,-274.859 346.347,-269.659 335.888,-267.967 337.115,-274.859"/>
</g>
<!-- src/globals.ts -->
<g id="node14" class="node"><title>src/globals.ts</title>
<g id="a_node14"><a xlink:href="src/globals.ts" xlink:title="globals.ts">
<path fill="#ffffcc" stroke="black" d="M396,-348C396,-348 351,-348 351,-348 348,-348 345,-345 345,-342 345,-342 345,-336 345,-336 345,-333 348,-330 351,-330 351,-330 396,-330 396,-330 399,-330 402,-333 402,-336 402,-336 402,-342 402,-342 402,-345 399,-348 396,-348"/>
<text text-anchor="middle" x="373.5" y="-336.8" font-family="Helvetica,sans-Serif" font-size="9.00">globals.ts</text>
</a>
</g>
</g>
<!-- src/app/App.tsx&#45;&gt;src/globals.ts -->
<g id="edge5" class="edge"><title>src/app/App.tsx&#45;&gt;src/globals.ts</title>
<path fill="none" stroke="black" d="M261.858,-296.058C274.567,-304.631 294.835,-317.302 314,-325 320.576,-327.641 327.776,-329.866 334.808,-331.71"/>
<polygon fill="black" stroke="black" points="334.355,-335.201 344.896,-334.142 335.995,-328.396 334.355,-335.201"/>
</g>
<!-- src/menu/Menu.tsx -->
<g id="node24" class="node"><title>src/menu/Menu.tsx</title>
<g id="a_node24"><a xlink:href="src/menu/Menu.tsx" xlink:title="Menu.tsx">
<path fill="#ffffcc" stroke="black" d="M394.5,-516C394.5,-516 352.5,-516 352.5,-516 349.5,-516 346.5,-513 346.5,-510 346.5,-510 346.5,-504 346.5,-504 346.5,-501 349.5,-498 352.5,-498 352.5,-498 394.5,-498 394.5,-498 397.5,-498 400.5,-501 400.5,-504 400.5,-504 400.5,-510 400.5,-510 400.5,-513 397.5,-516 394.5,-516"/>
<text text-anchor="middle" x="373.5" y="-504.8" font-family="Helvetica,sans-Serif" font-size="9.00">Menu.tsx</text>
</a>
</g>
</g>
<!-- src/app/App.tsx&#45;&gt;src/menu/Menu.tsx -->
<g id="edge6" class="edge"><title>src/app/App.tsx&#45;&gt;src/menu/Menu.tsx</title>
<path fill="none" stroke="black" d="M255.478,-296.392C263.749,-308.806 277.948,-331.608 286,-353 307.126,-409.128 274.906,-439.522 314,-485 319.91,-491.875 328.194,-496.606 336.673,-499.86"/>
<polygon fill="black" stroke="black" points="335.62,-503.198 346.212,-502.942 337.772,-496.537 335.62,-503.198"/>
</g>
<!-- src/app/App.tsx&#45;&gt;src/root/index.ts -->
<g id="edge7" class="edge"><title>src/app/App.tsx&#45;&gt;src/root/index.ts</title>
<path fill="none" stroke="black" d="M241.715,-296.391C234.522,-309.182 221.254,-332.804 210,-353 195.307,-379.368 197.663,-393.117 173.457,-416.856"/>
<polygon fill="black" stroke="black" points="170.868,-414.483 165.889,-423.836 175.613,-419.629 170.868,-414.483"/>
</g>
<!-- src/app/app.domain.ts -->
<g id="node5" class="node"><title>src/app/app.domain.ts</title>
<g id="a_node5"><a xlink:href="src/app/app.domain.ts" xlink:title="app.domain.ts">
<path fill="#ffffcc" stroke="black" d="M280,-252C280,-252 216,-252 216,-252 213,-252 210,-249 210,-246 210,-246 210,-240 210,-240 210,-237 213,-234 216,-234 216,-234 280,-234 280,-234 283,-234 286,-237 286,-240 286,-240 286,-246 286,-246 286,-249 283,-252 280,-252"/>
<text text-anchor="middle" x="248" y="-240.8" font-family="Helvetica,sans-Serif" font-size="9.00">app.domain.ts</text>
</a>
</g>
</g>
<!-- src/app/app.reducer.ts -->
<g id="node6" class="node"><title>src/app/app.reducer.ts</title>
<g id="a_node6"><a xlink:href="src/app/app.reducer.ts" xlink:title="app.reducer.ts">
<path fill="#ffffcc" stroke="black" d="M280,-222C280,-222 216,-222 216,-222 213,-222 210,-219 210,-216 210,-216 210,-210 210,-210 210,-207 213,-204 216,-204 216,-204 280,-204 280,-204 283,-204 286,-207 286,-210 286,-210 286,-216 286,-216 286,-219 283,-222 280,-222"/>
<text text-anchor="middle" x="248" y="-210.8" font-family="Helvetica,sans-Serif" font-size="9.00">app.reducer.ts</text>
</a>
</g>
</g>
<!-- src/app/index.ts -->
<g id="node7" class="node"><title>src/app/index.ts</title>
<g id="a_node7"><a xlink:href="src/app/index.ts" xlink:title="index.ts">
<path fill="#ffffcc" stroke="black" d="M161,-285C161,-285 119,-285 119,-285 116,-285 113,-282 113,-279 113,-279 113,-273 113,-273 113,-270 116,-267 119,-267 119,-267 161,-267 161,-267 164,-267 167,-270 167,-273 167,-273 167,-279 167,-279 167,-282 164,-285 161,-285"/>
<text text-anchor="middle" x="140" y="-273.8" font-family="Helvetica,sans-Serif" font-size="9.00">index.ts</text>
</a>
</g>
</g>
<!-- src/app/index.ts&#45;&gt;src/app/App.tsx -->
<g id="edge10" class="edge"><title>src/app/index.ts&#45;&gt;src/app/App.tsx</title>
<path fill="none" stroke="black" d="M167.202,-278.719C180.325,-280.081 196.422,-281.751 210.713,-283.234"/>
<polygon fill="black" stroke="black" points="210.424,-286.723 220.732,-284.274 211.147,-279.76 210.424,-286.723"/>
</g>
<!-- src/app/index.ts&#45;&gt;src/app/app.domain.ts -->
<g id="edge11" class="edge"><title>src/app/index.ts&#45;&gt;src/app/app.domain.ts</title>
<path fill="none" stroke="black" d="M167.202,-267.843C179.536,-264.003 194.496,-259.345 208.116,-255.105"/>
<polygon fill="black" stroke="black" points="209.231,-258.424 217.739,-252.11 207.151,-251.74 209.231,-258.424"/>
</g>
<!-- src/app/index.ts&#45;&gt;src/app/app.reducer.ts -->
<g id="edge12" class="edge"><title>src/app/index.ts&#45;&gt;src/app/app.reducer.ts</title>
<path fill="none" stroke="black" d="M163.524,-266.921C167.132,-265.142 170.745,-263.152 174,-261 192.104,-249.027 191.651,-239.595 210,-228 210.769,-227.514 211.557,-227.038 212.358,-226.573"/>
<polygon fill="black" stroke="black" points="214.004,-229.663 221.327,-222.007 210.828,-223.425 214.004,-229.663"/>
</g>
<!-- src/app/index.ts&#45;&gt;src/app/routes.ts -->
<g id="edge13" class="edge"><title>src/app/index.ts&#45;&gt;src/app/routes.ts</title>
<path fill="none" stroke="black" d="M167.207,-274.389C180.094,-273.62 195.859,-272.714 210,-272 253.389,-269.808 303.317,-267.722 336.253,-266.407"/>
<polygon fill="black" stroke="black" points="336.467,-269.902 346.32,-266.008 336.189,-262.907 336.467,-269.902"/>
</g>
<!-- src/app/routes.ts&#45;&gt;src/admin/Admin.tsx -->
<g id="edge14" class="edge"><title>src/app/routes.ts&#45;&gt;src/admin/Admin.tsx</title>
<path fill="none" stroke="black" d="M400.504,-265C418.479,-265 442.665,-265 462.69,-265"/>
<polygon fill="black" stroke="black" points="462.727,-268.5 472.727,-265 462.727,-261.5 462.727,-268.5"/>
</g>
<!-- src/app/routes.ts&#45;&gt;src/auth/index.ts -->
<g id="edge15" class="edge"><title>src/app/routes.ts&#45;&gt;src/auth/index.ts</title>
<path fill="none" stroke="black" d="M400.732,-268.411C408.965,-270.33 417.781,-273.325 425,-278 454.803,-297.299 478.107,-332.441 490.395,-353.859"/>
<polygon fill="black" stroke="black" points="487.484,-355.828 495.386,-362.885 493.61,-352.44 487.484,-355.828"/>
</g>
<!-- src/home/Home.tsx -->
<g id="node16" class="node"><title>src/home/Home.tsx</title>
<g id="a_node16"><a xlink:href="src/home/Home.tsx" xlink:title="Home.tsx">
<path fill="#ffffcc" stroke="black" d="M523,-118C523,-118 479,-118 479,-118 476,-118 473,-115 473,-112 473,-112 473,-106 473,-106 473,-103 476,-100 479,-100 479,-100 523,-100 523,-100 526,-100 529,-103 529,-106 529,-106 529,-112 529,-112 529,-115 526,-118 523,-118"/>
<text text-anchor="middle" x="501" y="-106.8" font-family="Helvetica,sans-Serif" font-size="9.00">Home.tsx</text>
</a>
</g>
</g>
<!-- src/app/routes.ts&#45;&gt;src/home/Home.tsx -->
<g id="edge16" class="edge"><title>src/app/routes.ts&#45;&gt;src/home/Home.tsx</title>
<path fill="none" stroke="black" d="M379.767,-255.653C396.679,-225.754 449.188,-133.826 461,-124 461.864,-123.281 462.767,-122.594 463.7,-121.938"/>
<polygon fill="black" stroke="black" points="465.737,-124.807 472.712,-116.831 462.286,-118.716 465.737,-124.807"/>
</g>
<!-- src/auth/auth.action.ts -->
<g id="node9" class="node"><title>src/auth/auth.action.ts</title>
<g id="a_node9"><a xlink:href="src/auth/auth.action.ts" xlink:title="auth.action.ts">
<path fill="#ffffcc" stroke="black" d="M791.5,-370C791.5,-370 732.5,-370 732.5,-370 729.5,-370 726.5,-367 726.5,-364 726.5,-364 726.5,-358 726.5,-358 726.5,-355 729.5,-352 732.5,-352 732.5,-352 791.5,-352 791.5,-352 794.5,-352 797.5,-355 797.5,-358 797.5,-358 797.5,-364 797.5,-364 797.5,-367 794.5,-370 791.5,-370"/>
<text text-anchor="middle" x="762" y="-358.8" font-family="Helvetica,sans-Serif" font-size="9.00">auth.action.ts</text>
</a>
</g>
</g>
<!-- src/auth/auth.domain.ts -->
<g id="node10" class="node"><title>src/auth/auth.domain.ts</title>
<g id="a_node10"><a xlink:href="src/auth/auth.domain.ts" xlink:title="auth.domain.ts">
<path fill="#ffffcc" stroke="black" d="M795,-407C795,-407 729,-407 729,-407 726,-407 723,-404 723,-401 723,-401 723,-395 723,-395 723,-392 726,-389 729,-389 729,-389 795,-389 795,-389 798,-389 801,-392 801,-395 801,-395 801,-401 801,-401 801,-404 798,-407 795,-407"/>
<text text-anchor="middle" x="762" y="-395.8" font-family="Helvetica,sans-Serif" font-size="9.00">auth.domain.ts</text>
</a>
</g>
</g>
<!-- src/auth/auth.reducer.ts -->
<g id="node11" class="node"><title>src/auth/auth.reducer.ts</title>
<g id="a_node11"><a xlink:href="src/auth/auth.reducer.ts" xlink:title="auth.reducer.ts">
<path fill="#ffffcc" stroke="black" d="M665,-370C665,-370 599,-370 599,-370 596,-370 593,-367 593,-364 593,-364 593,-358 593,-358 593,-355 596,-352 599,-352 599,-352 665,-352 665,-352 668,-352 671,-355 671,-358 671,-358 671,-364 671,-364 671,-367 668,-370 665,-370"/>
<text text-anchor="middle" x="632" y="-358.8" font-family="Helvetica,sans-Serif" font-size="9.00">auth.reducer.ts</text>
</a>
</g>
</g>
<!-- src/auth/auth.reducer.ts&#45;&gt;src/auth/auth.action.ts -->
<g id="edge17" class="edge"><title>src/auth/auth.reducer.ts&#45;&gt;src/auth/auth.action.ts</title>
<path fill="none" stroke="black" d="M671.058,-361C685.171,-361 701.311,-361 715.986,-361"/>
<polygon fill="black" stroke="black" points="716.363,-364.5 726.363,-361 716.363,-357.5 716.363,-364.5"/>
</g>
<!-- src/auth/auth.saga.ts -->
<g id="node12" class="node"><title>src/auth/auth.saga.ts</title>
<g id="a_node12"><a xlink:href="src/auth/auth.saga.ts" xlink:title="auth.saga.ts">
<path fill="#ffffcc" stroke="black" d="M660,-414C660,-414 604,-414 604,-414 601,-414 598,-411 598,-408 598,-408 598,-402 598,-402 598,-399 601,-396 604,-396 604,-396 660,-396 660,-396 663,-396 666,-399 666,-402 666,-402 666,-408 666,-408 666,-411 663,-414 660,-414"/>
<text text-anchor="middle" x="632" y="-402.8" font-family="Helvetica,sans-Serif" font-size="9.00">auth.saga.ts</text>
</a>
</g>
</g>
<!-- src/auth/auth.saga.ts&#45;&gt;src/auth/auth.action.ts -->
<g id="edge18" class="edge"><title>src/auth/auth.saga.ts&#45;&gt;src/auth/auth.action.ts</title>
<path fill="none" stroke="black" d="M659.212,-395.99C678.154,-389.478 703.977,-380.602 724.873,-373.419"/>
<polygon fill="black" stroke="black" points="726.065,-376.71 734.384,-370.149 723.789,-370.09 726.065,-376.71"/>
</g>
<!-- src/auth/auth.saga.ts&#45;&gt;src/auth/auth.domain.ts -->
<g id="edge19" class="edge"><title>src/auth/auth.saga.ts&#45;&gt;src/auth/auth.domain.ts</title>
<path fill="none" stroke="black" d="M666.296,-403.179C680.38,-402.409 697.062,-401.497 712.472,-400.654"/>
<polygon fill="black" stroke="black" points="713.096,-404.125 722.89,-400.084 712.713,-397.136 713.096,-404.125"/>
</g>
<!-- src/auth/index.ts&#45;&gt;src/auth/auth.action.ts -->
<g id="edge20" class="edge"><title>src/auth/index.ts&#45;&gt;src/auth/auth.action.ts</title>
<path fill="none" stroke="black" d="M522.207,-362.927C537.033,-356.787 557.839,-349.227 577,-346 628.716,-337.29 642.883,-340.152 695,-346 702.551,-346.847 710.498,-348.224 718.16,-349.808"/>
<polygon fill="black" stroke="black" points="717.491,-353.244 728.01,-351.983 719,-346.409 717.491,-353.244"/>
</g>
<!-- src/auth/index.ts&#45;&gt;src/auth/auth.domain.ts -->
<g id="edge21" class="edge"><title>src/auth/index.ts&#45;&gt;src/auth/auth.domain.ts</title>
<path fill="none" stroke="black" d="M528.245,-374.216C565.398,-377.406 635.44,-383.614 695,-390 700.808,-390.623 706.899,-391.312 712.935,-392.017"/>
<polygon fill="black" stroke="black" points="712.636,-395.506 722.979,-393.209 713.461,-388.555 712.636,-395.506"/>
</g>
<!-- src/auth/index.ts&#45;&gt;src/auth/auth.reducer.ts -->
<g id="edge22" class="edge"><title>src/auth/index.ts&#45;&gt;src/auth/auth.reducer.ts</title>
<path fill="none" stroke="black" d="M528.105,-369.774C543.759,-368.439 564.156,-366.7 582.658,-365.122"/>
<polygon fill="black" stroke="black" points="583.033,-368.603 592.7,-364.266 582.438,-361.628 583.033,-368.603"/>
</g>
<!-- src/auth/index.ts&#45;&gt;src/auth/auth.saga.ts -->
<g id="edge23" class="edge"><title>src/auth/index.ts&#45;&gt;src/auth/auth.saga.ts</title>
<path fill="none" stroke="black" d="M528.105,-378.678C545.236,-383.06 568.048,-388.896 587.839,-393.959"/>
<polygon fill="black" stroke="black" points="587.014,-397.36 597.57,-396.448 588.749,-390.579 587.014,-397.36"/>
</g>
<!-- src/home/Home.spec.tsx -->
<g id="node15" class="node"><title>src/home/Home.spec.tsx</title>
<g id="a_node15"><a xlink:href="src/home/Home.spec.tsx" xlink:title="Home.spec.tsx">
<path fill="#ffffcc" stroke="black" d="M406.5,-126C406.5,-126 340.5,-126 340.5,-126 337.5,-126 334.5,-123 334.5,-120 334.5,-120 334.5,-114 334.5,-114 334.5,-111 337.5,-108 340.5,-108 340.5,-108 406.5,-108 406.5,-108 409.5,-108 412.5,-111 412.5,-114 412.5,-114 412.5,-120 412.5,-120 412.5,-123 409.5,-126 406.5,-126"/>
<text text-anchor="middle" x="373.5" y="-114.8" font-family="Helvetica,sans-Serif" font-size="9.00">Home.spec.tsx</text>
</a>
</g>
</g>
<!-- src/home/Home.spec.tsx&#45;&gt;src/home/Home.tsx -->
<g id="edge24" class="edge"><title>src/home/Home.spec.tsx&#45;&gt;src/home/Home.tsx</title>
<path fill="none" stroke="black" d="M412.836,-114.556C428.532,-113.556 446.643,-112.401 462.276,-111.405"/>
<polygon fill="black" stroke="black" points="462.886,-114.873 472.643,-110.744 462.44,-107.887 462.886,-114.873"/>
</g>
<!-- src/home/home.action.ts -->
<g id="node17" class="node"><title>src/home/home.action.ts</title>
<g id="a_node17"><a xlink:href="src/home/home.action.ts" xlink:title="home.action.ts">
<path fill="#ffffcc" stroke="black" d="M664.5,-118C664.5,-118 599.5,-118 599.5,-118 596.5,-118 593.5,-115 593.5,-112 593.5,-112 593.5,-106 593.5,-106 593.5,-103 596.5,-100 599.5,-100 599.5,-100 664.5,-100 664.5,-100 667.5,-100 670.5,-103 670.5,-106 670.5,-106 670.5,-112 670.5,-112 670.5,-115 667.5,-118 664.5,-118"/>
<text text-anchor="middle" x="632" y="-106.8" font-family="Helvetica,sans-Serif" font-size="9.00">home.action.ts</text>
</a>
</g>
</g>
<!-- src/home/Home.tsx&#45;&gt;src/home/home.action.ts -->
<g id="edge25" class="edge"><title>src/home/Home.tsx&#45;&gt;src/home/home.action.ts</title>
<path fill="none" stroke="black" d="M529.043,-109C544.679,-109 564.809,-109 583.047,-109"/>
<polygon fill="black" stroke="black" points="583.23,-112.5 593.23,-109 583.23,-105.5 583.23,-112.5"/>
</g>
<!-- src/home/home.worker&#45;factory.ts -->
<g id="node19" class="node"><title>src/home/home.worker&#45;factory.ts</title>
<g id="a_node19"><a xlink:href="src/home/home.worker-factory.ts" xlink:title="home.worker&#45;factory.ts">
<path fill="#ffffcc" stroke="black" d="M681,-85C681,-85 583,-85 583,-85 580,-85 577,-82 577,-79 577,-79 577,-73 577,-73 577,-70 580,-67 583,-67 583,-67 681,-67 681,-67 684,-67 687,-70 687,-73 687,-73 687,-79 687,-79 687,-82 684,-85 681,-85"/>
<text text-anchor="middle" x="632" y="-73.8" font-family="Helvetica,sans-Serif" font-size="9.00">home.worker&#45;factory.ts</text>
</a>
</g>
</g>
<!-- src/home/Home.tsx&#45;&gt;src/home/home.worker&#45;factory.ts -->
<g id="edge26" class="edge"><title>src/home/Home.tsx&#45;&gt;src/home/home.worker&#45;factory.ts</title>
<path fill="none" stroke="black" d="M529.043,-102.082C545.45,-97.8848 566.807,-92.4214 585.733,-87.58"/>
<polygon fill="black" stroke="black" points="586.838,-90.9101 595.658,-85.0409 585.103,-84.1285 586.838,-90.9101"/>
</g>
<!-- src/home/home.saga.ts -->
<g id="node18" class="node"><title>src/home/home.saga.ts</title>
<g id="a_node18"><a xlink:href="src/home/home.saga.ts" xlink:title="home.saga.ts">
<path fill="#ffffcc" stroke="black" d="M532,-148C532,-148 470,-148 470,-148 467,-148 464,-145 464,-142 464,-142 464,-136 464,-136 464,-133 467,-130 470,-130 470,-130 532,-130 532,-130 535,-130 538,-133 538,-136 538,-136 538,-142 538,-142 538,-145 535,-148 532,-148"/>
<text text-anchor="middle" x="501" y="-136.8" font-family="Helvetica,sans-Serif" font-size="9.00">home.saga.ts</text>
</a>
</g>
</g>
<!-- src/home/home.saga.ts&#45;&gt;src/home/home.action.ts -->
<g id="edge27" class="edge"><title>src/home/home.saga.ts&#45;&gt;src/home/home.action.ts</title>
<path fill="none" stroke="black" d="M538.277,-130.563C552.203,-127.325 568.316,-123.578 583.164,-120.125"/>
<polygon fill="black" stroke="black" points="584.251,-123.465 593.199,-117.791 582.666,-116.647 584.251,-123.465"/>
</g>
<!-- src/home/home.worker.js -->
<g id="node20" class="node"><title>src/home/home.worker.js</title>
<g id="a_node20"><a xlink:href="src/home/home.worker.js" xlink:title="home.worker.js">
<path fill="#ffffcc" stroke="black" d="M535,-60C535,-60 467,-60 467,-60 464,-60 461,-57 461,-54 461,-54 461,-48 461,-48 461,-45 464,-42 467,-42 467,-42 535,-42 535,-42 538,-42 541,-45 541,-48 541,-48 541,-54 541,-54 541,-57 538,-60 535,-60"/>
<text text-anchor="middle" x="501" y="-48.8" font-family="Helvetica,sans-Serif" font-size="9.00">home.worker.js</text>
</a>
</g>
</g>
<!-- src/home/home.worker.spec.ts -->
<g id="node21" class="node"><title>src/home/home.worker.spec.ts</title>
<g id="a_node21"><a xlink:href="src/home/home.worker.spec.ts" xlink:title="home.worker.spec.ts">
<path fill="#ffffcc" stroke="black" d="M419,-60C419,-60 328,-60 328,-60 325,-60 322,-57 322,-54 322,-54 322,-48 322,-48 322,-45 325,-42 328,-42 328,-42 419,-42 419,-42 422,-42 425,-45 425,-48 425,-48 425,-54 425,-54 425,-57 422,-60 419,-60"/>
<text text-anchor="middle" x="373.5" y="-48.8" font-family="Helvetica,sans-Serif" font-size="9.00">home.worker.spec.ts</text>
</a>
</g>
</g>
<!-- src/home/home.worker.spec.ts&#45;&gt;src/home/home.worker.js -->
<g id="edge28" class="edge"><title>src/home/home.worker.spec.ts&#45;&gt;src/home/home.worker.js</title>
<path fill="none" stroke="black" d="M425.184,-51C433.599,-51 442.316,-51 450.696,-51"/>
<polygon fill="black" stroke="black" points="450.709,-54.5001 460.709,-51 450.709,-47.5001 450.709,-54.5001"/>
</g>
<!-- src/home/index.ts -->
<g id="node22" class="node"><title>src/home/index.ts</title>
<g id="a_node22"><a xlink:href="src/home/index.ts" xlink:title="index.ts">
<path fill="#ffffcc" stroke="black" d="M394.5,-96C394.5,-96 352.5,-96 352.5,-96 349.5,-96 346.5,-93 346.5,-90 346.5,-90 346.5,-84 346.5,-84 346.5,-81 349.5,-78 352.5,-78 352.5,-78 394.5,-78 394.5,-78 397.5,-78 400.5,-81 400.5,-84 400.5,-84 400.5,-90 400.5,-90 400.5,-93 397.5,-96 394.5,-96"/>
<text text-anchor="middle" x="373.5" y="-84.8" font-family="Helvetica,sans-Serif" font-size="9.00">index.ts</text>
</a>
</g>
</g>
<!-- src/home/index.ts&#45;&gt;src/home/Home.tsx -->
<g id="edge29" class="edge"><title>src/home/index.ts&#45;&gt;src/home/Home.tsx</title>
<path fill="none" stroke="black" d="M400.504,-91.5584C418.479,-94.7094 442.665,-98.9492 462.69,-102.46"/>
<polygon fill="black" stroke="black" points="462.273,-105.94 472.727,-104.219 463.482,-99.045 462.273,-105.94"/>
</g>
<!-- src/home/index.ts&#45;&gt;src/home/home.action.ts -->
<g id="edge30" class="edge"><title>src/home/index.ts&#45;&gt;src/home/home.action.ts</title>
<path fill="none" stroke="black" d="M400.528,-87.1045C433.358,-87.4634 491.504,-88.8546 541,-94 554.811,-95.4357 569.716,-97.6469 583.346,-99.9341"/>
<polygon fill="black" stroke="black" points="583.032,-103.432 593.482,-101.686 584.224,-96.5339 583.032,-103.432"/>
</g>
<!-- src/home/index.ts&#45;&gt;src/home/home.saga.ts -->
<g id="edge31" class="edge"><title>src/home/index.ts&#45;&gt;src/home/home.saga.ts</title>
<path fill="none" stroke="black" d="M400.656,-93.3692C408.628,-95.6802 417.312,-98.5794 425,-102 442.132,-109.623 444.18,-115.711 461,-124 462.342,-124.661 463.721,-125.314 465.122,-125.954"/>
<polygon fill="black" stroke="black" points="463.966,-129.266 474.537,-129.974 466.715,-122.828 463.966,-129.266"/>
</g>
<!-- src/home/index.ts&#45;&gt;src/home/home.worker&#45;factory.ts -->
<g id="edge32" class="edge"><title>src/home/index.ts&#45;&gt;src/home/home.worker&#45;factory.ts</title>
<path fill="none" stroke="black" d="M400.617,-85.7579C417.778,-84.9501 440.724,-83.8862 461,-83 495.884,-81.4753 534.798,-79.8661 566.584,-78.5756"/>
<polygon fill="black" stroke="black" points="566.789,-82.0703 576.639,-78.1684 566.505,-75.076 566.789,-82.0703"/>
</g>
<!-- src/index.ts -->
<g id="node23" class="node"><title>src/index.ts</title>
<g id="a_node23"><a xlink:href="src/index.ts" xlink:title="index.ts">
<path fill="#ffffcc" stroke="black" d="M64,-382C64,-382 22,-382 22,-382 19,-382 16,-379 16,-376 16,-376 16,-370 16,-370 16,-367 19,-364 22,-364 22,-364 64,-364 64,-364 67,-364 70,-367 70,-370 70,-370 70,-376 70,-376 70,-379 67,-382 64,-382"/>
<text text-anchor="middle" x="43" y="-370.8" font-family="Helvetica,sans-Serif" font-size="9.00">index.ts</text>
</a>
</g>
</g>
<!-- src/root/root.tsx -->
<g id="node33" class="node"><title>src/root/root.tsx</title>
<g id="a_node33"><a xlink:href="src/root/root.tsx" xlink:title="root.tsx">
<path fill="#ffffcc" stroke="black" d="M161,-382C161,-382 119,-382 119,-382 116,-382 113,-379 113,-376 113,-376 113,-370 113,-370 113,-367 116,-364 119,-364 119,-364 161,-364 161,-364 164,-364 167,-367 167,-370 167,-370 167,-376 167,-376 167,-379 164,-382 161,-382"/>
<text text-anchor="middle" x="140" y="-370.8" font-family="Helvetica,sans-Serif" font-size="9.00">root.tsx</text>
</a>
</g>
</g>
<!-- src/index.ts&#45;&gt;src/root/root.tsx -->
<g id="edge33" class="edge"><title>src/index.ts&#45;&gt;src/root/root.tsx</title>
<path fill="none" stroke="black" d="M70.2106,-373C80.2826,-373 91.9647,-373 102.811,-373"/>
<polygon fill="black" stroke="black" points="102.875,-376.5 112.875,-373 102.875,-369.5 102.875,-376.5"/>
</g>
<!-- src/menu/Menu.tsx&#45;&gt;src/auth/index.ts -->
<g id="edge34" class="edge"><title>src/menu/Menu.tsx&#45;&gt;src/auth/index.ts</title>
<path fill="none" stroke="black" d="M400.518,-498.98C408.921,-495.563 417.892,-490.961 425,-485 456.731,-458.39 480.261,-415.009 491.883,-390.459"/>
<polygon fill="black" stroke="black" points="495.144,-391.745 496.124,-381.195 488.779,-388.831 495.144,-391.745"/>
</g>
<!-- src/menu/index.ts -->
<g id="node25" class="node"><title>src/menu/index.ts</title>
<g id="a_node25"><a xlink:href="src/menu/index.ts" xlink:title="index.ts">
<path fill="#ffffcc" stroke="black" d="M269,-531C269,-531 227,-531 227,-531 224,-531 221,-528 221,-525 221,-525 221,-519 221,-519 221,-516 224,-513 227,-513 227,-513 269,-513 269,-513 272,-513 275,-516 275,-519 275,-519 275,-525 275,-525 275,-528 272,-531 269,-531"/>
<text text-anchor="middle" x="248" y="-519.8" font-family="Helvetica,sans-Serif" font-size="9.00">index.ts</text>
</a>
</g>
</g>
<!-- src/menu/index.ts&#45;&gt;src/menu/Menu.tsx -->
<g id="edge35" class="edge"><title>src/menu/index.ts&#45;&gt;src/menu/Menu.tsx</title>
<path fill="none" stroke="black" d="M275.191,-518.819C292.957,-516.661 316.679,-513.78 336.253,-511.402"/>
<polygon fill="black" stroke="black" points="336.842,-514.857 346.347,-510.177 335.998,-507.908 336.842,-514.857"/>
</g>
<!-- src/menu/menu.domain.ts -->
<g id="node26" class="node"><title>src/menu/menu.domain.ts</title>
<g id="a_node26"><a xlink:href="src/menu/menu.domain.ts" xlink:title="menu.domain.ts">
<path fill="#ffffcc" stroke="black" d="M409.5,-546C409.5,-546 337.5,-546 337.5,-546 334.5,-546 331.5,-543 331.5,-540 331.5,-540 331.5,-534 331.5,-534 331.5,-531 334.5,-528 337.5,-528 337.5,-528 409.5,-528 409.5,-528 412.5,-528 415.5,-531 415.5,-534 415.5,-534 415.5,-540 415.5,-540 415.5,-543 412.5,-546 409.5,-546"/>
<text text-anchor="middle" x="373.5" y="-534.8" font-family="Helvetica,sans-Serif" font-size="9.00">menu.domain.ts</text>
</a>
</g>
</g>
<!-- src/menu/index.ts&#45;&gt;src/menu/menu.domain.ts -->
<g id="edge36" class="edge"><title>src/menu/index.ts&#45;&gt;src/menu/menu.domain.ts</title>
<path fill="none" stroke="black" d="M275.191,-525.181C288.55,-526.804 305.277,-528.835 321.076,-530.754"/>
<polygon fill="black" stroke="black" points="320.931,-534.262 331.28,-531.993 321.775,-527.313 320.931,-534.262"/>
</g>
<!-- src/root/root.domain.ts -->
<g id="node28" class="node"><title>src/root/root.domain.ts</title>
<g id="a_node28"><a xlink:href="src/root/root.domain.ts" xlink:title="root.domain.ts">
<path fill="#ffffcc" stroke="black" d="M280,-456C280,-456 216,-456 216,-456 213,-456 210,-453 210,-450 210,-450 210,-444 210,-444 210,-441 213,-438 216,-438 216,-438 280,-438 280,-438 283,-438 286,-441 286,-444 286,-444 286,-450 286,-450 286,-453 283,-456 280,-456"/>
<text text-anchor="middle" x="248" y="-444.8" font-family="Helvetica,sans-Serif" font-size="9.00">root.domain.ts</text>
</a>
</g>
</g>
<!-- src/root/index.ts&#45;&gt;src/root/root.domain.ts -->
<g id="edge37" class="edge"><title>src/root/index.ts&#45;&gt;src/root/root.domain.ts</title>
<path fill="none" stroke="black" d="M167.202,-436.461C177.059,-437.763 188.595,-439.286 199.782,-440.764"/>
<polygon fill="black" stroke="black" points="199.529,-444.26 209.901,-442.1 200.445,-437.321 199.529,-444.26"/>
</g>
<!-- src/root/root.reducer.ts -->
<g id="node29" class="node"><title>src/root/root.reducer.ts</title>
<g id="a_node29"><a xlink:href="src/root/root.reducer.ts" xlink:title="root.reducer.ts">
<path fill="#ffffcc" stroke="black" d="M405.5,-392C405.5,-392 341.5,-392 341.5,-392 338.5,-392 335.5,-389 335.5,-386 335.5,-386 335.5,-380 335.5,-380 335.5,-377 338.5,-374 341.5,-374 341.5,-374 405.5,-374 405.5,-374 408.5,-374 411.5,-377 411.5,-380 411.5,-380 411.5,-386 411.5,-386 411.5,-389 408.5,-392 405.5,-392"/>
<text text-anchor="middle" x="373.5" y="-380.8" font-family="Helvetica,sans-Serif" font-size="9.00">root.reducer.ts</text>
</a>
</g>
</g>
<!-- src/root/index.ts&#45;&gt;src/root/root.reducer.ts -->
<g id="edge38" class="edge"><title>src/root/index.ts&#45;&gt;src/root/root.reducer.ts</title>
<path fill="none" stroke="black" d="M167.047,-432.502C196.366,-431.437 245.231,-428.141 286,-418 306.501,-412.901 328.562,-403.914 345.273,-396.325"/>
<polygon fill="black" stroke="black" points="346.852,-399.45 354.442,-392.057 343.899,-393.104 346.852,-399.45"/>
</g>
<!-- src/root/root.saga.ts -->
<g id="node30" class="node"><title>src/root/root.saga.ts</title>
<g id="a_node30"><a xlink:href="src/root/root.saga.ts" xlink:title="root.saga.ts">
<path fill="#ffffcc" stroke="black" d="M274.5,-382C274.5,-382 221.5,-382 221.5,-382 218.5,-382 215.5,-379 215.5,-376 215.5,-376 215.5,-370 215.5,-370 215.5,-367 218.5,-364 221.5,-364 221.5,-364 274.5,-364 274.5,-364 277.5,-364 280.5,-367 280.5,-370 280.5,-370 280.5,-376 280.5,-376 280.5,-379 277.5,-382 274.5,-382"/>
<text text-anchor="middle" x="248" y="-370.8" font-family="Helvetica,sans-Serif" font-size="9.00">root.saga.ts</text>
</a>
</g>
</g>
<!-- src/root/index.ts&#45;&gt;src/root/root.saga.ts -->
<g id="edge39" class="edge"><title>src/root/index.ts&#45;&gt;src/root/root.saga.ts</title>
<path fill="none" stroke="black" d="M163.088,-423.958C166.821,-422.15 170.589,-420.142 174,-418 191.639,-406.925 192.136,-398.707 210,-388 210.78,-387.532 211.578,-387.073 212.389,-386.623"/>
<polygon fill="black" stroke="black" points="214.008,-389.727 221.418,-382.154 210.903,-383.453 214.008,-389.727"/>
</g>
<!-- src/root/root.store.ts -->
<g id="node32" class="node"><title>src/root/root.store.ts</title>
<g id="a_node32"><a xlink:href="src/root/root.store.ts" xlink:title="root.store.ts">
<path fill="#ffffcc" stroke="black" d="M274.5,-412C274.5,-412 221.5,-412 221.5,-412 218.5,-412 215.5,-409 215.5,-406 215.5,-406 215.5,-400 215.5,-400 215.5,-397 218.5,-394 221.5,-394 221.5,-394 274.5,-394 274.5,-394 277.5,-394 280.5,-397 280.5,-400 280.5,-400 280.5,-406 280.5,-406 280.5,-409 277.5,-412 274.5,-412"/>
<text text-anchor="middle" x="248" y="-400.8" font-family="Helvetica,sans-Serif" font-size="9.00">root.store.ts</text>
</a>
</g>
</g>
<!-- src/root/index.ts&#45;&gt;src/root/root.store.ts -->
<g id="edge40" class="edge"><title>src/root/index.ts&#45;&gt;src/root/root.store.ts</title>
<path fill="none" stroke="black" d="M167.202,-425.584C178.83,-422.293 192.792,-418.342 205.765,-414.67"/>
<polygon fill="black" stroke="black" points="206.768,-418.024 215.436,-411.933 204.861,-411.289 206.768,-418.024"/>
</g>
<!-- src/root/root.reducer.ts&#45;&gt;src/app/index.ts -->
<g id="edge41" class="edge"><title>src/root/root.reducer.ts&#45;&gt;src/app/index.ts</title>
<path fill="none" stroke="black" d="M335.221,-376.353C328.072,-374.621 320.723,-372.517 314,-370 283.993,-358.767 205.159,-313.576 165.103,-290.187"/>
<polygon fill="black" stroke="black" points="166.66,-287.043 156.262,-285.01 163.123,-293.084 166.66,-287.043"/>
</g>
<!-- src/root/root.reducer.ts&#45;&gt;src/auth/index.ts -->
<g id="edge42" class="edge"><title>src/root/root.reducer.ts&#45;&gt;src/auth/index.ts</title>
<path fill="none" stroke="black" d="M411.814,-379.729C428.173,-378.296 447.308,-376.618 463.565,-375.193"/>
<polygon fill="black" stroke="black" points="464.118,-378.659 473.775,-374.299 463.507,-371.685 464.118,-378.659"/>
</g>
<!-- src/root/root.saga.ts&#45;&gt;src/auth/auth.saga.ts -->
<g id="edge43" class="edge"><title>src/root/root.saga.ts&#45;&gt;src/auth/auth.saga.ts</title>
<path fill="none" stroke="black" d="M271.601,-382.132C288.572,-388.914 309.611,-397.135 314,-398 410.239,-416.971 526.088,-412.923 587.62,-408.711"/>
<polygon fill="black" stroke="black" points="588.017,-412.191 597.739,-407.982 587.514,-405.209 588.017,-412.191"/>
</g>
<!-- src/root/root.saga.ts&#45;&gt;src/home/home.saga.ts -->
<g id="edge44" class="edge"><title>src/root/root.saga.ts&#45;&gt;src/home/home.saga.ts</title>
<path fill="none" stroke="black" d="M280.657,-370.383C330.569,-366.196 422.218,-358.235 425,-356 465.434,-323.521 444.043,-294.013 461,-245 471.646,-214.228 484.89,-178.777 492.883,-157.665"/>
<polygon fill="black" stroke="black" points="496.263,-158.623 496.542,-148.032 489.719,-156.137 496.263,-158.623"/>
</g>
<!-- src/root/root.spec.tsx -->
<g id="node31" class="node"><title>src/root/root.spec.tsx</title>
<g id="a_node31"><a xlink:href="src/root/root.spec.tsx" xlink:title="root.spec.tsx">
<path fill="#ffffcc" stroke="black" d="M168,-412C168,-412 112,-412 112,-412 109,-412 106,-409 106,-406 106,-406 106,-400 106,-400 106,-397 109,-394 112,-394 112,-394 168,-394 168,-394 171,-394 174,-397 174,-400 174,-400 174,-406 174,-406 174,-409 171,-412 168,-412"/>
<text text-anchor="middle" x="140" y="-400.8" font-family="Helvetica,sans-Serif" font-size="9.00">root.spec.tsx</text>
</a>
</g>
</g>
<!-- src/root/root.store.ts&#45;&gt;src/root/root.reducer.ts -->
<g id="edge45" class="edge"><title>src/root/root.store.ts&#45;&gt;src/root/root.reducer.ts</title>
<path fill="none" stroke="black" d="M280.804,-397.85C294.276,-395.668 310.257,-393.08 325.074,-390.68"/>
<polygon fill="black" stroke="black" points="325.788,-394.11 335.1,-389.057 324.669,-387.2 325.788,-394.11"/>
</g>
<!-- src/root/root.tsx&#45;&gt;src/app/App.tsx -->
<g id="edge46" class="edge"><title>src/root/root.tsx&#45;&gt;src/app/App.tsx</title>
<path fill="none" stroke="black" d="M152.344,-363.796C170.355,-349.184 205.705,-320.504 227.739,-302.627"/>
<polygon fill="black" stroke="black" points="230.177,-305.156 235.738,-296.137 225.767,-299.72 230.177,-305.156"/>
</g>
<!-- src/root/root.tsx&#45;&gt;src/root/root.saga.ts -->
<g id="edge47" class="edge"><title>src/root/root.tsx&#45;&gt;src/root/root.saga.ts</title>
<path fill="none" stroke="black" d="M167.202,-373C178.716,-373 192.519,-373 205.383,-373"/>
<polygon fill="black" stroke="black" points="205.436,-376.5 215.436,-373 205.436,-369.5 205.436,-376.5"/>
</g>
<!-- src/root/root.tsx&#45;&gt;src/root/root.store.ts -->
<g id="edge48" class="edge"><title>src/root/root.tsx&#45;&gt;src/root/root.store.ts</title>
<path fill="none" stroke="black" d="M167.202,-380.416C178.83,-383.707 192.792,-387.658 205.765,-391.33"/>
<polygon fill="black" stroke="black" points="204.861,-394.711 215.436,-394.067 206.768,-387.976 204.861,-394.711"/>
</g>
</g>
</svg>
