<?xml version="1.0" encoding="UTF-8" standalone="no"?>
<!DOCTYPE svg PUBLIC "-//W3C//DTD SVG 1.1//EN"
 "http://www.w3.org/Graphics/SVG/1.1/DTD/svg11.dtd">
<!-- Generated by graphviz version 2.38.0 (20140413.2041)
 -->
<!-- Title: dependency&#45;cruiser output Pages: 1 -->
<svg width="875pt" height="520pt"
 viewBox="0.00 0.00 875.00 520.00" xmlns="http://www.w3.org/2000/svg" xmlns:xlink="http://www.w3.org/1999/xlink">
<g id="graph0" class="graph" transform="scale(1 1) rotate(0) translate(4 516)">
<title>dependency&#45;cruiser output</title>
<polygon fill="white" stroke="none" points="-4,4 -4,-516 871,-516 871,4 -4,4"/>
<g id="clust1" class="cluster"><title>cluster_/src</title>
<path fill="none" stroke="black" stroke-width="2" d="M20,-26C20,-26 847,-26 847,-26 853,-26 859,-32 859,-38 859,-38 859,-492 859,-492 859,-498 853,-504 847,-504 847,-504 20,-504 20,-504 14,-504 8,-498 8,-492 8,-492 8,-38 8,-38 8,-32 14,-26 20,-26"/>
<text text-anchor="middle" x="433.5" y="-492.8" font-family="Helvetica,sans-Serif" font-weight="bold" font-size="9.00">src</text>
</g>
<g id="clust2" class="cluster"><title>cluster_/src/admin</title>
<path fill="none" stroke="black" stroke-width="2" d="M392.5,-371C392.5,-371 567,-371 567,-371 573,-371 579,-377 579,-383 579,-383 579,-411 579,-411 579,-417 573,-423 567,-423 567,-423 392.5,-423 392.5,-423 386.5,-423 380.5,-417 380.5,-411 380.5,-411 380.5,-383 380.5,-383 380.5,-377 386.5,-371 392.5,-371"/>
<text text-anchor="middle" x="479.75" y="-411.8" font-family="Helvetica,sans-Serif" font-weight="bold" font-size="9.00">admin</text>
</g>
<g id="clust3" class="cluster"><title>cluster_/src/app</title>
<path fill="none" stroke="black" stroke-width="2" d="M28,-338C28,-338 309,-338 309,-338 315,-338 321,-344 321,-350 321,-350 321,-466 321,-466 321,-472 315,-478 309,-478 309,-478 28,-478 28,-478 22,-478 16,-472 16,-466 16,-466 16,-350 16,-350 16,-344 22,-338 28,-338"/>
<text text-anchor="middle" x="168.5" y="-466.8" font-family="Helvetica,sans-Serif" font-weight="bold" font-size="9.00">app</text>
</g>
<g id="clust4" class="cluster"><title>cluster_/src/auth</title>
<path fill="none" stroke="black" stroke-width="2" d="M520,-105C520,-105 839,-105 839,-105 845,-105 851,-111 851,-117 851,-117 851,-203 851,-203 851,-209 845,-215 839,-215 839,-215 520,-215 520,-215 514,-215 508,-209 508,-203 508,-203 508,-117 508,-117 508,-111 514,-105 520,-105"/>
<text text-anchor="middle" x="679.5" y="-203.8" font-family="Helvetica,sans-Serif" font-weight="bold" font-size="9.00">auth</text>
</g>
<g id="clust5" class="cluster"><title>cluster_/src/home</title>
<path fill="none" stroke="black" stroke-width="2" d="M368,-223C368,-223 725,-223 725,-223 731,-223 737,-229 737,-235 737,-235 737,-351 737,-351 737,-357 731,-363 725,-363 725,-363 368,-363 368,-363 362,-363 356,-357 356,-351 356,-351 356,-235 356,-235 356,-229 362,-223 368,-223"/>
<text text-anchor="middle" x="546.5" y="-351.8" font-family="Helvetica,sans-Serif" font-weight="bold" font-size="9.00">home</text>
</g>
<g id="clust6" class="cluster"><title>cluster_/src/menu</title>
<path fill="none" stroke="black" stroke-width="2" d="M132,-192C132,-192 324,-192 324,-192 330,-192 336,-198 336,-204 336,-204 336,-292 336,-292 336,-298 330,-304 324,-304 324,-304 132,-304 132,-304 126,-304 120,-298 120,-292 120,-292 120,-204 120,-204 120,-198 126,-192 132,-192"/>
<text text-anchor="middle" x="228" y="-292.8" font-family="Helvetica,sans-Serif" font-weight="bold" font-size="9.00">menu</text>
</g>
<g id="clust7" class="cluster"><title>cluster_/src/root</title>
<path fill="none" stroke="black" stroke-width="2" d="M138,-34C138,-34 449.5,-34 449.5,-34 455.5,-34 461.5,-40 461.5,-46 461.5,-46 461.5,-148 461.5,-148 461.5,-154 455.5,-160 449.5,-160 449.5,-160 138,-160 138,-160 132,-160 126,-154 126,-148 126,-148 126,-46 126,-46 126,-40 132,-34 138,-34"/>
<text text-anchor="middle" x="293.75" y="-148.8" font-family="Helvetica,sans-Serif" font-weight="bold" font-size="9.00">root</text>
</g>
<!-- ./app.styles -->
<g id="node1" class="node"><title>./app.styles</title>
<path fill="#ffffcc" stroke="red" d="M309.5,-18C309.5,-18 262.5,-18 262.5,-18 259.5,-18 256.5,-15 256.5,-12 256.5,-12 256.5,-6 256.5,-6 256.5,-3 259.5,-0 262.5,-0 262.5,-0 309.5,-0 309.5,-0 312.5,-0 315.5,-3 315.5,-6 315.5,-6 315.5,-12 315.5,-12 315.5,-15 312.5,-18 309.5,-18"/>
<text text-anchor="middle" x="286" y="-6.8" font-family="Helvetica,sans-Serif" font-size="9.00" fill="red">app.styles</text>
</g>
<!-- src/admin/Admin.tsx -->
<g id="node2" class="node"><title>src/admin/Admin.tsx</title>
<g id="a_node2"><a xlink:href="src/admin/Admin.tsx" xlink:title="Admin.tsx">
<path fill="#ffffcc" stroke="black" d="M565,-397C565,-397 521,-397 521,-397 518,-397 515,-394 515,-391 515,-391 515,-385 515,-385 515,-382 518,-379 521,-379 521,-379 565,-379 565,-379 568,-379 571,-382 571,-385 571,-385 571,-391 571,-391 571,-394 568,-397 565,-397"/>
<text text-anchor="middle" x="543" y="-385.8" font-family="Helvetica,sans-Serif" font-size="9.00">Admin.tsx</text>
</a>
</g>
</g>
<!-- src/admin/index.ts -->
<g id="node3" class="node"><title>src/admin/index.ts</title>
<g id="a_node3"><a xlink:href="src/admin/index.ts" xlink:title="index.ts">
<path fill="#ffffcc" stroke="black" d="M436.5,-397C436.5,-397 394.5,-397 394.5,-397 391.5,-397 388.5,-394 388.5,-391 388.5,-391 388.5,-385 388.5,-385 388.5,-382 391.5,-379 394.5,-379 394.5,-379 436.5,-379 436.5,-379 439.5,-379 442.5,-382 442.5,-385 442.5,-385 442.5,-391 442.5,-391 442.5,-394 439.5,-397 436.5,-397"/>
<text text-anchor="middle" x="415.5" y="-385.8" font-family="Helvetica,sans-Serif" font-size="9.00">index.ts</text>
</a>
</g>
</g>
<!-- src/admin/index.ts&#45;&gt;src/admin/Admin.tsx -->
<g id="edge1" class="edge"><title>src/admin/index.ts&#45;&gt;src/admin/Admin.tsx</title>
<path fill="none" stroke="black" d="M442.504,-388C460.479,-388 484.665,-388 504.69,-388"/>
<polygon fill="black" stroke="black" points="504.727,-391.5 514.727,-388 504.727,-384.5 504.727,-391.5"/>
</g>
<!-- src/app/App.spec.tsx -->
<g id="node4" class="node"><title>src/app/App.spec.tsx</title>
<g id="a_node4"><a xlink:href="src/app/App.spec.tsx" xlink:title="App.spec.tsx">
<path fill="#ffffcc" stroke="black" d="M86,-364C86,-364 30,-364 30,-364 27,-364 24,-361 24,-358 24,-358 24,-352 24,-352 24,-349 27,-346 30,-346 30,-346 86,-346 86,-346 89,-346 92,-349 92,-352 92,-352 92,-358 92,-358 92,-361 89,-364 86,-364"/>
<text text-anchor="middle" x="58" y="-352.8" font-family="Helvetica,sans-Serif" font-size="9.00">App.spec.tsx</text>
</a>
</g>
</g>
<!-- src/app/App.tsx -->
<g id="node5" class="node"><title>src/app/App.tsx</title>
<g id="a_node5"><a xlink:href="src/app/App.tsx" xlink:title="App.tsx">
<path fill="#ffffcc" stroke="black" d="M189,-364C189,-364 147,-364 147,-364 144,-364 141,-361 141,-358 141,-358 141,-352 141,-352 141,-349 144,-346 147,-346 147,-346 189,-346 189,-346 192,-346 195,-349 195,-352 195,-352 195,-358 195,-358 195,-361 192,-364 189,-364"/>
<text text-anchor="middle" x="168" y="-352.8" font-family="Helvetica,sans-Serif" font-size="9.00">App.tsx</text>
</a>
</g>
</g>
<!-- src/app/App.spec.tsx&#45;&gt;src/app/App.tsx -->
<g id="edge4" class="edge"><title>src/app/App.spec.tsx&#45;&gt;src/app/App.tsx</title>
<path fill="none" stroke="black" d="M92.2848,-355C104.487,-355 118.352,-355 130.797,-355"/>
<polygon fill="black" stroke="black" points="130.85,-358.5 140.85,-355 130.85,-351.5 130.85,-358.5"/>
</g>
<!-- src/app/routes.ts -->
<g id="node9" class="node"><title>src/app/routes.ts</title>
<g id="a_node9"><a xlink:href="src/app/routes.ts" xlink:title="routes.ts">
<path fill="#ffffcc" stroke="black" d="M307,-372C307,-372 265,-372 265,-372 262,-372 259,-369 259,-366 259,-366 259,-360 259,-360 259,-357 262,-354 265,-354 265,-354 307,-354 307,-354 310,-354 313,-357 313,-360 313,-360 313,-366 313,-366 313,-369 310,-372 307,-372"/>
<text text-anchor="middle" x="286" y="-360.8" font-family="Helvetica,sans-Serif" font-size="9.00">routes.ts</text>
</a>
</g>
</g>
<!-- src/app/App.spec.tsx&#45;&gt;src/app/routes.ts -->
<g id="edge5" class="edge"><title>src/app/App.spec.tsx&#45;&gt;src/app/routes.ts</title>
<path fill="none" stroke="black" d="M89.4521,-364.016C99.1277,-366.467 109.931,-368.78 120,-370 164.048,-375.336 215.136,-371.663 248.657,-367.923"/>
<polygon fill="black" stroke="black" points="249.37,-371.363 258.892,-366.717 248.551,-364.411 249.37,-371.363"/>
</g>
<!-- src/auth/index.ts -->
<g id="node14" class="node"><title>src/auth/index.ts</title>
<g id="a_node14"><a xlink:href="src/auth/index.ts" xlink:title="index.ts">
<path fill="#ffffcc" stroke="black" d="M564,-176C564,-176 522,-176 522,-176 519,-176 516,-173 516,-170 516,-170 516,-164 516,-164 516,-161 519,-158 522,-158 522,-158 564,-158 564,-158 567,-158 570,-161 570,-164 570,-164 570,-170 570,-170 570,-173 567,-176 564,-176"/>
<text text-anchor="middle" x="543" y="-164.8" font-family="Helvetica,sans-Serif" font-size="9.00">index.ts</text>
</a>
</g>
</g>
<!-- src/app/App.spec.tsx&#45;&gt;src/auth/index.ts -->
<g id="edge2" class="edge"><title>src/app/App.spec.tsx&#45;&gt;src/auth/index.ts</title>
<path fill="none" stroke="black" d="M88.0031,-345.83C89.475,-344.698 90.8266,-343.427 92,-342 135.911,-288.608 68.071,-234.632 120,-189 148.617,-163.853 408.614,-165.03 505.677,-166.369"/>
<polygon fill="black" stroke="black" points="505.835,-169.871 515.885,-166.519 505.938,-162.872 505.835,-169.871"/>
</g>
<!-- src/root/index.ts -->
<g id="node30" class="node"><title>src/root/index.ts</title>
<g id="a_node30"><a xlink:href="src/root/index.ts" xlink:title="index.ts">
<path fill="#ffffcc" stroke="black" d="M189,-134C189,-134 147,-134 147,-134 144,-134 141,-131 141,-128 141,-128 141,-122 141,-122 141,-119 144,-116 147,-116 147,-116 189,-116 189,-116 192,-116 195,-119 195,-122 195,-122 195,-128 195,-128 195,-131 192,-134 189,-134"/>
<text text-anchor="middle" x="168" y="-122.8" font-family="Helvetica,sans-Serif" font-size="9.00">index.ts</text>
</a>
</g>
</g>
<!-- src/app/App.spec.tsx&#45;&gt;src/root/index.ts -->
<g id="edge3" class="edge"><title>src/app/App.spec.tsx&#45;&gt;src/root/index.ts</title>
<path fill="none" stroke="black" d="M88.0436,-345.862C89.5055,-344.722 90.8439,-343.441 92,-342 141.845,-279.881 81.0296,-234.459 120,-165 125.505,-155.188 134.401,-146.696 142.98,-140.092"/>
<polygon fill="black" stroke="black" points="145.213,-142.798 151.316,-134.137 141.144,-137.102 145.213,-142.798"/>
</g>
<!-- src/app/App.tsx&#45;&gt;./app.styles -->
<g id="edge9" class="edge"><title>src/app/App.tsx&#45;&gt;./app.styles</title>
<path fill="none" stroke="black" d="M179.175,-345.794C188.35,-336.846 201.385,-322.388 208,-307 256.857,-193.351 173.742,-132.818 244,-31 245.881,-28.274 248.211,-25.8569 250.798,-23.7196"/>
<polygon fill="black" stroke="black" points="252.789,-26.5991 259.139,-18.1184 248.886,-20.788 252.789,-26.5991"/>
</g>
<!-- src/app/App.tsx&#45;&gt;src/app/routes.ts -->
<g id="edge10" class="edge"><title>src/app/App.tsx&#45;&gt;src/app/routes.ts</title>
<path fill="none" stroke="black" d="M195.033,-356.795C210.743,-357.879 231.003,-359.276 248.319,-360.47"/>
<polygon fill="black" stroke="black" points="248.436,-363.987 258.653,-361.183 248.917,-357.003 248.436,-363.987"/>
</g>
<!-- src/globals.ts -->
<g id="node15" class="node"><title>src/globals.ts</title>
<g id="a_node15"><a xlink:href="src/globals.ts" xlink:title="globals.ts">
<path fill="#ffffcc" stroke="black" d="M308.5,-330C308.5,-330 263.5,-330 263.5,-330 260.5,-330 257.5,-327 257.5,-324 257.5,-324 257.5,-318 257.5,-318 257.5,-315 260.5,-312 263.5,-312 263.5,-312 308.5,-312 308.5,-312 311.5,-312 314.5,-315 314.5,-318 314.5,-318 314.5,-324 314.5,-324 314.5,-327 311.5,-330 308.5,-330"/>
<text text-anchor="middle" x="286" y="-318.8" font-family="Helvetica,sans-Serif" font-size="9.00">globals.ts</text>
</a>
</g>
</g>
<!-- src/app/App.tsx&#45;&gt;src/globals.ts -->
<g id="edge6" class="edge"><title>src/app/App.tsx&#45;&gt;src/globals.ts</title>
<path fill="none" stroke="black" d="M195.033,-347.37C210.556,-342.82 230.522,-336.968 247.7,-331.933"/>
<polygon fill="black" stroke="black" points="248.825,-335.25 257.437,-329.079 246.856,-328.533 248.825,-335.25"/>
</g>
<!-- src/menu/Menu.tsx -->
<g id="node26" class="node"><title>src/menu/Menu.tsx</title>
<g id="a_node26"><a xlink:href="src/menu/Menu.tsx" xlink:title="Menu.tsx">
<path fill="#ffffcc" stroke="black" d="M307,-248C307,-248 265,-248 265,-248 262,-248 259,-245 259,-242 259,-242 259,-236 259,-236 259,-233 262,-230 265,-230 265,-230 307,-230 307,-230 310,-230 313,-233 313,-236 313,-236 313,-242 313,-242 313,-245 310,-248 307,-248"/>
<text text-anchor="middle" x="286" y="-236.8" font-family="Helvetica,sans-Serif" font-size="9.00">Menu.tsx</text>
</a>
</g>
</g>
<!-- src/app/App.tsx&#45;&gt;src/menu/Menu.tsx -->
<g id="edge7" class="edge"><title>src/app/App.tsx&#45;&gt;src/menu/Menu.tsx</title>
<path fill="none" stroke="black" d="M176.714,-345.983C184.759,-336.472 197.619,-320.957 208,-307 224.994,-284.151 221.547,-271.514 244,-254 245.614,-252.741 247.343,-251.581 249.146,-250.513"/>
<polygon fill="black" stroke="black" points="251.126,-253.441 258.574,-245.906 248.053,-247.152 251.126,-253.441"/>
</g>
<!-- src/app/App.tsx&#45;&gt;src/root/index.ts -->
<g id="edge8" class="edge"><title>src/app/App.tsx&#45;&gt;src/root/index.ts</title>
<path fill="none" stroke="black" d="M149.989,-345.825C133.87,-336.493 111.293,-320.374 101.333,-299 91.7594,-278.454 93.0633,-218.104 101.333,-197 110.406,-173.848 130.807,-153.689 146.668,-140.638"/>
<polygon fill="black" stroke="black" points="149.222,-143.082 154.912,-134.145 144.89,-137.583 149.222,-143.082"/>
<path fill="none" stroke="black" d="M152.209,-345.997C138.342,-337.089 119.104,-322.043 110.667,-303 100.765,-280.651 102.279,-215.96 110.667,-193 118.214,-172.341 135.112,-153.62 148.618,-141.076"/>
<polygon fill="black" stroke="black" points="151.32,-143.357 156.476,-134.101 146.674,-138.122 151.32,-143.357"/>
</g>
<!-- src/app/app.domain.ts -->
<g id="node6" class="node"><title>src/app/app.domain.ts</title>
<g id="a_node6"><a xlink:href="src/app/app.domain.ts" xlink:title="app.domain.ts">
<path fill="#ffffcc" stroke="black" d="M200,-422C200,-422 136,-422 136,-422 133,-422 130,-419 130,-416 130,-416 130,-410 130,-410 130,-407 133,-404 136,-404 136,-404 200,-404 200,-404 203,-404 206,-407 206,-410 206,-410 206,-416 206,-416 206,-419 203,-422 200,-422"/>
<text text-anchor="middle" x="168" y="-410.8" font-family="Helvetica,sans-Serif" font-size="9.00">app.domain.ts</text>
</a>
</g>
</g>
<!-- src/app/app.reducer.ts -->
<g id="node7" class="node"><title>src/app/app.reducer.ts</title>
<g id="a_node7"><a xlink:href="src/app/app.reducer.ts" xlink:title="app.reducer.ts">
<path fill="#ffffcc" stroke="black" d="M200,-452C200,-452 136,-452 136,-452 133,-452 130,-449 130,-446 130,-446 130,-440 130,-440 130,-437 133,-434 136,-434 136,-434 200,-434 200,-434 203,-434 206,-437 206,-440 206,-440 206,-446 206,-446 206,-449 203,-452 200,-452"/>
<text text-anchor="middle" x="168" y="-440.8" font-family="Helvetica,sans-Serif" font-size="9.00">app.reducer.ts</text>
</a>
</g>
</g>
<!-- src/app/index.ts -->
<g id="node8" class="node"><title>src/app/index.ts</title>
<g id="a_node8"><a xlink:href="src/app/index.ts" xlink:title="index.ts">
<path fill="#ffffcc" stroke="black" d="M79,-400C79,-400 37,-400 37,-400 34,-400 31,-397 31,-394 31,-394 31,-388 31,-388 31,-385 34,-382 37,-382 37,-382 79,-382 79,-382 82,-382 85,-385 85,-388 85,-388 85,-394 85,-394 85,-397 82,-400 79,-400"/>
<text text-anchor="middle" x="58" y="-388.8" font-family="Helvetica,sans-Serif" font-size="9.00">index.ts</text>
</a>
</g>
</g>
<!-- src/app/index.ts&#45;&gt;src/app/App.tsx -->
<g id="edge11" class="edge"><title>src/app/index.ts&#45;&gt;src/app/App.tsx</title>
<path fill="none" stroke="black" d="M85.1438,-382.285C98.9705,-377.676 116.153,-371.949 131.2,-366.933"/>
<polygon fill="black" stroke="black" points="132.343,-370.242 140.723,-363.759 130.129,-363.601 132.343,-370.242"/>
</g>
<!-- src/app/index.ts&#45;&gt;src/app/app.domain.ts -->
<g id="edge12" class="edge"><title>src/app/index.ts&#45;&gt;src/app/app.domain.ts</title>
<path fill="none" stroke="black" d="M85.1438,-396.326C95.5809,-398.452 107.93,-400.967 119.829,-403.391"/>
<polygon fill="black" stroke="black" points="119.17,-406.829 129.667,-405.395 120.567,-399.969 119.17,-406.829"/>
</g>
<!-- src/app/index.ts&#45;&gt;src/app/app.reducer.ts -->
<g id="edge13" class="edge"><title>src/app/index.ts&#45;&gt;src/app/app.reducer.ts</title>
<path fill="none" stroke="black" d="M72.0664,-400.178C84.0906,-408.314 102.639,-420.099 120,-428 121.783,-428.812 123.623,-429.598 125.495,-430.357"/>
<polygon fill="black" stroke="black" points="124.419,-433.691 135.012,-433.916 126.871,-427.135 124.419,-433.691"/>
</g>
<!-- src/app/index.ts&#45;&gt;src/app/routes.ts -->
<g id="edge14" class="edge"><title>src/app/index.ts&#45;&gt;src/app/routes.ts</title>
<path fill="none" stroke="black" d="M85.1703,-388.899C114.975,-386.383 165.099,-381.774 208,-376 221.358,-374.202 235.955,-371.84 248.813,-369.623"/>
<polygon fill="black" stroke="black" points="249.45,-373.065 258.695,-367.89 248.24,-366.17 249.45,-373.065"/>
</g>
<!-- src/app/routes.ts&#45;&gt;src/admin/index.ts -->
<g id="edge15" class="edge"><title>src/app/routes.ts&#45;&gt;src/admin/index.ts</title>
<path fill="none" stroke="black" d="M313.109,-368.119C331.931,-371.81 357.574,-376.838 378.362,-380.914"/>
<polygon fill="black" stroke="black" points="377.939,-384.398 388.426,-382.887 379.286,-377.529 377.939,-384.398"/>
</g>
<!-- src/app/routes.ts&#45;&gt;src/auth/index.ts -->
<g id="edge16" class="edge"><title>src/app/routes.ts&#45;&gt;src/auth/index.ts</title>
<path fill="none" stroke="black" d="M313.112,-361.641C321.529,-359.893 330.176,-356.481 336,-350 375.073,-306.519 315.38,-262.039 356,-220 390.888,-183.893 418.962,-213.604 467,-199 483.287,-194.049 500.822,-186.688 514.838,-180.274"/>
<polygon fill="black" stroke="black" points="516.345,-183.433 523.921,-176.027 513.38,-177.093 516.345,-183.433"/>
</g>
<!-- src/home/index.ts -->
<g id="node23" class="node"><title>src/home/index.ts</title>
<g id="a_node23"><a xlink:href="src/home/index.ts" xlink:title="index.ts">
<path fill="#ffffcc" stroke="black" d="M436.5,-277C436.5,-277 394.5,-277 394.5,-277 391.5,-277 388.5,-274 388.5,-271 388.5,-271 388.5,-265 388.5,-265 388.5,-262 391.5,-259 394.5,-259 394.5,-259 436.5,-259 436.5,-259 439.5,-259 442.5,-262 442.5,-265 442.5,-265 442.5,-271 442.5,-271 442.5,-274 439.5,-277 436.5,-277"/>
<text text-anchor="middle" x="415.5" y="-265.8" font-family="Helvetica,sans-Serif" font-size="9.00">index.ts</text>
</a>
</g>
</g>
<!-- src/app/routes.ts&#45;&gt;src/home/index.ts -->
<g id="edge17" class="edge"><title>src/app/routes.ts&#45;&gt;src/home/index.ts</title>
<path fill="none" stroke="black" d="M313.134,-361.063C321.352,-359.249 329.871,-355.943 336,-350 358.309,-328.366 333.601,-304.541 356,-283 362.125,-277.11 370.235,-273.446 378.46,-271.189"/>
<polygon fill="black" stroke="black" points="379.365,-274.575 388.423,-269.078 377.914,-267.727 379.365,-274.575"/>
</g>
<!-- src/auth/auth.action.ts -->
<g id="node10" class="node"><title>src/auth/auth.action.ts</title>
<g id="a_node10"><a xlink:href="src/auth/auth.action.ts" xlink:title="auth.action.ts">
<path fill="#ffffcc" stroke="black" d="M833.5,-145C833.5,-145 774.5,-145 774.5,-145 771.5,-145 768.5,-142 768.5,-139 768.5,-139 768.5,-133 768.5,-133 768.5,-130 771.5,-127 774.5,-127 774.5,-127 833.5,-127 833.5,-127 836.5,-127 839.5,-130 839.5,-133 839.5,-133 839.5,-139 839.5,-139 839.5,-142 836.5,-145 833.5,-145"/>
<text text-anchor="middle" x="804" y="-133.8" font-family="Helvetica,sans-Serif" font-size="9.00">auth.action.ts</text>
</a>
</g>
</g>
<!-- src/auth/auth.domain.ts -->
<g id="node11" class="node"><title>src/auth/auth.domain.ts</title>
<g id="a_node11"><a xlink:href="src/auth/auth.domain.ts" xlink:title="auth.domain.ts">
<path fill="#ffffcc" stroke="black" d="M837,-182C837,-182 771,-182 771,-182 768,-182 765,-179 765,-176 765,-176 765,-170 765,-170 765,-167 768,-164 771,-164 771,-164 837,-164 837,-164 840,-164 843,-167 843,-170 843,-170 843,-176 843,-176 843,-179 840,-182 837,-182"/>
<text text-anchor="middle" x="804" y="-170.8" font-family="Helvetica,sans-Serif" font-size="9.00">auth.domain.ts</text>
</a>
</g>
</g>
<!-- src/auth/auth.reducer.ts -->
<g id="node12" class="node"><title>src/auth/auth.reducer.ts</title>
<g id="a_node12"><a xlink:href="src/auth/auth.reducer.ts" xlink:title="auth.reducer.ts">
<path fill="#ffffcc" stroke="black" d="M707,-175C707,-175 641,-175 641,-175 638,-175 635,-172 635,-169 635,-169 635,-163 635,-163 635,-160 638,-157 641,-157 641,-157 707,-157 707,-157 710,-157 713,-160 713,-163 713,-163 713,-169 713,-169 713,-172 710,-175 707,-175"/>
<text text-anchor="middle" x="674" y="-163.8" font-family="Helvetica,sans-Serif" font-size="9.00">auth.reducer.ts</text>
</a>
</g>
</g>
<!-- src/auth/auth.reducer.ts&#45;&gt;src/auth/auth.action.ts -->
<g id="edge18" class="edge"><title>src/auth/auth.reducer.ts&#45;&gt;src/auth/auth.action.ts</title>
<path fill="none" stroke="black" d="M713.058,-157.08C727.308,-153.74 743.624,-149.916 758.413,-146.45"/>
<polygon fill="black" stroke="black" points="759.425,-149.808 768.363,-144.118 757.828,-142.992 759.425,-149.808"/>
</g>
<!-- src/auth/auth.saga.ts -->
<g id="node13" class="node"><title>src/auth/auth.saga.ts</title>
<g id="a_node13"><a xlink:href="src/auth/auth.saga.ts" xlink:title="auth.saga.ts">
<path fill="#ffffcc" stroke="black" d="M702,-145C702,-145 646,-145 646,-145 643,-145 640,-142 640,-139 640,-139 640,-133 640,-133 640,-130 643,-127 646,-127 646,-127 702,-127 702,-127 705,-127 708,-130 708,-133 708,-133 708,-139 708,-139 708,-142 705,-145 702,-145"/>
<text text-anchor="middle" x="674" y="-133.8" font-family="Helvetica,sans-Serif" font-size="9.00">auth.saga.ts</text>
</a>
</g>
</g>
<!-- src/auth/auth.saga.ts&#45;&gt;src/auth/auth.action.ts -->
<g id="edge19" class="edge"><title>src/auth/auth.saga.ts&#45;&gt;src/auth/auth.action.ts</title>
<path fill="none" stroke="black" d="M708.296,-136C723.366,-136 741.411,-136 757.689,-136"/>
<polygon fill="black" stroke="black" points="758.082,-139.5 768.082,-136 758.082,-132.5 758.082,-139.5"/>
</g>
<!-- src/auth/auth.saga.ts&#45;&gt;src/auth/auth.domain.ts -->
<g id="edge20" class="edge"><title>src/auth/auth.saga.ts&#45;&gt;src/auth/auth.domain.ts</title>
<path fill="none" stroke="black" d="M708.278,-143.504C717.612,-145.757 727.739,-148.341 737,-151 747.1,-153.9 757.958,-157.369 767.892,-160.686"/>
<polygon fill="black" stroke="black" points="766.861,-164.033 777.456,-163.926 769.107,-157.403 766.861,-164.033"/>
</g>
<!-- src/auth/index.ts&#45;&gt;src/auth/auth.action.ts -->
<g id="edge21" class="edge"><title>src/auth/index.ts&#45;&gt;src/auth/auth.action.ts</title>
<path fill="none" stroke="black" d="M554.759,-157.697C568.551,-146.448 593.715,-128.136 619,-121 666.79,-107.512 724.129,-115.844 761.955,-124.526"/>
<polygon fill="black" stroke="black" points="761.54,-128.026 772.082,-126.965 763.18,-121.22 761.54,-128.026"/>
</g>
<!-- src/auth/index.ts&#45;&gt;src/auth/auth.domain.ts -->
<g id="edge22" class="edge"><title>src/auth/index.ts&#45;&gt;src/auth/auth.domain.ts</title>
<path fill="none" stroke="black" d="M570.212,-173.121C584.538,-176.155 602.645,-179.487 619,-181 671.221,-185.832 684.651,-184.161 737,-181 742.617,-180.661 748.487,-180.161 754.312,-179.573"/>
<polygon fill="black" stroke="black" points="755.122,-183.006 764.681,-178.437 754.36,-176.047 755.122,-183.006"/>
</g>
<!-- src/auth/index.ts&#45;&gt;src/auth/auth.reducer.ts -->
<g id="edge23" class="edge"><title>src/auth/index.ts&#45;&gt;src/auth/auth.reducer.ts</title>
<path fill="none" stroke="black" d="M570.105,-166.798C585.759,-166.676 606.156,-166.518 624.658,-166.375"/>
<polygon fill="black" stroke="black" points="624.727,-169.874 634.7,-166.297 624.673,-162.875 624.727,-169.874"/>
</g>
<!-- src/auth/index.ts&#45;&gt;src/auth/auth.saga.ts -->
<g id="edge24" class="edge"><title>src/auth/index.ts&#45;&gt;src/auth/auth.saga.ts</title>
<path fill="none" stroke="black" d="M570.105,-160.727C587.236,-156.61 610.048,-151.128 629.839,-146.372"/>
<polygon fill="black" stroke="black" points="630.664,-149.773 639.57,-144.034 629.029,-142.967 630.664,-149.773"/>
</g>
<!-- src/home/Home.spec.tsx -->
<g id="node16" class="node"><title>src/home/Home.spec.tsx</title>
<g id="a_node16"><a xlink:href="src/home/Home.spec.tsx" xlink:title="Home.spec.tsx">
<path fill="#ffffcc" stroke="black" d="M448.5,-307C448.5,-307 382.5,-307 382.5,-307 379.5,-307 376.5,-304 376.5,-301 376.5,-301 376.5,-295 376.5,-295 376.5,-292 379.5,-289 382.5,-289 382.5,-289 448.5,-289 448.5,-289 451.5,-289 454.5,-292 454.5,-295 454.5,-295 454.5,-301 454.5,-301 454.5,-304 451.5,-307 448.5,-307"/>
<text text-anchor="middle" x="415.5" y="-295.8" font-family="Helvetica,sans-Serif" font-size="9.00">Home.spec.tsx</text>
</a>
</g>
</g>
<!-- src/home/Home.tsx -->
<g id="node17" class="node"><title>src/home/Home.tsx</title>
<g id="a_node17"><a xlink:href="src/home/Home.tsx" xlink:title="Home.tsx">
<path fill="#ffffcc" stroke="black" d="M565,-307C565,-307 521,-307 521,-307 518,-307 515,-304 515,-301 515,-301 515,-295 515,-295 515,-292 518,-289 521,-289 521,-289 565,-289 565,-289 568,-289 571,-292 571,-295 571,-295 571,-301 571,-301 571,-304 568,-307 565,-307"/>
<text text-anchor="middle" x="543" y="-295.8" font-family="Helvetica,sans-Serif" font-size="9.00">Home.tsx</text>
</a>
</g>
</g>
<!-- src/home/Home.spec.tsx&#45;&gt;src/home/Home.tsx -->
<g id="edge25" class="edge"><title>src/home/Home.spec.tsx&#45;&gt;src/home/Home.tsx</title>
<path fill="none" stroke="black" d="M454.836,-298C470.532,-298 488.643,-298 504.276,-298"/>
<polygon fill="black" stroke="black" points="504.643,-301.5 514.643,-298 504.643,-294.5 504.643,-301.5"/>
</g>
<!-- src/home/home.action.ts -->
<g id="node18" class="node"><title>src/home/home.action.ts</title>
<g id="a_node18"><a xlink:href="src/home/home.action.ts" xlink:title="home.action.ts">
<path fill="#ffffcc" stroke="black" d="M706.5,-271C706.5,-271 641.5,-271 641.5,-271 638.5,-271 635.5,-268 635.5,-265 635.5,-265 635.5,-259 635.5,-259 635.5,-256 638.5,-253 641.5,-253 641.5,-253 706.5,-253 706.5,-253 709.5,-253 712.5,-256 712.5,-259 712.5,-259 712.5,-265 712.5,-265 712.5,-268 709.5,-271 706.5,-271"/>
<text text-anchor="middle" x="674" y="-259.8" font-family="Helvetica,sans-Serif" font-size="9.00">home.action.ts</text>
</a>
</g>
</g>
<!-- src/home/Home.tsx&#45;&gt;src/home/home.action.ts -->
<g id="edge26" class="edge"><title>src/home/Home.tsx&#45;&gt;src/home/home.action.ts</title>
<path fill="none" stroke="black" d="M571.043,-290.453C588.36,-285.62 611.191,-279.249 630.857,-273.761"/>
<polygon fill="black" stroke="black" points="631.82,-277.126 640.512,-271.067 629.939,-270.383 631.82,-277.126"/>
</g>
<!-- src/home/home.worker&#45;factory.ts -->
<g id="node20" class="node"><title>src/home/home.worker&#45;factory.ts</title>
<g id="a_node20"><a xlink:href="src/home/home.worker-factory.ts" xlink:title="home.worker&#45;factory.ts">
<path fill="#ffffcc" stroke="black" d="M723,-304C723,-304 625,-304 625,-304 622,-304 619,-301 619,-298 619,-298 619,-292 619,-292 619,-289 622,-286 625,-286 625,-286 723,-286 723,-286 726,-286 729,-289 729,-292 729,-292 729,-298 729,-298 729,-301 726,-304 723,-304"/>
<text text-anchor="middle" x="674" y="-292.8" font-family="Helvetica,sans-Serif" font-size="9.00">home.worker&#45;factory.ts</text>
</a>
</g>
</g>
<!-- src/home/Home.tsx&#45;&gt;src/home/home.worker&#45;factory.ts -->
<g id="edge27" class="edge"><title>src/home/Home.tsx&#45;&gt;src/home/home.worker&#45;factory.ts</title>
<path fill="none" stroke="black" d="M571.043,-297.371C582.111,-297.114 595.431,-296.804 608.738,-296.494"/>
<polygon fill="black" stroke="black" points="608.958,-299.99 618.874,-296.259 608.795,-292.992 608.958,-299.99"/>
</g>
<!-- src/home/home.saga.ts -->
<g id="node19" class="node"><title>src/home/home.saga.ts</title>
<g id="a_node19"><a xlink:href="src/home/home.saga.ts" xlink:title="home.saga.ts">
<path fill="#ffffcc" stroke="black" d="M574,-249C574,-249 512,-249 512,-249 509,-249 506,-246 506,-243 506,-243 506,-237 506,-237 506,-234 509,-231 512,-231 512,-231 574,-231 574,-231 577,-231 580,-234 580,-237 580,-237 580,-243 580,-243 580,-246 577,-249 574,-249"/>
<text text-anchor="middle" x="543" y="-237.8" font-family="Helvetica,sans-Serif" font-size="9.00">home.saga.ts</text>
</a>
</g>
</g>
<!-- src/home/home.saga.ts&#45;&gt;src/home/home.action.ts -->
<g id="edge28" class="edge"><title>src/home/home.saga.ts&#45;&gt;src/home/home.action.ts</title>
<path fill="none" stroke="black" d="M580.277,-246.187C594.203,-248.562 610.316,-251.31 625.164,-253.842"/>
<polygon fill="black" stroke="black" points="624.752,-257.322 635.199,-255.553 625.929,-250.422 624.752,-257.322"/>
</g>
<!-- src/home/home.worker.js -->
<g id="node21" class="node"><title>src/home/home.worker.js</title>
<g id="a_node21"><a xlink:href="src/home/home.worker.js" xlink:title="home.worker.js">
<path fill="#ffffcc" stroke="black" d="M577,-337C577,-337 509,-337 509,-337 506,-337 503,-334 503,-331 503,-331 503,-325 503,-325 503,-322 506,-319 509,-319 509,-319 577,-319 577,-319 580,-319 583,-322 583,-325 583,-325 583,-331 583,-331 583,-334 580,-337 577,-337"/>
<text text-anchor="middle" x="543" y="-325.8" font-family="Helvetica,sans-Serif" font-size="9.00">home.worker.js</text>
</a>
</g>
</g>
<!-- src/home/home.worker.spec.ts -->
<g id="node22" class="node"><title>src/home/home.worker.spec.ts</title>
<g id="a_node22"><a xlink:href="src/home/home.worker.spec.ts" xlink:title="home.worker.spec.ts">
<path fill="#ffffcc" stroke="black" d="M461,-337C461,-337 370,-337 370,-337 367,-337 364,-334 364,-331 364,-331 364,-325 364,-325 364,-322 367,-319 370,-319 370,-319 461,-319 461,-319 464,-319 467,-322 467,-325 467,-325 467,-331 467,-331 467,-334 464,-337 461,-337"/>
<text text-anchor="middle" x="415.5" y="-325.8" font-family="Helvetica,sans-Serif" font-size="9.00">home.worker.spec.ts</text>
</a>
</g>
</g>
<!-- src/home/home.worker.spec.ts&#45;&gt;src/home/home.worker.js -->
<g id="edge29" class="edge"><title>src/home/home.worker.spec.ts&#45;&gt;src/home/home.worker.js</title>
<path fill="none" stroke="black" d="M467.184,-328C475.599,-328 484.316,-328 492.696,-328"/>
<polygon fill="black" stroke="black" points="492.709,-331.5 502.709,-328 492.709,-324.5 492.709,-331.5"/>
</g>
<!-- src/home/index.ts&#45;&gt;src/home/Home.tsx -->
<g id="edge30" class="edge"><title>src/home/index.ts&#45;&gt;src/home/Home.tsx</title>
<path fill="none" stroke="black" d="M442.504,-274.216C460.561,-278.533 484.887,-284.347 504.965,-289.147"/>
<polygon fill="black" stroke="black" points="504.188,-292.56 514.727,-291.481 505.815,-285.752 504.188,-292.56"/>
</g>
<!-- src/home/index.ts&#45;&gt;src/home/home.action.ts -->
<g id="edge31" class="edge"><title>src/home/index.ts&#45;&gt;src/home/home.action.ts</title>
<path fill="none" stroke="black" d="M442.506,-267.392C485.341,-266.39 571.358,-264.378 625.343,-263.115"/>
<polygon fill="black" stroke="black" points="625.446,-266.613 635.361,-262.88 625.282,-259.615 625.446,-266.613"/>
</g>
<!-- src/home/index.ts&#45;&gt;src/home/home.saga.ts -->
<g id="edge32" class="edge"><title>src/home/index.ts&#45;&gt;src/home/home.saga.ts</title>
<path fill="none" stroke="black" d="M442.504,-262.198C457.819,-258.781 477.644,-254.358 495.562,-250.361"/>
<polygon fill="black" stroke="black" points="496.563,-253.724 505.561,-248.13 495.038,-246.892 496.563,-253.724"/>
</g>
<!-- src/home/index.ts&#45;&gt;src/home/home.worker&#45;factory.ts -->
<g id="edge33" class="edge"><title>src/home/index.ts&#45;&gt;src/home/home.worker&#45;factory.ts</title>
<path fill="none" stroke="black" d="M442.777,-270.019C475.619,-272.622 533.532,-277.476 583,-283 591.332,-283.93 600.087,-284.992 608.729,-286.091"/>
<polygon fill="black" stroke="black" points="608.425,-289.58 618.791,-287.391 609.322,-282.638 608.425,-289.58"/>
</g>
<!-- src/index.ts -->
<g id="node24" class="node"><title>src/index.ts</title>
<g id="a_node24"><a xlink:href="src/index.ts" xlink:title="index.ts">
<path fill="#ffffcc" stroke="black" d="M79,-74C79,-74 37,-74 37,-74 34,-74 31,-71 31,-68 31,-68 31,-62 31,-62 31,-59 34,-56 37,-56 37,-56 79,-56 79,-56 82,-56 85,-59 85,-62 85,-62 85,-68 85,-68 85,-71 82,-74 79,-74"/>
<text text-anchor="middle" x="58" y="-62.8" font-family="Helvetica,sans-Serif" font-size="9.00">index.ts</text>
</a>
</g>
</g>
<!-- src/root/root.tsx -->
<g id="node36" class="node"><title>src/root/root.tsx</title>
<g id="a_node36"><a xlink:href="src/root/root.tsx" xlink:title="root.tsx">
<path fill="#ffffcc" stroke="black" d="M189,-74C189,-74 147,-74 147,-74 144,-74 141,-71 141,-68 141,-68 141,-62 141,-62 141,-59 144,-56 147,-56 147,-56 189,-56 189,-56 192,-56 195,-59 195,-62 195,-62 195,-68 195,-68 195,-71 192,-74 189,-74"/>
<text text-anchor="middle" x="168" y="-62.8" font-family="Helvetica,sans-Serif" font-size="9.00">root.tsx</text>
</a>
</g>
</g>
<!-- src/index.ts&#45;&gt;src/root/root.tsx -->
<g id="edge34" class="edge"><title>src/index.ts&#45;&gt;src/root/root.tsx</title>
<path fill="none" stroke="black" d="M85.1438,-65C98.7071,-65 115.499,-65 130.338,-65"/>
<polygon fill="black" stroke="black" points="130.723,-68.5001 140.723,-65 130.723,-61.5001 130.723,-68.5001"/>
</g>
<!-- src/menu/Menu.spec.tsx -->
<g id="node25" class="node"><title>src/menu/Menu.spec.tsx</title>
<g id="a_node25"><a xlink:href="src/menu/Menu.spec.tsx" xlink:title="Menu.spec.tsx">
<path fill="#ffffcc" stroke="black" d="M199.5,-248C199.5,-248 136.5,-248 136.5,-248 133.5,-248 130.5,-245 130.5,-242 130.5,-242 130.5,-236 130.5,-236 130.5,-233 133.5,-230 136.5,-230 136.5,-230 199.5,-230 199.5,-230 202.5,-230 205.5,-233 205.5,-236 205.5,-236 205.5,-242 205.5,-242 205.5,-245 202.5,-248 199.5,-248"/>
<text text-anchor="middle" x="168" y="-236.8" font-family="Helvetica,sans-Serif" font-size="9.00">Menu.spec.tsx</text>
</a>
</g>
</g>
<!-- src/menu/Menu.spec.tsx&#45;&gt;src/menu/Menu.tsx -->
<g id="edge36" class="edge"><title>src/menu/Menu.spec.tsx&#45;&gt;src/menu/Menu.tsx</title>
<path fill="none" stroke="black" d="M205.703,-239C219.455,-239 235.063,-239 248.772,-239"/>
<polygon fill="black" stroke="black" points="248.823,-242.5 258.823,-239 248.823,-235.5 248.823,-242.5"/>
</g>
<!-- src/menu/Menu.spec.tsx&#45;&gt;src/root/index.ts -->
<g id="edge35" class="edge"><title>src/menu/Menu.spec.tsx&#45;&gt;src/root/index.ts</title>
<path fill="none" stroke="black" d="M130.36,-234.878C119.026,-231.618 107.871,-225.915 101.333,-216 83.1061,-188.358 118.031,-157.537 143.852,-139.792"/>
<polygon fill="black" stroke="black" points="146.082,-142.514 152.504,-134.087 142.229,-136.67 146.082,-142.514"/>
<path fill="none" stroke="black" d="M130.216,-234.23C122.432,-231.373 115.227,-226.916 110.667,-220 92.5328,-192.499 124.206,-159.351 147.238,-140.369"/>
<polygon fill="black" stroke="black" points="149.551,-143.002 155.224,-134.054 145.209,-137.512 149.551,-143.002"/>
</g>
<!-- src/menu/Menu.tsx&#45;&gt;src/auth/index.ts -->
<g id="edge37" class="edge"><title>src/menu/Menu.tsx&#45;&gt;src/auth/index.ts</title>
<path fill="none" stroke="black" d="M304.471,-229.944C318.187,-223.134 337.922,-213.983 356,-208 406.933,-191.144 468.016,-179.185 505.926,-172.687"/>
<polygon fill="black" stroke="black" points="506.694,-176.107 515.976,-170.999 505.535,-169.204 506.694,-176.107"/>
</g>
<!-- src/menu/index.ts -->
<g id="node27" class="node"><title>src/menu/index.ts</title>
<g id="a_node27"><a xlink:href="src/menu/index.ts" xlink:title="index.ts">
<path fill="#ffffcc" stroke="black" d="M189,-278C189,-278 147,-278 147,-278 144,-278 141,-275 141,-272 141,-272 141,-266 141,-266 141,-263 144,-260 147,-260 147,-260 189,-260 189,-260 192,-260 195,-263 195,-266 195,-266 195,-272 195,-272 195,-275 192,-278 189,-278"/>
<text text-anchor="middle" x="168" y="-266.8" font-family="Helvetica,sans-Serif" font-size="9.00">index.ts</text>
</a>
</g>
</g>
<!-- src/menu/index.ts&#45;&gt;src/menu/Menu.tsx -->
<g id="edge38" class="edge"><title>src/menu/index.ts&#45;&gt;src/menu/Menu.tsx</title>
<path fill="none" stroke="black" d="M195.033,-262.267C210.891,-258.166 231.386,-252.866 248.808,-248.36"/>
<polygon fill="black" stroke="black" points="249.848,-251.706 258.653,-245.814 248.095,-244.929 249.848,-251.706"/>
</g>
<!-- src/menu/menu.domain.ts -->
<g id="node28" class="node"><title>src/menu/menu.domain.ts</title>
<g id="a_node28"><a xlink:href="src/menu/menu.domain.ts" xlink:title="menu.domain.ts">
<path fill="#ffffcc" stroke="black" d="M322,-278C322,-278 250,-278 250,-278 247,-278 244,-275 244,-272 244,-272 244,-266 244,-266 244,-263 247,-260 250,-260 250,-260 322,-260 322,-260 325,-260 328,-263 328,-266 328,-266 328,-272 328,-272 328,-275 325,-278 322,-278"/>
<text text-anchor="middle" x="286" y="-266.8" font-family="Helvetica,sans-Serif" font-size="9.00">menu.domain.ts</text>
</a>
</g>
</g>
<!-- src/menu/index.ts&#45;&gt;src/menu/menu.domain.ts -->
<g id="edge39" class="edge"><title>src/menu/index.ts&#45;&gt;src/menu/menu.domain.ts</title>
<path fill="none" stroke="black" d="M195.033,-269C206.424,-269 220.207,-269 233.526,-269"/>
<polygon fill="black" stroke="black" points="233.573,-272.5 243.573,-269 233.573,-265.5 233.573,-272.5"/>
</g>
<!-- src/menu/menu.fixture.tsx -->
<g id="node29" class="node"><title>src/menu/menu.fixture.tsx</title>
<g id="a_node29"><a xlink:href="src/menu/menu.fixture.tsx" xlink:title="menu.fixture.tsx">
<path fill="#ffffcc" stroke="black" d="M202,-218C202,-218 134,-218 134,-218 131,-218 128,-215 128,-212 128,-212 128,-206 128,-206 128,-203 131,-200 134,-200 134,-200 202,-200 202,-200 205,-200 208,-203 208,-206 208,-206 208,-212 208,-212 208,-215 205,-218 202,-218"/>
<text text-anchor="middle" x="168" y="-206.8" font-family="Helvetica,sans-Serif" font-size="9.00">menu.fixture.tsx</text>
</a>
</g>
</g>
<!-- src/menu/menu.fixture.tsx&#45;&gt;src/menu/Menu.tsx -->
<g id="edge40" class="edge"><title>src/menu/menu.fixture.tsx&#45;&gt;src/menu/Menu.tsx</title>
<path fill="none" stroke="black" d="M203.804,-218.001C217.981,-221.667 234.372,-225.907 248.699,-229.612"/>
<polygon fill="black" stroke="black" points="248.147,-233.084 258.705,-232.2 249.9,-226.307 248.147,-233.084"/>
</g>
<!-- src/root/root.domain.ts -->
<g id="node31" class="node"><title>src/root/root.domain.ts</title>
<g id="a_node31"><a xlink:href="src/root/root.domain.ts" xlink:title="root.domain.ts">
<path fill="#ffffcc" stroke="black" d="M318,-120C318,-120 254,-120 254,-120 251,-120 248,-117 248,-114 248,-114 248,-108 248,-108 248,-105 251,-102 254,-102 254,-102 318,-102 318,-102 321,-102 324,-105 324,-108 324,-108 324,-114 324,-114 324,-117 321,-120 318,-120"/>
<text text-anchor="middle" x="286" y="-108.8" font-family="Helvetica,sans-Serif" font-size="9.00">root.domain.ts</text>
</a>
</g>
</g>
<!-- src/root/index.ts&#45;&gt;src/root/root.domain.ts -->
<g id="edge41" class="edge"><title>src/root/index.ts&#45;&gt;src/root/root.domain.ts</title>
<path fill="none" stroke="black" d="M195.033,-121.858C207.503,-120.353 222.841,-118.502 237.297,-116.757"/>
<polygon fill="black" stroke="black" points="238.105,-120.185 247.613,-115.512 237.266,-113.236 238.105,-120.185"/>
</g>
<!-- src/root/root.reducer.ts -->
<g id="node32" class="node"><title>src/root/root.reducer.ts</title>
<g id="a_node32"><a xlink:href="src/root/root.reducer.ts" xlink:title="root.reducer.ts">
<path fill="#ffffcc" stroke="black" d="M447.5,-134C447.5,-134 383.5,-134 383.5,-134 380.5,-134 377.5,-131 377.5,-128 377.5,-128 377.5,-122 377.5,-122 377.5,-119 380.5,-116 383.5,-116 383.5,-116 447.5,-116 447.5,-116 450.5,-116 453.5,-119 453.5,-122 453.5,-122 453.5,-128 453.5,-128 453.5,-131 450.5,-134 447.5,-134"/>
<text text-anchor="middle" x="415.5" y="-122.8" font-family="Helvetica,sans-Serif" font-size="9.00">root.reducer.ts</text>
</a>
</g>
</g>
<!-- src/root/index.ts&#45;&gt;src/root/root.reducer.ts -->
<g id="edge42" class="edge"><title>src/root/index.ts&#45;&gt;src/root/root.reducer.ts</title>
<path fill="none" stroke="black" d="M195.031,-125.432C209.46,-125.651 227.723,-125.891 244,-126 284.888,-126.273 295.112,-126.26 336,-126 346.12,-125.936 356.973,-125.824 367.283,-125.699"/>
<polygon fill="black" stroke="black" points="367.41,-129.198 377.364,-125.57 367.32,-122.198 367.41,-129.198"/>
</g>
<!-- src/root/root.saga.ts -->
<g id="node33" class="node"><title>src/root/root.saga.ts</title>
<g id="a_node33"><a xlink:href="src/root/root.saga.ts" xlink:title="root.saga.ts">
<path fill="#ffffcc" stroke="black" d="M312.5,-60C312.5,-60 259.5,-60 259.5,-60 256.5,-60 253.5,-57 253.5,-54 253.5,-54 253.5,-48 253.5,-48 253.5,-45 256.5,-42 259.5,-42 259.5,-42 312.5,-42 312.5,-42 315.5,-42 318.5,-45 318.5,-48 318.5,-48 318.5,-54 318.5,-54 318.5,-57 315.5,-60 312.5,-60"/>
<text text-anchor="middle" x="286" y="-48.8" font-family="Helvetica,sans-Serif" font-size="9.00">root.saga.ts</text>
</a>
</g>
</g>
<!-- src/root/index.ts&#45;&gt;src/root/root.saga.ts -->
<g id="edge43" class="edge"><title>src/root/index.ts&#45;&gt;src/root/root.saga.ts</title>
<path fill="none" stroke="black" d="M195.149,-117.113C199.649,-115.162 204.12,-112.806 208,-110 228.474,-95.1934 223.405,-80.6377 244,-66 244.502,-65.6432 245.013,-65.294 245.533,-64.9522"/>
<polygon fill="black" stroke="black" points="247.413,-67.9135 254.508,-60.045 244.055,-61.7716 247.413,-67.9135"/>
</g>
<!-- src/root/root.store.ts -->
<g id="node35" class="node"><title>src/root/root.store.ts</title>
<g id="a_node35"><a xlink:href="src/root/root.store.ts" xlink:title="root.store.ts">
<path fill="#ffffcc" stroke="black" d="M312.5,-90C312.5,-90 259.5,-90 259.5,-90 256.5,-90 253.5,-87 253.5,-84 253.5,-84 253.5,-78 253.5,-78 253.5,-75 256.5,-72 259.5,-72 259.5,-72 312.5,-72 312.5,-72 315.5,-72 318.5,-75 318.5,-78 318.5,-78 318.5,-84 318.5,-84 318.5,-87 315.5,-90 312.5,-90"/>
<text text-anchor="middle" x="286" y="-78.8" font-family="Helvetica,sans-Serif" font-size="9.00">root.store.ts</text>
</a>
</g>
</g>
<!-- src/root/index.ts&#45;&gt;src/root/root.store.ts -->
<g id="edge44" class="edge"><title>src/root/index.ts&#45;&gt;src/root/root.store.ts</title>
<path fill="none" stroke="black" d="M192.516,-115.972C197.622,-114.007 202.993,-111.936 208,-110 224.012,-103.808 227.938,-102.061 244,-96 246.074,-95.2173 248.21,-94.4177 250.365,-93.6152"/>
<polygon fill="black" stroke="black" points="251.651,-96.8714 259.818,-90.122 249.225,-90.3053 251.651,-96.8714"/>
</g>
<!-- src/root/root.reducer.ts&#45;&gt;src/app/index.ts -->
<g id="edge45" class="edge"><title>src/root/root.reducer.ts&#45;&gt;src/app/index.ts</title>
<path fill="none" stroke="black" d="M377.441,-127.916C306.364,-134.3 154.83,-151.996 120,-189 64.2081,-248.274 136.526,-301.856 92,-370 90.7022,-371.986 89.144,-373.821 87.4207,-375.51"/>
<polygon fill="black" stroke="black" points="84.8438,-373.08 79.1035,-381.985 89.1441,-378.604 84.8438,-373.08"/>
</g>
<!-- src/root/root.reducer.ts&#45;&gt;src/auth/index.ts -->
<g id="edge46" class="edge"><title>src/root/root.reducer.ts&#45;&gt;src/auth/index.ts</title>
<path fill="none" stroke="black" d="M443.423,-134.01C461.784,-140.155 486.299,-148.359 506.288,-155.049"/>
<polygon fill="black" stroke="black" points="505.387,-158.438 515.981,-158.292 507.609,-151.8 505.387,-158.438"/>
</g>
<!-- src/root/root.saga.ts&#45;&gt;src/auth/auth.saga.ts -->
<g id="edge47" class="edge"><title>src/root/root.saga.ts&#45;&gt;src/auth/auth.saga.ts</title>
<path fill="none" stroke="black" d="M318.551,-51.3063C354.753,-52.1918 415.732,-55.3214 467,-66 531.259,-79.3845 603.199,-106.852 642.783,-123.117"/>
<polygon fill="black" stroke="black" points="641.548,-126.393 652.126,-126.995 644.232,-119.928 641.548,-126.393"/>
</g>
<!-- src/root/root.saga.ts&#45;&gt;src/home/home.saga.ts -->
<g id="edge48" class="edge"><title>src/root/root.saga.ts&#45;&gt;src/home/home.saga.ts</title>
<path fill="none" stroke="black" d="M318.505,-57.7142C364.253,-68.0466 445.921,-88.873 467,-110 502.736,-145.818 470.814,-178.961 503,-218 505.244,-220.722 507.918,-223.17 510.798,-225.356"/>
<polygon fill="black" stroke="black" points="508.98,-228.348 519.279,-230.831 512.777,-222.467 508.98,-228.348"/>
</g>
<!-- src/root/root.spec.tsx -->
<g id="node34" class="node"><title>src/root/root.spec.tsx</title>
<g id="a_node34"><a xlink:href="src/root/root.spec.tsx" xlink:title="root.spec.tsx">
<path fill="#ffffcc" stroke="black" d="M196,-104C196,-104 140,-104 140,-104 137,-104 134,-101 134,-98 134,-98 134,-92 134,-92 134,-89 137,-86 140,-86 140,-86 196,-86 196,-86 199,-86 202,-89 202,-92 202,-92 202,-98 202,-98 202,-101 199,-104 196,-104"/>
<text text-anchor="middle" x="168" y="-92.8" font-family="Helvetica,sans-Serif" font-size="9.00">root.spec.tsx</text>
</a>
</g>
</g>
<!-- src/root/root.store.ts&#45;&gt;src/root/root.reducer.ts -->
<g id="edge49" class="edge"><title>src/root/root.store.ts&#45;&gt;src/root/root.reducer.ts</title>
<path fill="none" stroke="black" d="M317.407,-90.0143C323.581,-91.927 330.015,-93.9802 336,-96 350.954,-101.047 367.353,-107.032 381.276,-112.251"/>
<polygon fill="black" stroke="black" points="380.33,-115.635 390.922,-115.892 382.802,-109.086 380.33,-115.635"/>
</g>
<!-- src/root/root.tsx&#45;&gt;src/app/App.tsx -->
<g id="edge50" class="edge"><title>src/root/root.tsx&#45;&gt;src/app/App.tsx</title>
<path fill="none" stroke="black" d="M140.775,-66.783C127.835,-69.2007 113.57,-74.52 106,-86 92.8494,-105.943 96.1038,-279.257 106,-301 113.567,-317.625 129.061,-331.123 142.667,-340.465"/>
<polygon fill="black" stroke="black" points="140.933,-343.512 151.232,-345.996 144.73,-337.631 140.933,-343.512"/>
</g>
<!-- src/root/root.tsx&#45;&gt;src/root/root.saga.ts -->
<g id="edge51" class="edge"><title>src/root/root.tsx&#45;&gt;src/root/root.saga.ts</title>
<path fill="none" stroke="black" d="M195.033,-61.8581C209.17,-60.1519 226.992,-58.001 243.037,-56.0645"/>
<polygon fill="black" stroke="black" points="243.759,-59.5028 253.268,-54.8298 242.92,-52.5533 243.759,-59.5028"/>
</g>
<!-- src/root/root.tsx&#45;&gt;src/root/root.store.ts -->
<g id="edge52" class="edge"><title>src/root/root.tsx&#45;&gt;src/root/root.store.ts</title>
<path fill="none" stroke="black" d="M195.033,-68.5907C209.17,-70.5407 226.992,-72.9989 243.037,-75.212"/>
<polygon fill="black" stroke="black" points="242.883,-78.7239 253.268,-76.6231 243.84,-71.7895 242.883,-78.7239"/>
</g>
</g>
</svg>
