<?xml version="1.0" encoding="UTF-8" standalone="no"?>
<!DOCTYPE svg PUBLIC "-//W3C//DTD SVG 1.1//EN"
 "http://www.w3.org/Graphics/SVG/1.1/DTD/svg11.dtd">
<!-- Generated by graphviz version 2.38.0 (20140413.2041)
 -->
<!-- Title: dependency&#45;cruiser output Pages: 1 -->
<svg width="749pt" height="498pt"
 viewBox="0.00 0.00 749.00 498.00" xmlns="http://www.w3.org/2000/svg" xmlns:xlink="http://www.w3.org/1999/xlink">
<g id="graph0" class="graph" transform="scale(1 1) rotate(0) translate(4 494)">
<title>dependency&#45;cruiser output</title>
<polygon fill="white" stroke="none" points="-4,4 -4,-494 745,-494 745,4 -4,4"/>
<g id="clust1" class="cluster"><title>cluster_/src</title>
<path fill="none" stroke="black" stroke-width="2" d="M20,-26C20,-26 721,-26 721,-26 727,-26 733,-32 733,-38 733,-38 733,-470 733,-470 733,-476 727,-482 721,-482 721,-482 20,-482 20,-482 14,-482 8,-476 8,-470 8,-470 8,-38 8,-38 8,-32 14,-26 20,-26"/>
<text text-anchor="middle" x="370.5" y="-470.8" font-family="Helvetica,sans-Serif" font-weight="bold" font-size="9.00">src</text>
</g>
<g id="clust2" class="cluster"><title>cluster_/src/admin</title>
<path fill="none" stroke="black" stroke-width="2" d="M507,-233C507,-233 555,-233 555,-233 561,-233 567,-239 567,-245 567,-245 567,-273 567,-273 567,-279 561,-285 555,-285 555,-285 507,-285 507,-285 501,-285 495,-279 495,-273 495,-273 495,-245 495,-245 495,-239 501,-233 507,-233"/>
<text text-anchor="middle" x="531" y="-273.8" font-family="Helvetica,sans-Serif" font-weight="bold" font-size="9.00">admin</text>
</g>
<g id="clust4" class="cluster"><title>cluster_/src/auth</title>
<path fill="none" stroke="black" stroke-width="2" d="M368.5,-134C368.5,-134 566,-134 566,-134 572,-134 578,-140 578,-146 578,-146 578,-204 578,-204 578,-210 572,-216 566,-216 566,-216 368.5,-216 368.5,-216 362.5,-216 356.5,-210 356.5,-204 356.5,-204 356.5,-146 356.5,-146 356.5,-140 362.5,-134 368.5,-134"/>
<text text-anchor="middle" x="467.25" y="-204.8" font-family="Helvetica,sans-Serif" font-weight="bold" font-size="9.00">auth</text>
</g>
<g id="clust3" class="cluster"><title>cluster_/src/app</title>
<path fill="none" stroke="black" stroke-width="2" d="M132,-224C132,-224 426.5,-224 426.5,-224 432.5,-224 438.5,-230 438.5,-236 438.5,-236 438.5,-324 438.5,-324 438.5,-330 432.5,-336 426.5,-336 426.5,-336 132,-336 132,-336 126,-336 120,-330 120,-324 120,-324 120,-236 120,-236 120,-230 126,-224 132,-224"/>
<text text-anchor="middle" x="279.25" y="-324.8" font-family="Helvetica,sans-Serif" font-weight="bold" font-size="9.00">app</text>
</g>
<g id="clust5" class="cluster"><title>cluster_/src/home</title>
<path fill="none" stroke="black" stroke-width="2" d="M356,-344C356,-344 713,-344 713,-344 719,-344 725,-350 725,-356 725,-356 725,-444 725,-444 725,-450 719,-456 713,-456 713,-456 356,-456 356,-456 350,-456 344,-450 344,-444 344,-444 344,-356 344,-356 344,-350 350,-344 356,-344"/>
<text text-anchor="middle" x="534.5" y="-444.8" font-family="Helvetica,sans-Serif" font-weight="bold" font-size="9.00">home</text>
</g>
<g id="clust6" class="cluster"><title>cluster_/src/menu</title>
<path fill="none" stroke="black" stroke-width="2" d="M365.5,-44C365.5,-44 441.5,-44 441.5,-44 447.5,-44 453.5,-50 453.5,-56 453.5,-56 453.5,-114 453.5,-114 453.5,-120 447.5,-126 441.5,-126 441.5,-126 365.5,-126 365.5,-126 359.5,-126 353.5,-120 353.5,-114 353.5,-114 353.5,-56 353.5,-56 353.5,-50 359.5,-44 365.5,-44"/>
<text text-anchor="middle" x="403.5" y="-114.8" font-family="Helvetica,sans-Serif" font-weight="bold" font-size="9.00">menu</text>
</g>
<!-- ./app.styles -->
<g id="node1" class="node"><title>./app.styles</title>
<path fill="#ffffcc" stroke="red" d="M427,-18C427,-18 380,-18 380,-18 377,-18 374,-15 374,-12 374,-12 374,-6 374,-6 374,-3 377,-0 380,-0 380,-0 427,-0 427,-0 430,-0 433,-3 433,-6 433,-6 433,-12 433,-12 433,-15 430,-18 427,-18"/>
<text text-anchor="middle" x="403.5" y="-6.8" font-family="Helvetica,sans-Serif" font-size="9.00" fill="red">app.styles</text>
</g>
<!-- src/admin/Admin.tsx -->
<g id="node2" class="node"><title>src/admin/Admin.tsx</title>
<g id="a_node2"><a xlink:href="src/admin/Admin.tsx" xlink:title="Admin.tsx">
<path fill="#ffffcc" stroke="black" d="M553,-259C553,-259 509,-259 509,-259 506,-259 503,-256 503,-253 503,-253 503,-247 503,-247 503,-244 506,-241 509,-241 509,-241 553,-241 553,-241 556,-241 559,-244 559,-247 559,-247 559,-253 559,-253 559,-256 556,-259 553,-259"/>
<text text-anchor="middle" x="531" y="-247.8" font-family="Helvetica,sans-Serif" font-size="9.00">Admin.tsx</text>
</a>
</g>
</g>
<!-- src/app/App.spec.tsx -->
<g id="node3" class="node"><title>src/app/App.spec.tsx</title>
<g id="a_node3"><a xlink:href="src/app/App.spec.tsx" xlink:title="App.spec.tsx">
<path fill="#ffffcc" stroke="black" d="M194,-310C194,-310 138,-310 138,-310 135,-310 132,-307 132,-304 132,-304 132,-298 132,-298 132,-295 135,-292 138,-292 138,-292 194,-292 194,-292 197,-292 200,-295 200,-298 200,-298 200,-304 200,-304 200,-307 197,-310 194,-310"/>
<text text-anchor="middle" x="166" y="-298.8" font-family="Helvetica,sans-Serif" font-size="9.00">App.spec.tsx</text>
</a>
</g>
</g>
<!-- src/app/App.tsx -->
<g id="node4" class="node"><title>src/app/App.tsx</title>
<g id="a_node4"><a xlink:href="src/app/App.tsx" xlink:title="App.tsx">
<path fill="#ffffcc" stroke="black" d="M299,-259C299,-259 257,-259 257,-259 254,-259 251,-256 251,-253 251,-253 251,-247 251,-247 251,-244 254,-241 257,-241 257,-241 299,-241 299,-241 302,-241 305,-244 305,-247 305,-247 305,-253 305,-253 305,-256 302,-259 299,-259"/>
<text text-anchor="middle" x="278" y="-247.8" font-family="Helvetica,sans-Serif" font-size="9.00">App.tsx</text>
</a>
</g>
</g>
<!-- src/app/App.spec.tsx&#45;&gt;src/app/App.tsx -->
<g id="edge3" class="edge"><title>src/app/App.spec.tsx&#45;&gt;src/app/App.tsx</title>
<path fill="none" stroke="black" d="M190.203,-291.896C194.801,-290.007 199.573,-287.986 204,-286 219.609,-278.998 236.78,-270.568 250.546,-263.626"/>
<polygon fill="black" stroke="black" points="252.139,-266.743 259.47,-259.094 248.969,-260.501 252.139,-266.743"/>
</g>
<!-- src/app/routes.ts -->
<g id="node7" class="node"><title>src/app/routes.ts</title>
<g id="a_node7"><a xlink:href="src/app/routes.ts" xlink:title="routes.ts">
<path fill="#ffffcc" stroke="black" d="M424.5,-259C424.5,-259 382.5,-259 382.5,-259 379.5,-259 376.5,-256 376.5,-253 376.5,-253 376.5,-247 376.5,-247 376.5,-244 379.5,-241 382.5,-241 382.5,-241 424.5,-241 424.5,-241 427.5,-241 430.5,-244 430.5,-247 430.5,-247 430.5,-253 430.5,-253 430.5,-256 427.5,-259 424.5,-259"/>
<text text-anchor="middle" x="403.5" y="-247.8" font-family="Helvetica,sans-Serif" font-size="9.00">routes.ts</text>
</a>
</g>
</g>
<!-- src/app/App.spec.tsx&#45;&gt;src/app/routes.ts -->
<g id="edge4" class="edge"><title>src/app/App.spec.tsx&#45;&gt;src/app/routes.ts</title>
<path fill="none" stroke="black" d="M200.242,-293.801C244.116,-284.3 321.075,-267.633 366.355,-257.827"/>
<polygon fill="black" stroke="black" points="367.297,-261.205 376.329,-255.668 365.815,-254.363 367.297,-261.205"/>
</g>
<!-- src/auth/auth.domain.ts -->
<g id="node9" class="node"><title>src/auth/auth.domain.ts</title>
<g id="a_node9"><a xlink:href="src/auth/auth.domain.ts" xlink:title="auth.domain.ts">
<path fill="#ffffcc" stroke="black" d="M564,-190C564,-190 498,-190 498,-190 495,-190 492,-187 492,-184 492,-184 492,-178 492,-178 492,-175 495,-172 498,-172 498,-172 564,-172 564,-172 567,-172 570,-175 570,-178 570,-178 570,-184 570,-184 570,-187 567,-190 564,-190"/>
<text text-anchor="middle" x="531" y="-178.8" font-family="Helvetica,sans-Serif" font-size="9.00">auth.domain.ts</text>
</a>
</g>
</g>
<!-- src/app/App.spec.tsx&#45;&gt;src/auth/auth.domain.ts -->
<g id="edge1" class="edge"><title>src/app/App.spec.tsx&#45;&gt;src/auth/auth.domain.ts</title>
<path fill="none" stroke="black" d="M194.661,-291.873C197.973,-290.189 201.176,-288.24 204,-286 225.736,-268.757 221.468,-255.648 240,-235 270.078,-201.489 293.134,-206.792 316,-168 345.351,-118.207 298.944,-77.2046 344,-41 363.228,-25.5493 435.292,-26.1666 455,-41 498.756,-73.933 456.861,-118.399 491.582,-164.138"/>
<polygon fill="black" stroke="black" points="488.963,-166.46 498.121,-171.787 494.283,-161.912 488.963,-166.46"/>
</g>
<!-- src/root.reducer.ts -->
<g id="node22" class="node"><title>src/root.reducer.ts</title>
<g id="a_node22"><a xlink:href="src/root.reducer.ts" xlink:title="root.reducer.ts">
<path fill="#ffffcc" stroke="black" d="M310,-160C310,-160 246,-160 246,-160 243,-160 240,-157 240,-154 240,-154 240,-148 240,-148 240,-145 243,-142 246,-142 246,-142 310,-142 310,-142 313,-142 316,-145 316,-148 316,-148 316,-154 316,-154 316,-157 313,-160 310,-160"/>
<text text-anchor="middle" x="278" y="-148.8" font-family="Helvetica,sans-Serif" font-size="9.00">root.reducer.ts</text>
</a>
</g>
</g>
<!-- src/app/App.spec.tsx&#45;&gt;src/root.reducer.ts -->
<g id="edge2" class="edge"><title>src/app/App.spec.tsx&#45;&gt;src/root.reducer.ts</title>
<path fill="none" stroke="black" d="M196.856,-291.802C199.493,-290.166 201.939,-288.248 204,-286 240.768,-245.899 204.608,-210.321 240,-169 240.863,-167.993 241.795,-167.037 242.781,-166.131"/>
<polygon fill="black" stroke="black" points="245.091,-168.782 251.178,-160.11 241.012,-163.093 245.091,-168.782"/>
</g>
<!-- src/app/App.tsx&#45;&gt;./app.styles -->
<g id="edge7" class="edge"><title>src/app/App.tsx&#45;&gt;./app.styles</title>
<path fill="none" stroke="black" d="M305.178,-244.886C309.308,-243.019 313.149,-240.473 316,-237 371.836,-168.989 293.874,-113.323 344,-41 349.376,-33.2442 357.259,-27.183 365.508,-22.5237"/>
<polygon fill="black" stroke="black" points="367.138,-25.6218 374.502,-18.0042 363.995,-19.3671 367.138,-25.6218"/>
</g>
<!-- src/app/App.tsx&#45;&gt;src/app/routes.ts -->
<g id="edge8" class="edge"><title>src/app/App.tsx&#45;&gt;src/app/routes.ts</title>
<path fill="none" stroke="black" d="M305.191,-250C322.957,-250 346.679,-250 366.253,-250"/>
<polygon fill="black" stroke="black" points="366.347,-253.5 376.347,-250 366.347,-246.5 366.347,-253.5"/>
</g>
<!-- src/menu/Menu.tsx -->
<g id="node19" class="node"><title>src/menu/Menu.tsx</title>
<g id="a_node19"><a xlink:href="src/menu/Menu.tsx" xlink:title="Menu.tsx">
<path fill="#ffffcc" stroke="black" d="M424.5,-100C424.5,-100 382.5,-100 382.5,-100 379.5,-100 376.5,-97 376.5,-94 376.5,-94 376.5,-88 376.5,-88 376.5,-85 379.5,-82 382.5,-82 382.5,-82 424.5,-82 424.5,-82 427.5,-82 430.5,-85 430.5,-88 430.5,-88 430.5,-94 430.5,-94 430.5,-97 427.5,-100 424.5,-100"/>
<text text-anchor="middle" x="403.5" y="-88.8" font-family="Helvetica,sans-Serif" font-size="9.00">Menu.tsx</text>
</a>
</g>
</g>
<!-- src/app/App.tsx&#45;&gt;src/menu/Menu.tsx -->
<g id="edge5" class="edge"><title>src/app/App.tsx&#45;&gt;src/menu/Menu.tsx</title>
<path fill="none" stroke="black" d="M283.739,-240.742C297.281,-214.37 335.708,-140.164 344,-131 353.158,-120.879 365.365,-112.018 376.258,-105.226"/>
<polygon fill="black" stroke="black" points="378.197,-108.145 385.003,-100.025 374.619,-102.128 378.197,-108.145"/>
</g>
<!-- src/root.store.ts -->
<g id="node25" class="node"><title>src/root.store.ts</title>
<g id="a_node25"><a xlink:href="src/root.store.ts" xlink:title="root.store.ts">
<path fill="#ffffcc" stroke="black" d="M192.5,-216C192.5,-216 139.5,-216 139.5,-216 136.5,-216 133.5,-213 133.5,-210 133.5,-210 133.5,-204 133.5,-204 133.5,-201 136.5,-198 139.5,-198 139.5,-198 192.5,-198 192.5,-198 195.5,-198 198.5,-201 198.5,-204 198.5,-204 198.5,-210 198.5,-210 198.5,-213 195.5,-216 192.5,-216"/>
<text text-anchor="middle" x="166" y="-204.8" font-family="Helvetica,sans-Serif" font-size="9.00">root.store.ts</text>
</a>
</g>
</g>
<!-- src/app/App.tsx&#45;&gt;src/root.store.ts -->
<g id="edge6" class="edge"><title>src/app/App.tsx&#45;&gt;src/root.store.ts</title>
<path fill="none" stroke="black" d="M250.627,-241.026C247.039,-239.72 243.417,-238.357 240,-237 223.727,-230.537 220.194,-227.656 204,-221 203.138,-220.646 202.264,-220.29 201.381,-219.934"/>
<polygon fill="black" stroke="black" points="202.342,-216.55 191.755,-216.145 199.779,-223.064 202.342,-216.55"/>
</g>
<!-- src/app/app.domain.ts -->
<g id="node5" class="node"><title>src/app/app.domain.ts</title>
<g id="a_node5"><a xlink:href="src/app/app.domain.ts" xlink:title="app.domain.ts">
<path fill="#ffffcc" stroke="black" d="M198,-280C198,-280 134,-280 134,-280 131,-280 128,-277 128,-274 128,-274 128,-268 128,-268 128,-265 131,-262 134,-262 134,-262 198,-262 198,-262 201,-262 204,-265 204,-268 204,-268 204,-274 204,-274 204,-277 201,-280 198,-280"/>
<text text-anchor="middle" x="166" y="-268.8" font-family="Helvetica,sans-Serif" font-size="9.00">app.domain.ts</text>
</a>
</g>
</g>
<!-- src/app/app.reducer.ts -->
<g id="node6" class="node"><title>src/app/app.reducer.ts</title>
<g id="a_node6"><a xlink:href="src/app/app.reducer.ts" xlink:title="app.reducer.ts">
<path fill="#ffffcc" stroke="black" d="M198,-250C198,-250 134,-250 134,-250 131,-250 128,-247 128,-244 128,-244 128,-238 128,-238 128,-235 131,-232 134,-232 134,-232 198,-232 198,-232 201,-232 204,-235 204,-238 204,-238 204,-244 204,-244 204,-247 201,-250 198,-250"/>
<text text-anchor="middle" x="166" y="-238.8" font-family="Helvetica,sans-Serif" font-size="9.00">app.reducer.ts</text>
</a>
</g>
</g>
<!-- src/app/routes.ts&#45;&gt;src/admin/Admin.tsx -->
<g id="edge9" class="edge"><title>src/app/routes.ts&#45;&gt;src/admin/Admin.tsx</title>
<path fill="none" stroke="black" d="M430.504,-250C448.479,-250 472.665,-250 492.69,-250"/>
<polygon fill="black" stroke="black" points="492.727,-253.5 502.727,-250 492.727,-246.5 492.727,-253.5"/>
</g>
<!-- src/app/routes.ts&#45;&gt;src/auth/auth.domain.ts -->
<g id="edge10" class="edge"><title>src/app/routes.ts&#45;&gt;src/auth/auth.domain.ts</title>
<path fill="none" stroke="black" d="M420.907,-240.979C442.234,-229.254 479.699,-208.656 504.684,-194.919"/>
<polygon fill="black" stroke="black" points="506.512,-197.908 513.589,-190.023 503.14,-191.774 506.512,-197.908"/>
</g>
<!-- src/home/Home.tsx -->
<g id="node13" class="node"><title>src/home/Home.tsx</title>
<g id="a_node13"><a xlink:href="src/home/Home.tsx" xlink:title="Home.tsx">
<path fill="#ffffcc" stroke="black" d="M553,-400C553,-400 509,-400 509,-400 506,-400 503,-397 503,-394 503,-394 503,-388 503,-388 503,-385 506,-382 509,-382 509,-382 553,-382 553,-382 556,-382 559,-385 559,-388 559,-388 559,-394 559,-394 559,-397 556,-400 553,-400"/>
<text text-anchor="middle" x="531" y="-388.8" font-family="Helvetica,sans-Serif" font-size="9.00">Home.tsx</text>
</a>
</g>
</g>
<!-- src/app/routes.ts&#45;&gt;src/home/Home.tsx -->
<g id="edge11" class="edge"><title>src/app/routes.ts&#45;&gt;src/home/Home.tsx</title>
<path fill="none" stroke="black" d="M408.498,-259.333C418.811,-282.365 448.512,-342.464 491,-376 491.883,-376.697 492.801,-377.364 493.749,-378.003"/>
<polygon fill="black" stroke="black" points="492.39,-381.251 502.837,-383.014 495.77,-375.121 492.39,-381.251"/>
</g>
<!-- src/auth/auth.action.ts -->
<g id="node8" class="node"><title>src/auth/auth.action.ts</title>
<g id="a_node8"><a xlink:href="src/auth/auth.action.ts" xlink:title="auth.action.ts">
<path fill="#ffffcc" stroke="black" d="M560.5,-160C560.5,-160 501.5,-160 501.5,-160 498.5,-160 495.5,-157 495.5,-154 495.5,-154 495.5,-148 495.5,-148 495.5,-145 498.5,-142 501.5,-142 501.5,-142 560.5,-142 560.5,-142 563.5,-142 566.5,-145 566.5,-148 566.5,-148 566.5,-154 566.5,-154 566.5,-157 563.5,-160 560.5,-160"/>
<text text-anchor="middle" x="531" y="-148.8" font-family="Helvetica,sans-Serif" font-size="9.00">auth.action.ts</text>
</a>
</g>
</g>
<!-- src/auth/auth.reducer.ts -->
<g id="node10" class="node"><title>src/auth/auth.reducer.ts</title>
<g id="a_node10"><a xlink:href="src/auth/auth.reducer.ts" xlink:title="auth.reducer.ts">
<path fill="#ffffcc" stroke="black" d="M436.5,-160C436.5,-160 370.5,-160 370.5,-160 367.5,-160 364.5,-157 364.5,-154 364.5,-154 364.5,-148 364.5,-148 364.5,-145 367.5,-142 370.5,-142 370.5,-142 436.5,-142 436.5,-142 439.5,-142 442.5,-145 442.5,-148 442.5,-148 442.5,-154 442.5,-154 442.5,-157 439.5,-160 436.5,-160"/>
<text text-anchor="middle" x="403.5" y="-148.8" font-family="Helvetica,sans-Serif" font-size="9.00">auth.reducer.ts</text>
</a>
</g>
</g>
<!-- src/auth/auth.reducer.ts&#45;&gt;src/auth/auth.action.ts -->
<g id="edge12" class="edge"><title>src/auth/auth.reducer.ts&#45;&gt;src/auth/auth.action.ts</title>
<path fill="none" stroke="black" d="M442.836,-151C456.163,-151 471.23,-151 485.043,-151"/>
<polygon fill="black" stroke="black" points="485.312,-154.5 495.312,-151 485.312,-147.5 485.312,-154.5"/>
</g>
<!-- src/auth/auth.saga.ts -->
<g id="node11" class="node"><title>src/auth/auth.saga.ts</title>
<g id="a_node11"><a xlink:href="src/auth/auth.saga.ts" xlink:title="auth.saga.ts">
<path fill="#ffffcc" stroke="black" d="M431.5,-190C431.5,-190 375.5,-190 375.5,-190 372.5,-190 369.5,-187 369.5,-184 369.5,-184 369.5,-178 369.5,-178 369.5,-175 372.5,-172 375.5,-172 375.5,-172 431.5,-172 431.5,-172 434.5,-172 437.5,-175 437.5,-178 437.5,-178 437.5,-184 437.5,-184 437.5,-187 434.5,-190 431.5,-190"/>
<text text-anchor="middle" x="403.5" y="-178.8" font-family="Helvetica,sans-Serif" font-size="9.00">auth.saga.ts</text>
</a>
</g>
</g>
<!-- src/auth/auth.saga.ts&#45;&gt;src/auth/auth.action.ts -->
<g id="edge13" class="edge"><title>src/auth/auth.saga.ts&#45;&gt;src/auth/auth.action.ts</title>
<path fill="none" stroke="black" d="M437.802,-173.039C452.337,-169.565 469.598,-165.439 485.232,-161.701"/>
<polygon fill="black" stroke="black" points="486.314,-165.042 495.226,-159.312 484.686,-158.233 486.314,-165.042"/>
</g>
<!-- src/auth/auth.saga.ts&#45;&gt;src/auth/auth.domain.ts -->
<g id="edge14" class="edge"><title>src/auth/auth.saga.ts&#45;&gt;src/auth/auth.domain.ts</title>
<path fill="none" stroke="black" d="M437.802,-181C451.125,-181 466.739,-181 481.29,-181"/>
<polygon fill="black" stroke="black" points="481.651,-184.5 491.651,-181 481.651,-177.5 481.651,-184.5"/>
</g>
<!-- src/home/Home.spec.tsx -->
<g id="node12" class="node"><title>src/home/Home.spec.tsx</title>
<g id="a_node12"><a xlink:href="src/home/Home.spec.tsx" xlink:title="Home.spec.tsx">
<path fill="#ffffcc" stroke="black" d="M436.5,-400C436.5,-400 370.5,-400 370.5,-400 367.5,-400 364.5,-397 364.5,-394 364.5,-394 364.5,-388 364.5,-388 364.5,-385 367.5,-382 370.5,-382 370.5,-382 436.5,-382 436.5,-382 439.5,-382 442.5,-385 442.5,-388 442.5,-388 442.5,-394 442.5,-394 442.5,-397 439.5,-400 436.5,-400"/>
<text text-anchor="middle" x="403.5" y="-388.8" font-family="Helvetica,sans-Serif" font-size="9.00">Home.spec.tsx</text>
</a>
</g>
</g>
<!-- src/home/Home.spec.tsx&#45;&gt;src/home/Home.tsx -->
<g id="edge15" class="edge"><title>src/home/Home.spec.tsx&#45;&gt;src/home/Home.tsx</title>
<path fill="none" stroke="black" d="M442.836,-391C458.532,-391 476.643,-391 492.276,-391"/>
<polygon fill="black" stroke="black" points="492.643,-394.5 502.643,-391 492.643,-387.5 492.643,-394.5"/>
</g>
<!-- src/home/home.action.ts -->
<g id="node14" class="node"><title>src/home/home.action.ts</title>
<g id="a_node14"><a xlink:href="src/home/home.action.ts" xlink:title="home.action.ts">
<path fill="#ffffcc" stroke="black" d="M694.5,-370C694.5,-370 629.5,-370 629.5,-370 626.5,-370 623.5,-367 623.5,-364 623.5,-364 623.5,-358 623.5,-358 623.5,-355 626.5,-352 629.5,-352 629.5,-352 694.5,-352 694.5,-352 697.5,-352 700.5,-355 700.5,-358 700.5,-358 700.5,-364 700.5,-364 700.5,-367 697.5,-370 694.5,-370"/>
<text text-anchor="middle" x="662" y="-358.8" font-family="Helvetica,sans-Serif" font-size="9.00">home.action.ts</text>
</a>
</g>
</g>
<!-- src/home/Home.tsx&#45;&gt;src/home/home.action.ts -->
<g id="edge16" class="edge"><title>src/home/Home.tsx&#45;&gt;src/home/home.action.ts</title>
<path fill="none" stroke="black" d="M559.043,-384.711C574.752,-381.058 594.997,-376.35 613.301,-372.093"/>
<polygon fill="black" stroke="black" points="614.283,-375.458 623.23,-369.784 612.697,-368.64 614.283,-375.458"/>
</g>
<!-- src/home/home.worker&#45;factory.ts -->
<g id="node16" class="node"><title>src/home/home.worker&#45;factory.ts</title>
<g id="a_node16"><a xlink:href="src/home/home.worker-factory.ts" xlink:title="home.worker&#45;factory.ts">
<path fill="#ffffcc" stroke="black" d="M711,-400C711,-400 613,-400 613,-400 610,-400 607,-397 607,-394 607,-394 607,-388 607,-388 607,-385 610,-382 613,-382 613,-382 711,-382 711,-382 714,-382 717,-385 717,-388 717,-388 717,-394 717,-394 717,-397 714,-400 711,-400"/>
<text text-anchor="middle" x="662" y="-388.8" font-family="Helvetica,sans-Serif" font-size="9.00">home.worker&#45;factory.ts</text>
</a>
</g>
</g>
<!-- src/home/Home.tsx&#45;&gt;src/home/home.worker&#45;factory.ts -->
<g id="edge17" class="edge"><title>src/home/Home.tsx&#45;&gt;src/home/home.worker&#45;factory.ts</title>
<path fill="none" stroke="black" d="M559.043,-391C570.111,-391 583.431,-391 596.738,-391"/>
<polygon fill="black" stroke="black" points="596.874,-394.5 606.874,-391 596.873,-387.5 596.874,-394.5"/>
</g>
<!-- src/home/home.saga.ts -->
<g id="node15" class="node"><title>src/home/home.saga.ts</title>
<g id="a_node15"><a xlink:href="src/home/home.saga.ts" xlink:title="home.saga.ts">
<path fill="#ffffcc" stroke="black" d="M562,-370C562,-370 500,-370 500,-370 497,-370 494,-367 494,-364 494,-364 494,-358 494,-358 494,-355 497,-352 500,-352 500,-352 562,-352 562,-352 565,-352 568,-355 568,-358 568,-358 568,-364 568,-364 568,-367 565,-370 562,-370"/>
<text text-anchor="middle" x="531" y="-358.8" font-family="Helvetica,sans-Serif" font-size="9.00">home.saga.ts</text>
</a>
</g>
</g>
<!-- src/home/home.saga.ts&#45;&gt;src/home/home.action.ts -->
<g id="edge18" class="edge"><title>src/home/home.saga.ts&#45;&gt;src/home/home.action.ts</title>
<path fill="none" stroke="black" d="M568.277,-361C582.203,-361 598.316,-361 613.164,-361"/>
<polygon fill="black" stroke="black" points="613.199,-364.5 623.199,-361 613.199,-357.5 613.199,-364.5"/>
</g>
<!-- src/home/home.worker.js -->
<g id="node17" class="node"><title>src/home/home.worker.js</title>
<g id="a_node17"><a xlink:href="src/home/home.worker.js" xlink:title="home.worker.js">
<path fill="#ffffcc" stroke="black" d="M565,-430C565,-430 497,-430 497,-430 494,-430 491,-427 491,-424 491,-424 491,-418 491,-418 491,-415 494,-412 497,-412 497,-412 565,-412 565,-412 568,-412 571,-415 571,-418 571,-418 571,-424 571,-424 571,-427 568,-430 565,-430"/>
<text text-anchor="middle" x="531" y="-418.8" font-family="Helvetica,sans-Serif" font-size="9.00">home.worker.js</text>
</a>
</g>
</g>
<!-- src/home/home.worker.spec.ts -->
<g id="node18" class="node"><title>src/home/home.worker.spec.ts</title>
<g id="a_node18"><a xlink:href="src/home/home.worker.spec.ts" xlink:title="home.worker.spec.ts">
<path fill="#ffffcc" stroke="black" d="M449,-430C449,-430 358,-430 358,-430 355,-430 352,-427 352,-424 352,-424 352,-418 352,-418 352,-415 355,-412 358,-412 358,-412 449,-412 449,-412 452,-412 455,-415 455,-418 455,-418 455,-424 455,-424 455,-427 452,-430 449,-430"/>
<text text-anchor="middle" x="403.5" y="-418.8" font-family="Helvetica,sans-Serif" font-size="9.00">home.worker.spec.ts</text>
</a>
</g>
</g>
<!-- src/home/home.worker.spec.ts&#45;&gt;src/home/home.worker.js -->
<g id="edge19" class="edge"><title>src/home/home.worker.spec.ts&#45;&gt;src/home/home.worker.js</title>
<path fill="none" stroke="black" d="M455.184,-421C463.599,-421 472.316,-421 480.696,-421"/>
<polygon fill="black" stroke="black" points="480.709,-424.5 490.709,-421 480.709,-417.5 480.709,-424.5"/>
</g>
<!-- src/menu/Menu.tsx&#45;&gt;src/auth/auth.action.ts -->
<g id="edge20" class="edge"><title>src/menu/Menu.tsx&#45;&gt;src/auth/auth.action.ts</title>
<path fill="none" stroke="black" d="M423.561,-100.113C444.413,-110.082 478.044,-126.161 501.918,-137.574"/>
<polygon fill="black" stroke="black" points="500.639,-140.842 511.171,-141.998 503.659,-134.527 500.639,-140.842"/>
</g>
<!-- src/menu/menu.domain.ts -->
<g id="node20" class="node"><title>src/menu/menu.domain.ts</title>
<g id="a_node20"><a xlink:href="src/menu/menu.domain.ts" xlink:title="menu.domain.ts">
<path fill="#ffffcc" stroke="black" d="M439.5,-70C439.5,-70 367.5,-70 367.5,-70 364.5,-70 361.5,-67 361.5,-64 361.5,-64 361.5,-58 361.5,-58 361.5,-55 364.5,-52 367.5,-52 367.5,-52 439.5,-52 439.5,-52 442.5,-52 445.5,-55 445.5,-58 445.5,-58 445.5,-64 445.5,-64 445.5,-67 442.5,-70 439.5,-70"/>
<text text-anchor="middle" x="403.5" y="-58.8" font-family="Helvetica,sans-Serif" font-size="9.00">menu.domain.ts</text>
</a>
</g>
</g>
<!-- src/root.domain.ts -->
<g id="node21" class="node"><title>src/root.domain.ts</title>
<g id="a_node21"><a xlink:href="src/root.domain.ts" xlink:title="root.domain.ts">
<path fill="#ffffcc" stroke="black" d="M86,-440C86,-440 22,-440 22,-440 19,-440 16,-437 16,-434 16,-434 16,-428 16,-428 16,-425 19,-422 22,-422 22,-422 86,-422 86,-422 89,-422 92,-425 92,-428 92,-428 92,-434 92,-434 92,-437 89,-440 86,-440"/>
<text text-anchor="middle" x="54" y="-428.8" font-family="Helvetica,sans-Serif" font-size="9.00">root.domain.ts</text>
</a>
</g>
</g>
<!-- src/root.reducer.ts&#45;&gt;src/app/app.reducer.ts -->
<g id="edge21" class="edge"><title>src/root.reducer.ts&#45;&gt;src/app/app.reducer.ts</title>
<path fill="none" stroke="black" d="M253.032,-160.167C248.397,-162.603 243.806,-165.54 240,-169 219.491,-187.646 226.124,-204.946 205.778,-225.22"/>
<polygon fill="black" stroke="black" points="203.361,-222.685 198.156,-231.913 207.98,-227.945 203.361,-222.685"/>
</g>
<!-- src/root.reducer.ts&#45;&gt;src/auth/auth.reducer.ts -->
<g id="edge22" class="edge"><title>src/root.reducer.ts&#45;&gt;src/auth/auth.reducer.ts</title>
<path fill="none" stroke="black" d="M316.054,-151C327.933,-151 341.271,-151 353.85,-151"/>
<polygon fill="black" stroke="black" points="354.188,-154.5 364.188,-151 354.188,-147.5 354.188,-154.5"/>
</g>
<!-- src/root.saga.ts -->
<g id="node23" class="node"><title>src/root.saga.ts</title>
<g id="a_node23"><a xlink:href="src/root.saga.ts" xlink:title="root.saga.ts">
<path fill="#ffffcc" stroke="black" d="M304.5,-362C304.5,-362 251.5,-362 251.5,-362 248.5,-362 245.5,-359 245.5,-356 245.5,-356 245.5,-350 245.5,-350 245.5,-347 248.5,-344 251.5,-344 251.5,-344 304.5,-344 304.5,-344 307.5,-344 310.5,-347 310.5,-350 310.5,-350 310.5,-356 310.5,-356 310.5,-359 307.5,-362 304.5,-362"/>
<text text-anchor="middle" x="278" y="-350.8" font-family="Helvetica,sans-Serif" font-size="9.00">root.saga.ts</text>
</a>
</g>
</g>
<!-- src/root.saga.ts&#45;&gt;src/auth/auth.saga.ts -->
<g id="edge23" class="edge"><title>src/root.saga.ts&#45;&gt;src/auth/auth.saga.ts</title>
<path fill="none" stroke="black" d="M310.394,-343.867C312.463,-342.469 314.368,-340.857 316,-339 351.583,-298.514 313.476,-265.425 344,-221 351.403,-210.226 362.738,-201.505 373.466,-194.988"/>
<polygon fill="black" stroke="black" points="375.248,-198.001 382.235,-190.037 371.806,-191.906 375.248,-198.001"/>
</g>
<!-- src/root.saga.ts&#45;&gt;src/home/home.saga.ts -->
<g id="edge24" class="edge"><title>src/root.saga.ts&#45;&gt;src/home/home.saga.ts</title>
<path fill="none" stroke="black" d="M310.535,-354.005C354.173,-355.396 433.276,-357.917 483.644,-359.523"/>
<polygon fill="black" stroke="black" points="483.827,-363.03 493.933,-359.85 484.05,-356.034 483.827,-363.03"/>
</g>
<!-- src/root.spec.tsx -->
<g id="node24" class="node"><title>src/root.spec.tsx</title>
<g id="a_node24"><a xlink:href="src/root.spec.tsx" xlink:title="root.spec.tsx">
<path fill="#ffffcc" stroke="black" d="M82,-394C82,-394 26,-394 26,-394 23,-394 20,-391 20,-388 20,-388 20,-382 20,-382 20,-379 23,-376 26,-376 26,-376 82,-376 82,-376 85,-376 88,-379 88,-382 88,-382 88,-388 88,-388 88,-391 85,-394 82,-394"/>
<text text-anchor="middle" x="54" y="-382.8" font-family="Helvetica,sans-Serif" font-size="9.00">root.spec.tsx</text>
</a>
</g>
</g>
<!-- src/root.store.ts&#45;&gt;src/root.reducer.ts -->
<g id="edge25" class="edge"><title>src/root.store.ts&#45;&gt;src/root.reducer.ts</title>
<path fill="none" stroke="black" d="M184.042,-197.962C198.794,-190.179 220.729,-178.701 240,-169 242.935,-167.522 246.01,-165.995 249.08,-164.483"/>
<polygon fill="black" stroke="black" points="250.682,-167.595 258.128,-160.059 247.607,-161.307 250.682,-167.595"/>
</g>
<!-- src/root.tsx -->
<g id="node26" class="node"><title>src/root.tsx</title>
<g id="a_node26"><a xlink:href="src/root.tsx" xlink:title="root.tsx">
<path fill="#ffffcc" stroke="black" d="M75,-332C75,-332 33,-332 33,-332 30,-332 27,-329 27,-326 27,-326 27,-320 27,-320 27,-317 30,-314 33,-314 33,-314 75,-314 75,-314 78,-314 81,-317 81,-320 81,-320 81,-326 81,-326 81,-329 78,-332 75,-332"/>
<text text-anchor="middle" x="54" y="-320.8" font-family="Helvetica,sans-Serif" font-size="9.00">root.tsx</text>
</a>
</g>
</g>
<!-- src/root.tsx&#45;&gt;src/app/App.tsx -->
<g id="edge26" class="edge"><title>src/root.tsx&#45;&gt;src/app/App.tsx</title>
<path fill="none" stroke="black" d="M81.1437,-328.444C112.487,-333.54 165.59,-337.512 204,-316 228.844,-302.085 217.435,-280.369 240,-263 240.607,-262.533 241.232,-262.082 241.872,-261.646"/>
<polygon fill="black" stroke="black" points="243.697,-264.638 250.837,-256.811 240.375,-258.477 243.697,-264.638"/>
</g>
<!-- src/root.tsx&#45;&gt;src/root.saga.ts -->
<g id="edge27" class="edge"><title>src/root.tsx&#45;&gt;src/root.saga.ts</title>
<path fill="none" stroke="black" d="M81.061,-330.379C92.8637,-333.471 107.046,-336.841 120,-339 158.681,-345.447 203.252,-349.063 234.998,-350.997"/>
<polygon fill="black" stroke="black" points="235.06,-354.507 245.245,-351.591 235.464,-347.518 235.06,-354.507"/>
</g>
<!-- src/root.tsx&#45;&gt;src/root.store.ts -->
<g id="edge28" class="edge"><title>src/root.tsx&#45;&gt;src/root.store.ts</title>
<path fill="none" stroke="black" d="M58.2943,-313.855C65.9377,-293.934 86.7983,-246.373 120,-221 121.219,-220.069 122.501,-219.198 123.83,-218.386"/>
<polygon fill="black" stroke="black" points="125.692,-221.37 133.116,-213.812 122.599,-215.09 125.692,-221.37"/>
</g>
</g>
</svg>
