<?xml version="1.0" encoding="UTF-8" standalone="no"?>
<!DOCTYPE svg PUBLIC "-//W3C//DTD SVG 1.1//EN"
 "http://www.w3.org/Graphics/SVG/1.1/DTD/svg11.dtd">
<!-- Generated by graphviz version 2.38.0 (20140413.2041)
 -->
<!-- Title: dependency&#45;cruiser output Pages: 1 -->
<svg width="839pt" height="480pt"
 viewBox="0.00 0.00 839.00 480.00" xmlns="http://www.w3.org/2000/svg" xmlns:xlink="http://www.w3.org/1999/xlink">
<g id="graph0" class="graph" transform="scale(1 1) rotate(0) translate(4 476)">
<title>dependency&#45;cruiser output</title>
<polygon fill="white" stroke="none" points="-4,4 -4,-476 835,-476 835,4 -4,4"/>
<g id="clust1" class="cluster"><title>cluster_/src</title>
<path fill="none" stroke="black" stroke-width="2" d="M20,-26C20,-26 811,-26 811,-26 817,-26 823,-32 823,-38 823,-38 823,-452 823,-452 823,-458 817,-464 811,-464 811,-464 20,-464 20,-464 14,-464 8,-458 8,-452 8,-452 8,-38 8,-38 8,-32 14,-26 20,-26"/>
<text text-anchor="middle" x="415.5" y="-452.8" font-family="Helvetica,sans-Serif" font-weight="bold" font-size="9.00">src</text>
</g>
<g id="clust2" class="cluster"><title>cluster_/src/admin</title>
<path fill="none" stroke="black" stroke-width="2" d="M470.5,-34C470.5,-34 645,-34 645,-34 651,-34 657,-40 657,-46 657,-46 657,-74 657,-74 657,-80 651,-86 645,-86 645,-86 470.5,-86 470.5,-86 464.5,-86 458.5,-80 458.5,-74 458.5,-74 458.5,-46 458.5,-46 458.5,-40 464.5,-34 470.5,-34"/>
<text text-anchor="middle" x="557.75" y="-74.8" font-family="Helvetica,sans-Serif" font-weight="bold" font-size="9.00">admin</text>
</g>
<g id="clust3" class="cluster"><title>cluster_/src/app</title>
<path fill="none" stroke="black" stroke-width="2" d="M110,-74C110,-74 387,-74 387,-74 393,-74 399,-80 399,-86 399,-86 399,-202 399,-202 399,-208 393,-214 387,-214 387,-214 110,-214 110,-214 104,-214 98,-208 98,-202 98,-202 98,-86 98,-86 98,-80 104,-74 110,-74"/>
<text text-anchor="middle" x="248.5" y="-202.8" font-family="Helvetica,sans-Serif" font-weight="bold" font-size="9.00">app</text>
</g>
<g id="clust5" class="cluster"><title>cluster_/src/home</title>
<path fill="none" stroke="black" stroke-width="2" d="M446,-94C446,-94 803,-94 803,-94 809,-94 815,-100 815,-106 815,-106 815,-222 815,-222 815,-228 809,-234 803,-234 803,-234 446,-234 446,-234 440,-234 434,-228 434,-222 434,-222 434,-106 434,-106 434,-100 440,-94 446,-94"/>
<text text-anchor="middle" x="624.5" y="-222.8" font-family="Helvetica,sans-Serif" font-weight="bold" font-size="9.00">home</text>
</g>
<g id="clust4" class="cluster"><title>cluster_/src/auth</title>
<path fill="none" stroke="black" stroke-width="2" d="M470.5,-242C470.5,-242 787,-242 787,-242 793,-242 799,-248 799,-254 799,-254 799,-340 799,-340 799,-346 793,-352 787,-352 787,-352 470.5,-352 470.5,-352 464.5,-352 458.5,-346 458.5,-340 458.5,-340 458.5,-254 458.5,-254 458.5,-248 464.5,-242 470.5,-242"/>
<text text-anchor="middle" x="628.75" y="-340.8" font-family="Helvetica,sans-Serif" font-weight="bold" font-size="9.00">auth</text>
</g>
<g id="clust6" class="cluster"><title>cluster_/src/menu</title>
<path fill="none" stroke="black" stroke-width="2" d="M225,-356C225,-356 402,-356 402,-356 408,-356 414,-362 414,-368 414,-368 414,-426 414,-426 414,-432 408,-438 402,-438 402,-438 225,-438 225,-438 219,-438 213,-432 213,-426 213,-426 213,-368 213,-368 213,-362 219,-356 225,-356"/>
<text text-anchor="middle" x="313.5" y="-426.8" font-family="Helvetica,sans-Serif" font-weight="bold" font-size="9.00">menu</text>
</g>
<g id="clust7" class="cluster"><title>cluster_/src/root</title>
<path fill="none" stroke="black" stroke-width="2" d="M110,-222C110,-222 398,-222 398,-222 404,-222 410,-228 410,-234 410,-234 410,-336 410,-336 410,-342 404,-348 398,-348 398,-348 110,-348 110,-348 104,-348 98,-342 98,-336 98,-336 98,-234 98,-234 98,-228 104,-222 110,-222"/>
<text text-anchor="middle" x="254" y="-336.8" font-family="Helvetica,sans-Serif" font-weight="bold" font-size="9.00">root</text>
</g>
<!-- ./app.styles -->
<g id="node1" class="node"><title>./app.styles</title>
<path fill="#ffffcc" stroke="red" d="M387.5,-18C387.5,-18 340.5,-18 340.5,-18 337.5,-18 334.5,-15 334.5,-12 334.5,-12 334.5,-6 334.5,-6 334.5,-3 337.5,-0 340.5,-0 340.5,-0 387.5,-0 387.5,-0 390.5,-0 393.5,-3 393.5,-6 393.5,-6 393.5,-12 393.5,-12 393.5,-15 390.5,-18 387.5,-18"/>
<text text-anchor="middle" x="364" y="-6.8" font-family="Helvetica,sans-Serif" font-size="9.00" fill="red">app.styles</text>
</g>
<!-- src/admin/Admin.tsx -->
<g id="node2" class="node"><title>src/admin/Admin.tsx</title>
<g id="a_node2"><a xlink:href="src/admin/Admin.tsx" xlink:title="Admin.tsx">
<path fill="#ffffcc" stroke="black" d="M643,-60C643,-60 599,-60 599,-60 596,-60 593,-57 593,-54 593,-54 593,-48 593,-48 593,-45 596,-42 599,-42 599,-42 643,-42 643,-42 646,-42 649,-45 649,-48 649,-48 649,-54 649,-54 649,-57 646,-60 643,-60"/>
<text text-anchor="middle" x="621" y="-48.8" font-family="Helvetica,sans-Serif" font-size="9.00">Admin.tsx</text>
</a>
</g>
</g>
<!-- src/admin/index.ts -->
<g id="node3" class="node"><title>src/admin/index.ts</title>
<g id="a_node3"><a xlink:href="src/admin/index.ts" xlink:title="index.ts">
<path fill="#ffffcc" stroke="black" d="M514.5,-60C514.5,-60 472.5,-60 472.5,-60 469.5,-60 466.5,-57 466.5,-54 466.5,-54 466.5,-48 466.5,-48 466.5,-45 469.5,-42 472.5,-42 472.5,-42 514.5,-42 514.5,-42 517.5,-42 520.5,-45 520.5,-48 520.5,-48 520.5,-54 520.5,-54 520.5,-57 517.5,-60 514.5,-60"/>
<text text-anchor="middle" x="493.5" y="-48.8" font-family="Helvetica,sans-Serif" font-size="9.00">index.ts</text>
</a>
</g>
</g>
<!-- src/admin/index.ts&#45;&gt;src/admin/Admin.tsx -->
<g id="edge1" class="edge"><title>src/admin/index.ts&#45;&gt;src/admin/Admin.tsx</title>
<path fill="none" stroke="black" d="M520.504,-51C538.479,-51 562.665,-51 582.69,-51"/>
<polygon fill="black" stroke="black" points="582.727,-54.5001 592.727,-51 582.727,-47.5001 582.727,-54.5001"/>
</g>
<!-- src/app/App.spec.tsx -->
<g id="node4" class="node"><title>src/app/App.spec.tsx</title>
<g id="a_node4"><a xlink:href="src/app/App.spec.tsx" xlink:title="App.spec.tsx">
<path fill="#ffffcc" stroke="black" d="M168,-143C168,-143 112,-143 112,-143 109,-143 106,-140 106,-137 106,-137 106,-131 106,-131 106,-128 109,-125 112,-125 112,-125 168,-125 168,-125 171,-125 174,-128 174,-131 174,-131 174,-137 174,-137 174,-140 171,-143 168,-143"/>
<text text-anchor="middle" x="140" y="-131.8" font-family="Helvetica,sans-Serif" font-size="9.00">App.spec.tsx</text>
</a>
</g>
</g>
<!-- src/app/App.tsx -->
<g id="node5" class="node"><title>src/app/App.tsx</title>
<g id="a_node5"><a xlink:href="src/app/App.tsx" xlink:title="App.tsx">
<path fill="#ffffcc" stroke="black" d="M269,-188C269,-188 227,-188 227,-188 224,-188 221,-185 221,-182 221,-182 221,-176 221,-176 221,-173 224,-170 227,-170 227,-170 269,-170 269,-170 272,-170 275,-173 275,-176 275,-176 275,-182 275,-182 275,-185 272,-188 269,-188"/>
<text text-anchor="middle" x="248" y="-176.8" font-family="Helvetica,sans-Serif" font-size="9.00">App.tsx</text>
</a>
</g>
</g>
<!-- src/app/App.spec.tsx&#45;&gt;src/app/App.tsx -->
<g id="edge4" class="edge"><title>src/app/App.spec.tsx&#45;&gt;src/app/App.tsx</title>
<path fill="none" stroke="black" d="M161.473,-143.061C175.171,-149.084 193.621,-157.121 210,-164 211.582,-164.664 213.203,-165.34 214.843,-166.02"/>
<polygon fill="black" stroke="black" points="213.685,-169.328 224.265,-169.887 216.343,-162.852 213.685,-169.328"/>
</g>
<!-- src/app/routes.ts -->
<g id="node9" class="node"><title>src/app/routes.ts</title>
<g id="a_node9"><a xlink:href="src/app/routes.ts" xlink:title="routes.ts">
<path fill="#ffffcc" stroke="black" d="M385,-143C385,-143 343,-143 343,-143 340,-143 337,-140 337,-137 337,-137 337,-131 337,-131 337,-128 340,-125 343,-125 343,-125 385,-125 385,-125 388,-125 391,-128 391,-131 391,-131 391,-137 391,-137 391,-140 388,-143 385,-143"/>
<text text-anchor="middle" x="364" y="-131.8" font-family="Helvetica,sans-Serif" font-size="9.00">routes.ts</text>
</a>
</g>
</g>
<!-- src/app/App.spec.tsx&#45;&gt;src/app/routes.ts -->
<g id="edge5" class="edge"><title>src/app/App.spec.tsx&#45;&gt;src/app/routes.ts</title>
<path fill="none" stroke="black" d="M151.279,-124.729C163.994,-113.947 186.814,-96.7637 210,-90 242.426,-80.541 254.334,-78.2448 286,-90 305.795,-97.3482 303.562,-110.711 322,-121 323.712,-121.955 325.503,-122.851 327.341,-123.69"/>
<polygon fill="black" stroke="black" points="326.163,-126.988 336.749,-127.418 328.742,-120.48 326.163,-126.988"/>
</g>
<!-- src/auth/index.ts -->
<g id="node14" class="node"><title>src/auth/index.ts</title>
<g id="a_node14"><a xlink:href="src/auth/index.ts" xlink:title="index.ts">
<path fill="#ffffcc" stroke="black" d="M514.5,-279C514.5,-279 472.5,-279 472.5,-279 469.5,-279 466.5,-276 466.5,-273 466.5,-273 466.5,-267 466.5,-267 466.5,-264 469.5,-261 472.5,-261 472.5,-261 514.5,-261 514.5,-261 517.5,-261 520.5,-264 520.5,-267 520.5,-267 520.5,-273 520.5,-273 520.5,-276 517.5,-279 514.5,-279"/>
<text text-anchor="middle" x="493.5" y="-267.8" font-family="Helvetica,sans-Serif" font-size="9.00">index.ts</text>
</a>
</g>
</g>
<!-- src/app/App.spec.tsx&#45;&gt;src/auth/index.ts -->
<g id="edge2" class="edge"><title>src/app/App.spec.tsx&#45;&gt;src/auth/index.ts</title>
<path fill="none" stroke="black" d="M150.567,-124.859C163.272,-113.128 186.817,-92.7715 210,-80 250.463,-57.709 379.724,-9.02768 414,-40 446.648,-69.5015 409.915,-200.174 434,-237 439.648,-245.637 448.383,-252.246 457.395,-257.197"/>
<polygon fill="black" stroke="black" points="455.875,-260.35 466.395,-261.609 458.956,-254.065 455.875,-260.35"/>
</g>
<!-- src/root/index.ts -->
<g id="node28" class="node"><title>src/root/index.ts</title>
<g id="a_node28"><a xlink:href="src/root/index.ts" xlink:title="index.ts">
<path fill="#ffffcc" stroke="black" d="M161,-248C161,-248 119,-248 119,-248 116,-248 113,-245 113,-242 113,-242 113,-236 113,-236 113,-233 116,-230 119,-230 119,-230 161,-230 161,-230 164,-230 167,-233 167,-236 167,-236 167,-242 167,-242 167,-245 164,-248 161,-248"/>
<text text-anchor="middle" x="140" y="-236.8" font-family="Helvetica,sans-Serif" font-size="9.00">index.ts</text>
</a>
</g>
</g>
<!-- src/app/App.spec.tsx&#45;&gt;src/root/index.ts -->
<g id="edge3" class="edge"><title>src/app/App.spec.tsx&#45;&gt;src/root/index.ts</title>
<path fill="none" stroke="black" d="M105.977,-139.808C99.1065,-142.631 92.7471,-146.812 88.6667,-153 81.3268,-164.131 81.6863,-201.64 88.6667,-213 92.3211,-218.947 97.805,-223.585 103.847,-227.185"/>
<polygon fill="black" stroke="black" points="102.444,-230.397 112.952,-231.749 105.58,-224.139 102.444,-230.397"/>
<path fill="none" stroke="black" d="M105.823,-139.04C95.5146,-142.367 85.348,-147.879 79.3333,-157 72.9721,-166.647 73.2366,-199.184 79.3333,-209 84.8662,-217.908 93.9149,-224.252 103.355,-228.735"/>
<polygon fill="black" stroke="black" points="102.231,-232.058 112.811,-232.626 104.895,-225.584 102.231,-232.058"/>
</g>
<!-- src/app/App.tsx&#45;&gt;./app.styles -->
<g id="edge9" class="edge"><title>src/app/App.tsx&#45;&gt;./app.styles</title>
<path fill="none" stroke="black" d="M275.295,-171.983C279.311,-169.95 283.082,-167.341 286,-164 328.54,-115.282 278.11,-70.5054 322,-23 323.053,-21.8605 324.202,-20.8138 325.425,-19.8523"/>
<polygon fill="black" stroke="black" points="327.457,-22.7194 334.337,-14.6627 323.934,-16.6703 327.457,-22.7194"/>
</g>
<!-- src/app/App.tsx&#45;&gt;src/app/routes.ts -->
<g id="edge10" class="edge"><title>src/app/App.tsx&#45;&gt;src/app/routes.ts</title>
<path fill="none" stroke="black" d="M272.07,-169.894C288.912,-163.245 311.969,-154.144 330.65,-146.77"/>
<polygon fill="black" stroke="black" points="331.948,-150.02 339.965,-143.093 329.378,-143.509 331.948,-150.02"/>
</g>
<!-- src/globals.ts -->
<g id="node15" class="node"><title>src/globals.ts</title>
<g id="a_node15"><a xlink:href="src/globals.ts" xlink:title="globals.ts">
<path fill="#ffffcc" stroke="black" d="M386.5,-66C386.5,-66 341.5,-66 341.5,-66 338.5,-66 335.5,-63 335.5,-60 335.5,-60 335.5,-54 335.5,-54 335.5,-51 338.5,-48 341.5,-48 341.5,-48 386.5,-48 386.5,-48 389.5,-48 392.5,-51 392.5,-54 392.5,-54 392.5,-60 392.5,-60 392.5,-63 389.5,-66 386.5,-66"/>
<text text-anchor="middle" x="364" y="-54.8" font-family="Helvetica,sans-Serif" font-size="9.00">globals.ts</text>
</a>
</g>
</g>
<!-- src/app/App.tsx&#45;&gt;src/globals.ts -->
<g id="edge6" class="edge"><title>src/app/App.tsx&#45;&gt;src/globals.ts</title>
<path fill="none" stroke="black" d="M275.347,-171.49C279.261,-169.522 282.985,-167.063 286,-164 317.091,-132.413 290.035,-101.703 322,-71 323.268,-69.7821 324.646,-68.6698 326.104,-67.6542"/>
<polygon fill="black" stroke="black" points="327.948,-70.6369 335.11,-62.829 324.642,-64.4667 327.948,-70.6369"/>
</g>
<!-- src/menu/Menu.tsx -->
<g id="node25" class="node"><title>src/menu/Menu.tsx</title>
<g id="a_node25"><a xlink:href="src/menu/Menu.tsx" xlink:title="Menu.tsx">
<path fill="#ffffcc" stroke="black" d="M385,-382C385,-382 343,-382 343,-382 340,-382 337,-379 337,-376 337,-376 337,-370 337,-370 337,-367 340,-364 343,-364 343,-364 385,-364 385,-364 388,-364 391,-367 391,-370 391,-370 391,-376 391,-376 391,-379 388,-382 385,-382"/>
<text text-anchor="middle" x="364" y="-370.8" font-family="Helvetica,sans-Serif" font-size="9.00">Menu.tsx</text>
</a>
</g>
</g>
<!-- src/app/App.tsx&#45;&gt;src/menu/Menu.tsx -->
<g id="edge7" class="edge"><title>src/app/App.tsx&#45;&gt;src/menu/Menu.tsx</title>
<path fill="none" stroke="black" d="M259.913,-188.119C268.209,-195.61 279.302,-206.922 286,-219 315.492,-272.179 284.13,-303.423 322,-351 324.231,-353.803 326.919,-356.294 329.839,-358.499"/>
<polygon fill="black" stroke="black" points="328.173,-361.586 338.496,-363.971 331.913,-355.669 328.173,-361.586"/>
</g>
<!-- src/app/App.tsx&#45;&gt;src/root/index.ts -->
<g id="edge8" class="edge"><title>src/app/App.tsx&#45;&gt;src/root/index.ts</title>
<path fill="none" stroke="black" d="M231.097,-188.002C213.876,-197.749 186.175,-213.429 166.03,-224.832"/>
<polygon fill="black" stroke="black" points="164.078,-221.915 157.099,-229.887 167.526,-228.007 164.078,-221.915"/>
</g>
<!-- src/app/app.domain.ts -->
<g id="node6" class="node"><title>src/app/app.domain.ts</title>
<g id="a_node6"><a xlink:href="src/app/app.domain.ts" xlink:title="app.domain.ts">
<path fill="#ffffcc" stroke="black" d="M280,-158C280,-158 216,-158 216,-158 213,-158 210,-155 210,-152 210,-152 210,-146 210,-146 210,-143 213,-140 216,-140 216,-140 280,-140 280,-140 283,-140 286,-143 286,-146 286,-146 286,-152 286,-152 286,-155 283,-158 280,-158"/>
<text text-anchor="middle" x="248" y="-146.8" font-family="Helvetica,sans-Serif" font-size="9.00">app.domain.ts</text>
</a>
</g>
</g>
<!-- src/app/app.reducer.ts -->
<g id="node7" class="node"><title>src/app/app.reducer.ts</title>
<g id="a_node7"><a xlink:href="src/app/app.reducer.ts" xlink:title="app.reducer.ts">
<path fill="#ffffcc" stroke="black" d="M280,-114C280,-114 216,-114 216,-114 213,-114 210,-111 210,-108 210,-108 210,-102 210,-102 210,-99 213,-96 216,-96 216,-96 280,-96 280,-96 283,-96 286,-99 286,-102 286,-102 286,-108 286,-108 286,-111 283,-114 280,-114"/>
<text text-anchor="middle" x="248" y="-102.8" font-family="Helvetica,sans-Serif" font-size="9.00">app.reducer.ts</text>
</a>
</g>
</g>
<!-- src/app/index.ts -->
<g id="node8" class="node"><title>src/app/index.ts</title>
<g id="a_node8"><a xlink:href="src/app/index.ts" xlink:title="index.ts">
<path fill="#ffffcc" stroke="black" d="M161,-173C161,-173 119,-173 119,-173 116,-173 113,-170 113,-167 113,-167 113,-161 113,-161 113,-158 116,-155 119,-155 119,-155 161,-155 161,-155 164,-155 167,-158 167,-161 167,-161 167,-167 167,-167 167,-170 164,-173 161,-173"/>
<text text-anchor="middle" x="140" y="-161.8" font-family="Helvetica,sans-Serif" font-size="9.00">index.ts</text>
</a>
</g>
</g>
<!-- src/app/index.ts&#45;&gt;src/app/App.tsx -->
<g id="edge11" class="edge"><title>src/app/index.ts&#45;&gt;src/app/App.tsx</title>
<path fill="none" stroke="black" d="M167.202,-167.708C180.325,-169.565 196.422,-171.843 210.713,-173.865"/>
<polygon fill="black" stroke="black" points="210.34,-177.347 220.732,-175.283 211.321,-170.416 210.34,-177.347"/>
</g>
<!-- src/app/index.ts&#45;&gt;src/app/app.domain.ts -->
<g id="edge12" class="edge"><title>src/app/index.ts&#45;&gt;src/app/app.domain.ts</title>
<path fill="none" stroke="black" d="M167.202,-160.292C177.059,-158.897 188.595,-157.265 199.782,-155.682"/>
<polygon fill="black" stroke="black" points="200.49,-159.117 209.901,-154.25 199.509,-152.186 200.49,-159.117"/>
</g>
<!-- src/app/index.ts&#45;&gt;src/app/app.reducer.ts -->
<g id="edge13" class="edge"><title>src/app/index.ts&#45;&gt;src/app/app.reducer.ts</title>
<path fill="none" stroke="black" d="M162.615,-154.923C166.475,-153.093 170.408,-151.086 174,-149 191.068,-139.09 193.063,-133.133 210,-123 212.471,-121.522 215.082,-120.062 217.726,-118.653"/>
<polygon fill="black" stroke="black" points="219.364,-121.747 226.696,-114.098 216.195,-115.505 219.364,-121.747"/>
</g>
<!-- src/app/index.ts&#45;&gt;src/app/routes.ts -->
<g id="edge14" class="edge"><title>src/app/index.ts&#45;&gt;src/app/routes.ts</title>
<path fill="none" stroke="black" d="M161.391,-154.893C180.799,-146.263 207.426,-134.535 210,-134 249.37,-125.812 295.681,-127.308 326.956,-129.898"/>
<polygon fill="black" stroke="black" points="326.678,-133.387 336.954,-130.806 327.311,-126.416 326.678,-133.387"/>
</g>
<!-- src/app/routes.ts&#45;&gt;src/admin/index.ts -->
<g id="edge15" class="edge"><title>src/app/routes.ts&#45;&gt;src/admin/index.ts</title>
<path fill="none" stroke="black" d="M391.202,-130.693C399.056,-128.781 407.343,-125.763 414,-121 427.032,-111.675 422.736,-102.397 434,-91 443.73,-81.1554 456.205,-72.2385 467.135,-65.3351"/>
<polygon fill="black" stroke="black" points="469.13,-68.2185 475.857,-60.0337 465.494,-62.2366 469.13,-68.2185"/>
</g>
<!-- src/app/routes.ts&#45;&gt;src/auth/index.ts -->
<g id="edge16" class="edge"><title>src/app/routes.ts&#45;&gt;src/auth/index.ts</title>
<path fill="none" stroke="black" d="M369.206,-143.006C378.556,-162.263 402.733,-208.042 434,-237 442.234,-244.626 452.545,-251.182 462.207,-256.395"/>
<polygon fill="black" stroke="black" points="460.685,-259.547 471.184,-260.972 463.865,-253.311 460.685,-259.547"/>
</g>
<!-- src/home/index.ts -->
<g id="node23" class="node"><title>src/home/index.ts</title>
<g id="a_node23"><a xlink:href="src/home/index.ts" xlink:title="index.ts">
<path fill="#ffffcc" stroke="black" d="M514.5,-150C514.5,-150 472.5,-150 472.5,-150 469.5,-150 466.5,-147 466.5,-144 466.5,-144 466.5,-138 466.5,-138 466.5,-135 469.5,-132 472.5,-132 472.5,-132 514.5,-132 514.5,-132 517.5,-132 520.5,-135 520.5,-138 520.5,-138 520.5,-144 520.5,-144 520.5,-147 517.5,-150 514.5,-150"/>
<text text-anchor="middle" x="493.5" y="-138.8" font-family="Helvetica,sans-Serif" font-size="9.00">index.ts</text>
</a>
</g>
</g>
<!-- src/app/routes.ts&#45;&gt;src/home/index.ts -->
<g id="edge17" class="edge"><title>src/app/routes.ts&#45;&gt;src/home/index.ts</title>
<path fill="none" stroke="black" d="M391.109,-135.433C409.931,-136.467 435.574,-137.875 456.362,-139.016"/>
<polygon fill="black" stroke="black" points="456.249,-142.515 466.426,-139.568 456.633,-135.525 456.249,-142.515"/>
</g>
<!-- src/auth/auth.action.ts -->
<g id="node10" class="node"><title>src/auth/auth.action.ts</title>
<g id="a_node10"><a xlink:href="src/auth/auth.action.ts" xlink:title="auth.action.ts">
<path fill="#ffffcc" stroke="black" d="M781.5,-290C781.5,-290 722.5,-290 722.5,-290 719.5,-290 716.5,-287 716.5,-284 716.5,-284 716.5,-278 716.5,-278 716.5,-275 719.5,-272 722.5,-272 722.5,-272 781.5,-272 781.5,-272 784.5,-272 787.5,-275 787.5,-278 787.5,-278 787.5,-284 787.5,-284 787.5,-287 784.5,-290 781.5,-290"/>
<text text-anchor="middle" x="752" y="-278.8" font-family="Helvetica,sans-Serif" font-size="9.00">auth.action.ts</text>
</a>
</g>
</g>
<!-- src/auth/auth.domain.ts -->
<g id="node11" class="node"><title>src/auth/auth.domain.ts</title>
<g id="a_node11"><a xlink:href="src/auth/auth.domain.ts" xlink:title="auth.domain.ts">
<path fill="#ffffcc" stroke="black" d="M785,-323C785,-323 719,-323 719,-323 716,-323 713,-320 713,-317 713,-317 713,-311 713,-311 713,-308 716,-305 719,-305 719,-305 785,-305 785,-305 788,-305 791,-308 791,-311 791,-311 791,-317 791,-317 791,-320 788,-323 785,-323"/>
<text text-anchor="middle" x="752" y="-311.8" font-family="Helvetica,sans-Serif" font-size="9.00">auth.domain.ts</text>
</a>
</g>
</g>
<!-- src/auth/auth.reducer.ts -->
<g id="node12" class="node"><title>src/auth/auth.reducer.ts</title>
<g id="a_node12"><a xlink:href="src/auth/auth.reducer.ts" xlink:title="auth.reducer.ts">
<path fill="#ffffcc" stroke="black" d="M654,-268C654,-268 588,-268 588,-268 585,-268 582,-265 582,-262 582,-262 582,-256 582,-256 582,-253 585,-250 588,-250 588,-250 654,-250 654,-250 657,-250 660,-253 660,-256 660,-256 660,-262 660,-262 660,-265 657,-268 654,-268"/>
<text text-anchor="middle" x="621" y="-256.8" font-family="Helvetica,sans-Serif" font-size="9.00">auth.reducer.ts</text>
</a>
</g>
</g>
<!-- src/auth/auth.reducer.ts&#45;&gt;src/auth/auth.action.ts -->
<g id="edge18" class="edge"><title>src/auth/auth.reducer.ts&#45;&gt;src/auth/auth.action.ts</title>
<path fill="none" stroke="black" d="M660.007,-265.482C674.499,-267.953 691.151,-270.793 706.216,-273.362"/>
<polygon fill="black" stroke="black" points="705.899,-276.859 716.346,-275.09 707.076,-269.959 705.899,-276.859"/>
</g>
<!-- src/auth/auth.saga.ts -->
<g id="node13" class="node"><title>src/auth/auth.saga.ts</title>
<g id="a_node13"><a xlink:href="src/auth/auth.saga.ts" xlink:title="auth.saga.ts">
<path fill="#ffffcc" stroke="black" d="M649,-326C649,-326 593,-326 593,-326 590,-326 587,-323 587,-320 587,-320 587,-314 587,-314 587,-311 590,-308 593,-308 593,-308 649,-308 649,-308 652,-308 655,-311 655,-314 655,-314 655,-320 655,-320 655,-323 652,-326 649,-326"/>
<text text-anchor="middle" x="621" y="-314.8" font-family="Helvetica,sans-Serif" font-size="9.00">auth.saga.ts</text>
</a>
</g>
</g>
<!-- src/auth/auth.saga.ts&#45;&gt;src/auth/auth.action.ts -->
<g id="edge19" class="edge"><title>src/auth/auth.saga.ts&#45;&gt;src/auth/auth.action.ts</title>
<path fill="none" stroke="black" d="M654.552,-307.916C670.899,-303.354 690.909,-297.77 708.457,-292.872"/>
<polygon fill="black" stroke="black" points="709.767,-296.141 718.458,-290.081 707.885,-289.398 709.767,-296.141"/>
</g>
<!-- src/auth/auth.saga.ts&#45;&gt;src/auth/auth.domain.ts -->
<g id="edge20" class="edge"><title>src/auth/auth.saga.ts&#45;&gt;src/auth/auth.domain.ts</title>
<path fill="none" stroke="black" d="M655.221,-316.227C669.673,-315.891 686.889,-315.491 702.714,-315.123"/>
<polygon fill="black" stroke="black" points="702.952,-318.618 712.868,-314.887 702.79,-311.62 702.952,-318.618"/>
</g>
<!-- src/auth/index.ts&#45;&gt;src/auth/auth.action.ts -->
<g id="edge21" class="edge"><title>src/auth/index.ts&#45;&gt;src/auth/auth.action.ts</title>
<path fill="none" stroke="black" d="M520.617,-271.242C537.778,-272.05 560.724,-273.114 581,-274 623.523,-275.859 672.036,-277.843 706.323,-279.222"/>
<polygon fill="black" stroke="black" points="706.353,-282.726 716.485,-279.63 706.633,-275.732 706.353,-282.726"/>
</g>
<!-- src/auth/index.ts&#45;&gt;src/auth/auth.domain.ts -->
<g id="edge22" class="edge"><title>src/auth/index.ts&#45;&gt;src/auth/auth.domain.ts</title>
<path fill="none" stroke="black" d="M520.506,-274.461C563.222,-281.789 648.878,-296.482 702.89,-305.747"/>
<polygon fill="black" stroke="black" points="702.471,-309.226 712.918,-307.467 703.654,-302.327 702.471,-309.226"/>
</g>
<!-- src/auth/index.ts&#45;&gt;src/auth/auth.reducer.ts -->
<g id="edge23" class="edge"><title>src/auth/index.ts&#45;&gt;src/auth/auth.reducer.ts</title>
<path fill="none" stroke="black" d="M520.504,-267.721C535.268,-266.427 554.223,-264.765 571.62,-263.24"/>
<polygon fill="black" stroke="black" points="571.984,-266.722 581.64,-262.362 571.372,-259.749 571.984,-266.722"/>
</g>
<!-- src/auth/index.ts&#45;&gt;src/auth/auth.saga.ts -->
<g id="edge24" class="edge"><title>src/auth/index.ts&#45;&gt;src/auth/auth.saga.ts</title>
<path fill="none" stroke="black" d="M518.698,-279.062C537.883,-286.247 564.917,-296.371 586.233,-304.354"/>
<polygon fill="black" stroke="black" points="585.284,-307.736 595.877,-307.966 587.739,-301.181 585.284,-307.736"/>
</g>
<!-- src/home/Home.spec.tsx -->
<g id="node16" class="node"><title>src/home/Home.spec.tsx</title>
<g id="a_node16"><a xlink:href="src/home/Home.spec.tsx" xlink:title="Home.spec.tsx">
<path fill="#ffffcc" stroke="black" d="M526.5,-120C526.5,-120 460.5,-120 460.5,-120 457.5,-120 454.5,-117 454.5,-114 454.5,-114 454.5,-108 454.5,-108 454.5,-105 457.5,-102 460.5,-102 460.5,-102 526.5,-102 526.5,-102 529.5,-102 532.5,-105 532.5,-108 532.5,-108 532.5,-114 532.5,-114 532.5,-117 529.5,-120 526.5,-120"/>
<text text-anchor="middle" x="493.5" y="-108.8" font-family="Helvetica,sans-Serif" font-size="9.00">Home.spec.tsx</text>
</a>
</g>
</g>
<!-- src/home/Home.tsx -->
<g id="node17" class="node"><title>src/home/Home.tsx</title>
<g id="a_node17"><a xlink:href="src/home/Home.tsx" xlink:title="Home.tsx">
<path fill="#ffffcc" stroke="black" d="M643,-134C643,-134 599,-134 599,-134 596,-134 593,-131 593,-128 593,-128 593,-122 593,-122 593,-119 596,-116 599,-116 599,-116 643,-116 643,-116 646,-116 649,-119 649,-122 649,-122 649,-128 649,-128 649,-131 646,-134 643,-134"/>
<text text-anchor="middle" x="621" y="-122.8" font-family="Helvetica,sans-Serif" font-size="9.00">Home.tsx</text>
</a>
</g>
</g>
<!-- src/home/Home.spec.tsx&#45;&gt;src/home/Home.tsx -->
<g id="edge25" class="edge"><title>src/home/Home.spec.tsx&#45;&gt;src/home/Home.tsx</title>
<path fill="none" stroke="black" d="M532.836,-115.277C548.532,-117.028 566.643,-119.048 582.276,-120.792"/>
<polygon fill="black" stroke="black" points="582.316,-124.318 592.643,-121.948 583.092,-117.361 582.316,-124.318"/>
</g>
<!-- src/home/home.action.ts -->
<g id="node18" class="node"><title>src/home/home.action.ts</title>
<g id="a_node18"><a xlink:href="src/home/home.action.ts" xlink:title="home.action.ts">
<path fill="#ffffcc" stroke="black" d="M784.5,-156C784.5,-156 719.5,-156 719.5,-156 716.5,-156 713.5,-153 713.5,-150 713.5,-150 713.5,-144 713.5,-144 713.5,-141 716.5,-138 719.5,-138 719.5,-138 784.5,-138 784.5,-138 787.5,-138 790.5,-141 790.5,-144 790.5,-144 790.5,-150 790.5,-150 790.5,-153 787.5,-156 784.5,-156"/>
<text text-anchor="middle" x="752" y="-144.8" font-family="Helvetica,sans-Serif" font-size="9.00">home.action.ts</text>
</a>
</g>
</g>
<!-- src/home/Home.tsx&#45;&gt;src/home/home.action.ts -->
<g id="edge26" class="edge"><title>src/home/Home.tsx&#45;&gt;src/home/home.action.ts</title>
<path fill="none" stroke="black" d="M649.043,-129.612C664.752,-132.291 684.997,-135.744 703.301,-138.865"/>
<polygon fill="black" stroke="black" points="702.784,-142.328 713.23,-140.559 703.961,-135.427 702.784,-142.328"/>
</g>
<!-- src/home/home.worker&#45;factory.ts -->
<g id="node20" class="node"><title>src/home/home.worker&#45;factory.ts</title>
<g id="a_node20"><a xlink:href="src/home/home.worker-factory.ts" xlink:title="home.worker&#45;factory.ts">
<path fill="#ffffcc" stroke="black" d="M801,-123C801,-123 703,-123 703,-123 700,-123 697,-120 697,-117 697,-117 697,-111 697,-111 697,-108 700,-105 703,-105 703,-105 801,-105 801,-105 804,-105 807,-108 807,-111 807,-111 807,-117 807,-117 807,-120 804,-123 801,-123"/>
<text text-anchor="middle" x="752" y="-111.8" font-family="Helvetica,sans-Serif" font-size="9.00">home.worker&#45;factory.ts</text>
</a>
</g>
</g>
<!-- src/home/Home.tsx&#45;&gt;src/home/home.worker&#45;factory.ts -->
<g id="edge27" class="edge"><title>src/home/Home.tsx&#45;&gt;src/home/home.worker&#45;factory.ts</title>
<path fill="none" stroke="black" d="M649.043,-122.694C660.111,-121.75 673.431,-120.614 686.738,-119.48"/>
<polygon fill="black" stroke="black" points="687.207,-122.953 696.874,-118.615 686.612,-115.978 687.207,-122.953"/>
</g>
<!-- src/home/home.saga.ts -->
<g id="node19" class="node"><title>src/home/home.saga.ts</title>
<g id="a_node19"><a xlink:href="src/home/home.saga.ts" xlink:title="home.saga.ts">
<path fill="#ffffcc" stroke="black" d="M652,-208C652,-208 590,-208 590,-208 587,-208 584,-205 584,-202 584,-202 584,-196 584,-196 584,-193 587,-190 590,-190 590,-190 652,-190 652,-190 655,-190 658,-193 658,-196 658,-196 658,-202 658,-202 658,-205 655,-208 652,-208"/>
<text text-anchor="middle" x="621" y="-196.8" font-family="Helvetica,sans-Serif" font-size="9.00">home.saga.ts</text>
</a>
</g>
</g>
<!-- src/home/home.saga.ts&#45;&gt;src/home/home.action.ts -->
<g id="edge28" class="edge"><title>src/home/home.saga.ts&#45;&gt;src/home/home.action.ts</title>
<path fill="none" stroke="black" d="M645.959,-189.884C650.939,-187.962 656.147,-185.931 661,-184 680.552,-176.222 702.383,-167.254 719.648,-160.095"/>
<polygon fill="black" stroke="black" points="721.342,-163.181 729.233,-156.112 718.655,-156.717 721.342,-163.181"/>
</g>
<!-- src/home/home.worker.js -->
<g id="node21" class="node"><title>src/home/home.worker.js</title>
<g id="a_node21"><a xlink:href="src/home/home.worker.js" xlink:title="home.worker.js">
<path fill="#ffffcc" stroke="black" d="M655,-178C655,-178 587,-178 587,-178 584,-178 581,-175 581,-172 581,-172 581,-166 581,-166 581,-163 584,-160 587,-160 587,-160 655,-160 655,-160 658,-160 661,-163 661,-166 661,-166 661,-172 661,-172 661,-175 658,-178 655,-178"/>
<text text-anchor="middle" x="621" y="-166.8" font-family="Helvetica,sans-Serif" font-size="9.00">home.worker.js</text>
</a>
</g>
</g>
<!-- src/home/home.worker.spec.ts -->
<g id="node22" class="node"><title>src/home/home.worker.spec.ts</title>
<g id="a_node22"><a xlink:href="src/home/home.worker.spec.ts" xlink:title="home.worker.spec.ts">
<path fill="#ffffcc" stroke="black" d="M539,-180C539,-180 448,-180 448,-180 445,-180 442,-177 442,-174 442,-174 442,-168 442,-168 442,-165 445,-162 448,-162 448,-162 539,-162 539,-162 542,-162 545,-165 545,-168 545,-168 545,-174 545,-174 545,-177 542,-180 539,-180"/>
<text text-anchor="middle" x="493.5" y="-168.8" font-family="Helvetica,sans-Serif" font-size="9.00">home.worker.spec.ts</text>
</a>
</g>
</g>
<!-- src/home/home.worker.spec.ts&#45;&gt;src/home/home.worker.js -->
<g id="edge29" class="edge"><title>src/home/home.worker.spec.ts&#45;&gt;src/home/home.worker.js</title>
<path fill="none" stroke="black" d="M545.184,-170.192C553.599,-170.058 562.316,-169.919 570.696,-169.786"/>
<polygon fill="black" stroke="black" points="570.766,-173.285 580.709,-169.626 570.655,-166.286 570.766,-173.285"/>
</g>
<!-- src/home/index.ts&#45;&gt;src/home/Home.tsx -->
<g id="edge30" class="edge"><title>src/home/index.ts&#45;&gt;src/home/Home.tsx</title>
<path fill="none" stroke="black" d="M520.504,-137.685C538.479,-135.393 562.665,-132.31 582.69,-129.757"/>
<polygon fill="black" stroke="black" points="583.25,-133.214 592.727,-128.477 582.365,-126.27 583.25,-133.214"/>
</g>
<!-- src/home/index.ts&#45;&gt;src/home/home.action.ts -->
<g id="edge31" class="edge"><title>src/home/index.ts&#45;&gt;src/home/home.action.ts</title>
<path fill="none" stroke="black" d="M520.506,-141.608C563.341,-142.61 649.358,-144.622 703.343,-145.885"/>
<polygon fill="black" stroke="black" points="703.282,-149.385 713.361,-146.12 703.446,-142.387 703.282,-149.385"/>
</g>
<!-- src/home/index.ts&#45;&gt;src/home/home.saga.ts -->
<g id="edge32" class="edge"><title>src/home/index.ts&#45;&gt;src/home/home.saga.ts</title>
<path fill="none" stroke="black" d="M520.648,-146.769C528.702,-149.068 537.435,-152.111 545,-156 563.027,-165.268 563.35,-174.032 581,-184 581.947,-184.535 582.918,-185.059 583.905,-185.571"/>
<polygon fill="black" stroke="black" points="582.545,-188.799 593.088,-189.85 585.502,-182.454 582.545,-188.799"/>
</g>
<!-- src/home/index.ts&#45;&gt;src/home/home.worker&#45;factory.ts -->
<g id="edge33" class="edge"><title>src/home/index.ts&#45;&gt;src/home/home.worker&#45;factory.ts</title>
<path fill="none" stroke="black" d="M520.662,-133.929C528.554,-131.609 537.192,-128.881 545,-126 561.427,-119.939 563.872,-113.635 581,-110 615.398,-102.7 654.588,-103.059 686.665,-105.53"/>
<polygon fill="black" stroke="black" points="686.552,-109.033 696.814,-106.4 687.15,-102.059 686.552,-109.033"/>
</g>
<!-- src/index.ts -->
<g id="node24" class="node"><title>src/index.ts</title>
<g id="a_node24"><a xlink:href="src/index.ts" xlink:title="index.ts">
<path fill="#ffffcc" stroke="black" d="M64,-308C64,-308 22,-308 22,-308 19,-308 16,-305 16,-302 16,-302 16,-296 16,-296 16,-293 19,-290 22,-290 22,-290 64,-290 64,-290 67,-290 70,-293 70,-296 70,-296 70,-302 70,-302 70,-305 67,-308 64,-308"/>
<text text-anchor="middle" x="43" y="-296.8" font-family="Helvetica,sans-Serif" font-size="9.00">index.ts</text>
</a>
</g>
</g>
<!-- src/root/root.tsx -->
<g id="node34" class="node"><title>src/root/root.tsx</title>
<g id="a_node34"><a xlink:href="src/root/root.tsx" xlink:title="root.tsx">
<path fill="#ffffcc" stroke="black" d="M161,-308C161,-308 119,-308 119,-308 116,-308 113,-305 113,-302 113,-302 113,-296 113,-296 113,-293 116,-290 119,-290 119,-290 161,-290 161,-290 164,-290 167,-293 167,-296 167,-296 167,-302 167,-302 167,-305 164,-308 161,-308"/>
<text text-anchor="middle" x="140" y="-296.8" font-family="Helvetica,sans-Serif" font-size="9.00">root.tsx</text>
</a>
</g>
</g>
<!-- src/index.ts&#45;&gt;src/root/root.tsx -->
<g id="edge34" class="edge"><title>src/index.ts&#45;&gt;src/root/root.tsx</title>
<path fill="none" stroke="black" d="M70.2106,-299C80.2826,-299 91.9647,-299 102.811,-299"/>
<polygon fill="black" stroke="black" points="102.875,-302.5 112.875,-299 102.875,-295.5 102.875,-302.5"/>
</g>
<!-- src/menu/Menu.tsx&#45;&gt;src/auth/index.ts -->
<g id="edge35" class="edge"><title>src/menu/Menu.tsx&#45;&gt;src/auth/index.ts</title>
<path fill="none" stroke="black" d="M389.907,-363.984C397.947,-360.518 406.67,-356.14 414,-351 440.18,-332.642 464.899,-304.751 479.37,-286.955"/>
<polygon fill="black" stroke="black" points="482.121,-289.119 485.612,-279.116 476.645,-284.758 482.121,-289.119"/>
</g>
<!-- src/menu/index.ts -->
<g id="node26" class="node"><title>src/menu/index.ts</title>
<g id="a_node26"><a xlink:href="src/menu/index.ts" xlink:title="index.ts">
<path fill="#ffffcc" stroke="black" d="M269,-397C269,-397 227,-397 227,-397 224,-397 221,-394 221,-391 221,-391 221,-385 221,-385 221,-382 224,-379 227,-379 227,-379 269,-379 269,-379 272,-379 275,-382 275,-385 275,-385 275,-391 275,-391 275,-394 272,-397 269,-397"/>
<text text-anchor="middle" x="248" y="-385.8" font-family="Helvetica,sans-Serif" font-size="9.00">index.ts</text>
</a>
</g>
</g>
<!-- src/menu/index.ts&#45;&gt;src/menu/Menu.tsx -->
<g id="edge36" class="edge"><title>src/menu/index.ts&#45;&gt;src/menu/Menu.tsx</title>
<path fill="none" stroke="black" d="M275.154,-384.559C290.505,-382.539 310.128,-379.957 326.932,-377.746"/>
<polygon fill="black" stroke="black" points="327.51,-381.2 336.968,-376.425 326.597,-374.26 327.51,-381.2"/>
</g>
<!-- src/menu/menu.domain.ts -->
<g id="node27" class="node"><title>src/menu/menu.domain.ts</title>
<g id="a_node27"><a xlink:href="src/menu/menu.domain.ts" xlink:title="menu.domain.ts">
<path fill="#ffffcc" stroke="black" d="M400,-412C400,-412 328,-412 328,-412 325,-412 322,-409 322,-406 322,-406 322,-400 322,-400 322,-397 325,-394 328,-394 328,-394 400,-394 400,-394 403,-394 406,-397 406,-400 406,-400 406,-406 406,-406 406,-409 403,-412 400,-412"/>
<text text-anchor="middle" x="364" y="-400.8" font-family="Helvetica,sans-Serif" font-size="9.00">menu.domain.ts</text>
</a>
</g>
</g>
<!-- src/menu/index.ts&#45;&gt;src/menu/menu.domain.ts -->
<g id="edge37" class="edge"><title>src/menu/index.ts&#45;&gt;src/menu/menu.domain.ts</title>
<path fill="none" stroke="black" d="M275.154,-391.441C286.047,-392.875 299.09,-394.591 311.751,-396.257"/>
<polygon fill="black" stroke="black" points="311.403,-399.741 321.774,-397.576 312.316,-392.801 311.403,-399.741"/>
</g>
<!-- src/root/root.domain.ts -->
<g id="node29" class="node"><title>src/root/root.domain.ts</title>
<g id="a_node29"><a xlink:href="src/root/root.domain.ts" xlink:title="root.domain.ts">
<path fill="#ffffcc" stroke="black" d="M280,-262C280,-262 216,-262 216,-262 213,-262 210,-259 210,-256 210,-256 210,-250 210,-250 210,-247 213,-244 216,-244 216,-244 280,-244 280,-244 283,-244 286,-247 286,-250 286,-250 286,-256 286,-256 286,-259 283,-262 280,-262"/>
<text text-anchor="middle" x="248" y="-250.8" font-family="Helvetica,sans-Serif" font-size="9.00">root.domain.ts</text>
</a>
</g>
</g>
<!-- src/root/index.ts&#45;&gt;src/root/root.domain.ts -->
<g id="edge38" class="edge"><title>src/root/index.ts&#45;&gt;src/root/root.domain.ts</title>
<path fill="none" stroke="black" d="M167.202,-242.461C177.059,-243.763 188.595,-245.286 199.782,-246.764"/>
<polygon fill="black" stroke="black" points="199.529,-250.26 209.901,-248.1 200.445,-243.321 199.529,-250.26"/>
</g>
<!-- src/root/root.reducer.ts -->
<g id="node30" class="node"><title>src/root/root.reducer.ts</title>
<g id="a_node30"><a xlink:href="src/root/root.reducer.ts" xlink:title="root.reducer.ts">
<path fill="#ffffcc" stroke="black" d="M396,-269C396,-269 332,-269 332,-269 329,-269 326,-266 326,-263 326,-263 326,-257 326,-257 326,-254 329,-251 332,-251 332,-251 396,-251 396,-251 399,-251 402,-254 402,-257 402,-257 402,-263 402,-263 402,-266 399,-269 396,-269"/>
<text text-anchor="middle" x="364" y="-257.8" font-family="Helvetica,sans-Serif" font-size="9.00">root.reducer.ts</text>
</a>
</g>
</g>
<!-- src/root/index.ts&#45;&gt;src/root/root.reducer.ts -->
<g id="edge39" class="edge"><title>src/root/index.ts&#45;&gt;src/root/root.reducer.ts</title>
<path fill="none" stroke="black" d="M167.082,-236.547C196.226,-234.332 244.739,-232.221 286,-238 300.154,-239.982 315.356,-243.92 328.483,-247.923"/>
<polygon fill="black" stroke="black" points="327.475,-251.275 338.065,-250.966 329.593,-244.603 327.475,-251.275"/>
</g>
<!-- src/root/root.saga.ts -->
<g id="node31" class="node"><title>src/root/root.saga.ts</title>
<g id="a_node31"><a xlink:href="src/root/root.saga.ts" xlink:title="root.saga.ts">
<path fill="#ffffcc" stroke="black" d="M274.5,-322C274.5,-322 221.5,-322 221.5,-322 218.5,-322 215.5,-319 215.5,-316 215.5,-316 215.5,-310 215.5,-310 215.5,-307 218.5,-304 221.5,-304 221.5,-304 274.5,-304 274.5,-304 277.5,-304 280.5,-307 280.5,-310 280.5,-310 280.5,-316 280.5,-316 280.5,-319 277.5,-322 274.5,-322"/>
<text text-anchor="middle" x="248" y="-310.8" font-family="Helvetica,sans-Serif" font-size="9.00">root.saga.ts</text>
</a>
</g>
</g>
<!-- src/root/index.ts&#45;&gt;src/root/root.saga.ts -->
<g id="edge40" class="edge"><title>src/root/index.ts&#45;&gt;src/root/root.saga.ts</title>
<path fill="none" stroke="black" d="M164.494,-248.044C167.831,-249.787 171.107,-251.774 174,-254 194.025,-269.409 189.66,-283.01 210,-298 210.377,-298.278 210.759,-298.551 211.147,-298.82"/>
<polygon fill="black" stroke="black" points="209.464,-301.89 219.872,-303.868 212.97,-295.831 209.464,-301.89"/>
</g>
<!-- src/root/root.store.ts -->
<g id="node33" class="node"><title>src/root/root.store.ts</title>
<g id="a_node33"><a xlink:href="src/root/root.store.ts" xlink:title="root.store.ts">
<path fill="#ffffcc" stroke="black" d="M274.5,-292C274.5,-292 221.5,-292 221.5,-292 218.5,-292 215.5,-289 215.5,-286 215.5,-286 215.5,-280 215.5,-280 215.5,-277 218.5,-274 221.5,-274 221.5,-274 274.5,-274 274.5,-274 277.5,-274 280.5,-277 280.5,-280 280.5,-280 280.5,-286 280.5,-286 280.5,-289 277.5,-292 274.5,-292"/>
<text text-anchor="middle" x="248" y="-280.8" font-family="Helvetica,sans-Serif" font-size="9.00">root.store.ts</text>
</a>
</g>
</g>
<!-- src/root/index.ts&#45;&gt;src/root/root.store.ts -->
<g id="edge41" class="edge"><title>src/root/index.ts&#45;&gt;src/root/root.store.ts</title>
<path fill="none" stroke="black" d="M162.416,-248.084C176.025,-253.835 194.025,-261.405 210,-268 211.586,-268.655 213.211,-269.323 214.852,-269.996"/>
<polygon fill="black" stroke="black" points="213.702,-273.307 224.283,-273.844 216.346,-266.825 213.702,-273.307"/>
</g>
<!-- src/root/root.reducer.ts&#45;&gt;src/app/index.ts -->
<g id="edge42" class="edge"><title>src/root/root.reducer.ts&#45;&gt;src/app/index.ts</title>
<path fill="none" stroke="black" d="M341.706,-250.837C312.14,-238.11 256.986,-214.349 210,-194 197.231,-188.47 183.142,-182.348 171.042,-177.084"/>
<polygon fill="black" stroke="black" points="172.393,-173.855 161.827,-173.074 169.6,-180.274 172.393,-173.855"/>
</g>
<!-- src/root/root.reducer.ts&#45;&gt;src/auth/index.ts -->
<g id="edge43" class="edge"><title>src/root/root.reducer.ts&#45;&gt;src/auth/index.ts</title>
<path fill="none" stroke="black" d="M402.221,-262.919C419.264,-264.256 439.387,-265.834 456.304,-267.161"/>
<polygon fill="black" stroke="black" points="456.124,-270.658 466.367,-267.95 456.671,-263.679 456.124,-270.658"/>
</g>
<!-- src/root/root.saga.ts&#45;&gt;src/auth/auth.saga.ts -->
<g id="edge44" class="edge"><title>src/root/root.saga.ts&#45;&gt;src/auth/auth.saga.ts</title>
<path fill="none" stroke="black" d="M273.406,-322.011C287.468,-326.953 305.563,-332.892 322,-337 362.264,-347.063 375.104,-338.523 414,-353 423.715,-356.616 424.01,-362.233 434,-365 481.543,-378.169 497.652,-378.854 545,-365 566.379,-358.744 587.453,-344.324 601.791,-332.911"/>
<polygon fill="black" stroke="black" points="604.316,-335.365 609.791,-326.294 599.854,-329.971 604.316,-335.365"/>
</g>
<!-- src/root/root.saga.ts&#45;&gt;src/home/home.saga.ts -->
<g id="edge45" class="edge"><title>src/root/root.saga.ts&#45;&gt;src/home/home.saga.ts</title>
<path fill="none" stroke="black" d="M280.546,-312.726C314.866,-313.554 370.628,-318.243 414,-338 424.617,-342.836 423.05,-350.975 434,-355 457.152,-363.51 525.141,-369.63 545,-355 588.461,-322.982 553.393,-285.388 581,-239 586.205,-230.254 593.696,-221.957 600.724,-215.21"/>
<polygon fill="black" stroke="black" points="603.542,-217.38 608.597,-208.069 598.839,-212.195 603.542,-217.38"/>
</g>
<!-- src/root/root.spec.tsx -->
<g id="node32" class="node"><title>src/root/root.spec.tsx</title>
<g id="a_node32"><a xlink:href="src/root/root.spec.tsx" xlink:title="root.spec.tsx">
<path fill="#ffffcc" stroke="black" d="M168,-278C168,-278 112,-278 112,-278 109,-278 106,-275 106,-272 106,-272 106,-266 106,-266 106,-263 109,-260 112,-260 112,-260 168,-260 168,-260 171,-260 174,-263 174,-266 174,-266 174,-272 174,-272 174,-275 171,-278 168,-278"/>
<text text-anchor="middle" x="140" y="-266.8" font-family="Helvetica,sans-Serif" font-size="9.00">root.spec.tsx</text>
</a>
</g>
</g>
<!-- src/root/root.store.ts&#45;&gt;src/root/root.reducer.ts -->
<g id="edge46" class="edge"><title>src/root/root.store.ts&#45;&gt;src/root/root.reducer.ts</title>
<path fill="none" stroke="black" d="M280.755,-276.593C291.558,-274.414 303.877,-271.928 315.632,-269.557"/>
<polygon fill="black" stroke="black" points="316.656,-272.921 325.766,-267.512 315.271,-266.059 316.656,-272.921"/>
</g>
<!-- src/root/root.tsx&#45;&gt;src/app/App.tsx -->
<g id="edge47" class="edge"><title>src/root/root.tsx&#45;&gt;src/app/App.tsx</title>
<path fill="none" stroke="black" d="M165.889,-289.836C168.807,-288.158 171.596,-286.221 174,-284 198.257,-261.591 190.648,-245.759 210,-219 215.897,-210.846 223.282,-202.562 229.9,-195.664"/>
<polygon fill="black" stroke="black" points="232.643,-197.867 237.181,-188.293 227.663,-192.947 232.643,-197.867"/>
</g>
<!-- src/root/root.tsx&#45;&gt;src/root/root.saga.ts -->
<g id="edge48" class="edge"><title>src/root/root.tsx&#45;&gt;src/root/root.saga.ts</title>
<path fill="none" stroke="black" d="M167.202,-302.461C178.716,-303.981 192.519,-305.804 205.383,-307.503"/>
<polygon fill="black" stroke="black" points="205.064,-310.992 215.436,-308.831 205.981,-304.052 205.064,-310.992"/>
</g>
<!-- src/root/root.tsx&#45;&gt;src/root/root.store.ts -->
<g id="edge49" class="edge"><title>src/root/root.tsx&#45;&gt;src/root/root.store.ts</title>
<path fill="none" stroke="black" d="M167.202,-295.045C178.716,-293.307 192.519,-291.224 205.383,-289.282"/>
<polygon fill="black" stroke="black" points="206.071,-292.718 215.436,-287.764 205.026,-285.796 206.071,-292.718"/>
</g>
</g>
</svg>
