<?xml version="1.0" encoding="UTF-8" standalone="no"?>
<!DOCTYPE svg PUBLIC "-//W3C//DTD SVG 1.1//EN"
 "http://www.w3.org/Graphics/SVG/1.1/DTD/svg11.dtd">
<!-- Generated by graphviz version 2.38.0 (20140413.2041)
 -->
<!-- Title: dependency&#45;cruiser output Pages: 1 -->
<svg width="727pt" height="532pt"
 viewBox="0.00 0.00 727.00 532.00" xmlns="http://www.w3.org/2000/svg" xmlns:xlink="http://www.w3.org/1999/xlink">
<g id="graph0" class="graph" transform="scale(1 1) rotate(0) translate(4 528)">
<title>dependency&#45;cruiser output</title>
<polygon fill="white" stroke="none" points="-4,4 -4,-528 723,-528 723,4 -4,4"/>
<g id="clust1" class="cluster"><title>cluster_/src</title>
<path fill="none" stroke="black" stroke-width="2" d="M20,-26C20,-26 699,-26 699,-26 705,-26 711,-32 711,-38 711,-38 711,-504 711,-504 711,-510 705,-516 699,-516 699,-516 20,-516 20,-516 14,-516 8,-510 8,-504 8,-504 8,-38 8,-38 8,-32 14,-26 20,-26"/>
<text text-anchor="middle" x="359.5" y="-504.8" font-family="Helvetica,sans-Serif" font-weight="bold" font-size="9.00">src</text>
</g>
<g id="clust2" class="cluster"><title>cluster_/src/admin</title>
<path fill="none" stroke="black" stroke-width="2" d="M485,-84C485,-84 533,-84 533,-84 539,-84 545,-90 545,-96 545,-96 545,-124 545,-124 545,-130 539,-136 533,-136 533,-136 485,-136 485,-136 479,-136 473,-130 473,-124 473,-124 473,-96 473,-96 473,-90 479,-84 485,-84"/>
<text text-anchor="middle" x="509" y="-124.8" font-family="Helvetica,sans-Serif" font-weight="bold" font-size="9.00">admin</text>
</g>
<g id="clust3" class="cluster"><title>cluster_/src/app</title>
<path fill="none" stroke="black" stroke-width="2" d="M110,-34C110,-34 404.5,-34 404.5,-34 410.5,-34 416.5,-40 416.5,-46 416.5,-46 416.5,-134 416.5,-134 416.5,-140 410.5,-146 404.5,-146 404.5,-146 110,-146 110,-146 104,-146 98,-140 98,-134 98,-134 98,-46 98,-46 98,-40 104,-34 110,-34"/>
<text text-anchor="middle" x="257.25" y="-134.8" font-family="Helvetica,sans-Serif" font-weight="bold" font-size="9.00">app</text>
</g>
<g id="clust4" class="cluster"><title>cluster_/src/auth</title>
<path fill="none" stroke="black" stroke-width="2" d="M474,-274C474,-274 675,-274 675,-274 681,-274 687,-280 687,-286 687,-286 687,-344 687,-344 687,-350 681,-356 675,-356 675,-356 474,-356 474,-356 468,-356 462,-350 462,-344 462,-344 462,-286 462,-286 462,-280 468,-274 474,-274"/>
<text text-anchor="middle" x="574.5" y="-344.8" font-family="Helvetica,sans-Serif" font-weight="bold" font-size="9.00">auth</text>
</g>
<g id="clust5" class="cluster"><title>cluster_/src/home</title>
<path fill="none" stroke="black" stroke-width="2" d="M334,-154C334,-154 691,-154 691,-154 697,-154 703,-160 703,-166 703,-166 703,-254 703,-254 703,-260 697,-266 691,-266 691,-266 334,-266 334,-266 328,-266 322,-260 322,-254 322,-254 322,-166 322,-166 322,-160 328,-154 334,-154"/>
<text text-anchor="middle" x="512.5" y="-254.8" font-family="Helvetica,sans-Serif" font-weight="bold" font-size="9.00">home</text>
</g>
<g id="clust6" class="cluster"><title>cluster_/src/menu</title>
<path fill="none" stroke="black" stroke-width="2" d="M343.5,-408C343.5,-408 419.5,-408 419.5,-408 425.5,-408 431.5,-414 431.5,-420 431.5,-420 431.5,-478 431.5,-478 431.5,-484 425.5,-490 419.5,-490 419.5,-490 343.5,-490 343.5,-490 337.5,-490 331.5,-484 331.5,-478 331.5,-478 331.5,-420 331.5,-420 331.5,-414 337.5,-408 343.5,-408"/>
<text text-anchor="middle" x="381.5" y="-478.8" font-family="Helvetica,sans-Serif" font-weight="bold" font-size="9.00">menu</text>
</g>
<g id="clust7" class="cluster"><title>cluster_/src/root</title>
<path fill="none" stroke="black" stroke-width="2" d="M114,-274C114,-274 415.5,-274 415.5,-274 421.5,-274 427.5,-280 427.5,-286 427.5,-286 427.5,-388 427.5,-388 427.5,-394 421.5,-400 415.5,-400 415.5,-400 114,-400 114,-400 108,-400 102,-394 102,-388 102,-388 102,-286 102,-286 102,-280 108,-274 114,-274"/>
<text text-anchor="middle" x="264.75" y="-388.8" font-family="Helvetica,sans-Serif" font-weight="bold" font-size="9.00">root</text>
</g>
<!-- ./app.styles -->
<g id="node1" class="node"><title>./app.styles</title>
<path fill="#ffffcc" stroke="red" d="M405,-18C405,-18 358,-18 358,-18 355,-18 352,-15 352,-12 352,-12 352,-6 352,-6 352,-3 355,-0 358,-0 358,-0 405,-0 405,-0 408,-0 411,-3 411,-6 411,-6 411,-12 411,-12 411,-15 408,-18 405,-18"/>
<text text-anchor="middle" x="381.5" y="-6.8" font-family="Helvetica,sans-Serif" font-size="9.00" fill="red">app.styles</text>
</g>
<!-- src/admin/Admin.tsx -->
<g id="node2" class="node"><title>src/admin/Admin.tsx</title>
<g id="a_node2"><a xlink:href="src/admin/Admin.tsx" xlink:title="Admin.tsx">
<path fill="#ffffcc" stroke="black" d="M531,-110C531,-110 487,-110 487,-110 484,-110 481,-107 481,-104 481,-104 481,-98 481,-98 481,-95 484,-92 487,-92 487,-92 531,-92 531,-92 534,-92 537,-95 537,-98 537,-98 537,-104 537,-104 537,-107 534,-110 531,-110"/>
<text text-anchor="middle" x="509" y="-98.8" font-family="Helvetica,sans-Serif" font-size="9.00">Admin.tsx</text>
</a>
</g>
</g>
<!-- src/app/App.spec.tsx -->
<g id="node3" class="node"><title>src/app/App.spec.tsx</title>
<g id="a_node3"><a xlink:href="src/app/App.spec.tsx" xlink:title="App.spec.tsx">
<path fill="#ffffcc" stroke="black" d="M172,-60C172,-60 116,-60 116,-60 113,-60 110,-57 110,-54 110,-54 110,-48 110,-48 110,-45 113,-42 116,-42 116,-42 172,-42 172,-42 175,-42 178,-45 178,-48 178,-48 178,-54 178,-54 178,-57 175,-60 172,-60"/>
<text text-anchor="middle" x="144" y="-48.8" font-family="Helvetica,sans-Serif" font-size="9.00">App.spec.tsx</text>
</a>
</g>
</g>
<!-- src/app/App.tsx -->
<g id="node4" class="node"><title>src/app/App.tsx</title>
<g id="a_node4"><a xlink:href="src/app/App.tsx" xlink:title="App.tsx">
<path fill="#ffffcc" stroke="black" d="M277,-120C277,-120 235,-120 235,-120 232,-120 229,-117 229,-114 229,-114 229,-108 229,-108 229,-105 232,-102 235,-102 235,-102 277,-102 277,-102 280,-102 283,-105 283,-108 283,-108 283,-114 283,-114 283,-117 280,-120 277,-120"/>
<text text-anchor="middle" x="256" y="-108.8" font-family="Helvetica,sans-Serif" font-size="9.00">App.tsx</text>
</a>
</g>
</g>
<!-- src/app/App.spec.tsx&#45;&gt;src/app/App.tsx -->
<g id="edge3" class="edge"><title>src/app/App.spec.tsx&#45;&gt;src/app/App.tsx</title>
<path fill="none" stroke="black" d="M169.146,-60.1075C173.483,-61.935 177.919,-63.9331 182,-66 191.84,-70.9834 214.745,-85.2733 232.294,-96.4271"/>
<polygon fill="black" stroke="black" points="230.572,-99.4804 240.885,-101.908 234.337,-93.579 230.572,-99.4804"/>
</g>
<!-- src/app/routes.ts -->
<g id="node7" class="node"><title>src/app/routes.ts</title>
<g id="a_node7"><a xlink:href="src/app/routes.ts" xlink:title="routes.ts">
<path fill="#ffffcc" stroke="black" d="M402.5,-120C402.5,-120 360.5,-120 360.5,-120 357.5,-120 354.5,-117 354.5,-114 354.5,-114 354.5,-108 354.5,-108 354.5,-105 357.5,-102 360.5,-102 360.5,-102 402.5,-102 402.5,-102 405.5,-102 408.5,-105 408.5,-108 408.5,-108 408.5,-114 408.5,-114 408.5,-117 405.5,-120 402.5,-120"/>
<text text-anchor="middle" x="381.5" y="-108.8" font-family="Helvetica,sans-Serif" font-size="9.00">routes.ts</text>
</a>
</g>
</g>
<!-- src/app/App.spec.tsx&#45;&gt;src/app/routes.ts -->
<g id="edge4" class="edge"><title>src/app/App.spec.tsx&#45;&gt;src/app/routes.ts</title>
<path fill="none" stroke="black" d="M178.242,-59.4693C222.116,-70.6475 299.075,-90.2549 344.355,-101.791"/>
<polygon fill="black" stroke="black" points="343.775,-105.255 354.329,-104.332 345.503,-98.4717 343.775,-105.255"/>
</g>
<!-- src/auth/auth.domain.ts -->
<g id="node9" class="node"><title>src/auth/auth.domain.ts</title>
<g id="a_node9"><a xlink:href="src/auth/auth.domain.ts" xlink:title="auth.domain.ts">
<path fill="#ffffcc" stroke="black" d="M673,-300C673,-300 607,-300 607,-300 604,-300 601,-297 601,-294 601,-294 601,-288 601,-288 601,-285 604,-282 607,-282 607,-282 673,-282 673,-282 676,-282 679,-285 679,-288 679,-288 679,-294 679,-294 679,-297 676,-300 673,-300"/>
<text text-anchor="middle" x="640" y="-288.8" font-family="Helvetica,sans-Serif" font-size="9.00">auth.domain.ts</text>
</a>
</g>
</g>
<!-- src/app/App.spec.tsx&#45;&gt;src/auth/auth.domain.ts -->
<g id="edge1" class="edge"><title>src/app/App.spec.tsx&#45;&gt;src/auth/auth.domain.ts</title>
<path fill="none" stroke="black" d="M178.077,-48.5332C264.607,-42.8219 494.718,-32.6309 549,-81 612.516,-137.597 531.073,-203.201 585,-269 587.527,-272.083 590.554,-274.738 593.867,-277.024"/>
<polygon fill="black" stroke="black" points="592.15,-280.074 602.572,-281.979 595.613,-273.99 592.15,-280.074"/>
</g>
<!-- src/root/index.ts -->
<g id="node22" class="node"><title>src/root/index.ts</title>
<g id="a_node22"><a xlink:href="src/root/index.ts" xlink:title="index.ts">
<path fill="#ffffcc" stroke="black" d="M165,-360C165,-360 123,-360 123,-360 120,-360 117,-357 117,-354 117,-354 117,-348 117,-348 117,-345 120,-342 123,-342 123,-342 165,-342 165,-342 168,-342 171,-345 171,-348 171,-348 171,-354 171,-354 171,-357 168,-360 165,-360"/>
<text text-anchor="middle" x="144" y="-348.8" font-family="Helvetica,sans-Serif" font-size="9.00">index.ts</text>
</a>
</g>
</g>
<!-- src/app/App.spec.tsx&#45;&gt;src/root/index.ts -->
<g id="edge2" class="edge"><title>src/app/App.spec.tsx&#45;&gt;src/root/index.ts</title>
<path fill="none" stroke="black" d="M109.855,-55.2633C101.48,-58.0654 93.5311,-62.6228 88.6667,-70 80.654,-82.1516 80.654,-319.848 88.6667,-332 92.9336,-338.471 99.5736,-342.772 106.793,-345.623"/>
<polygon fill="black" stroke="black" points="106.242,-349.113 116.827,-348.677 108.28,-342.417 106.242,-349.113"/>
<path fill="none" stroke="black" d="M109.894,-54.7547C98.1069,-57.9186 86.1553,-63.6543 79.3333,-74 71.5653,-85.7805 71.5653,-316.219 79.3333,-328 85.611,-337.52 96.2326,-343.137 107.073,-346.438"/>
<polygon fill="black" stroke="black" points="106.426,-349.883 116.971,-348.864 108.092,-343.084 106.426,-349.883"/>
</g>
<!-- src/app/App.tsx&#45;&gt;./app.styles -->
<g id="edge7" class="edge"><title>src/app/App.tsx&#45;&gt;./app.styles</title>
<path fill="none" stroke="black" d="M262.232,-101.752C271.968,-85.3124 294.408,-50.8691 322,-31 328.114,-26.5972 335.215,-22.9642 342.318,-20.0074"/>
<polygon fill="black" stroke="black" points="343.793,-23.1918 351.913,-16.3857 341.321,-16.6428 343.793,-23.1918"/>
</g>
<!-- src/app/App.tsx&#45;&gt;src/app/routes.ts -->
<g id="edge8" class="edge"><title>src/app/App.tsx&#45;&gt;src/app/routes.ts</title>
<path fill="none" stroke="black" d="M283.191,-111C300.957,-111 324.679,-111 344.253,-111"/>
<polygon fill="black" stroke="black" points="344.347,-114.5 354.347,-111 344.347,-107.5 344.347,-114.5"/>
</g>
<!-- src/menu/Menu.tsx -->
<g id="node20" class="node"><title>src/menu/Menu.tsx</title>
<g id="a_node20"><a xlink:href="src/menu/Menu.tsx" xlink:title="Menu.tsx">
<path fill="#ffffcc" stroke="black" d="M402.5,-464C402.5,-464 360.5,-464 360.5,-464 357.5,-464 354.5,-461 354.5,-458 354.5,-458 354.5,-452 354.5,-452 354.5,-449 357.5,-446 360.5,-446 360.5,-446 402.5,-446 402.5,-446 405.5,-446 408.5,-449 408.5,-452 408.5,-452 408.5,-458 408.5,-458 408.5,-461 405.5,-464 402.5,-464"/>
<text text-anchor="middle" x="381.5" y="-452.8" font-family="Helvetica,sans-Serif" font-size="9.00">Menu.tsx</text>
</a>
</g>
</g>
<!-- src/app/App.tsx&#45;&gt;src/menu/Menu.tsx -->
<g id="edge5" class="edge"><title>src/app/App.tsx&#45;&gt;src/menu/Menu.tsx</title>
<path fill="none" stroke="black" d="M259.376,-120.333C265.58,-144.892 282.578,-213.389 294,-271 308.806,-345.681 270.551,-383.879 322,-440 327.856,-446.388 336.03,-450.215 344.413,-452.468"/>
<polygon fill="black" stroke="black" points="343.73,-455.901 354.225,-454.45 345.115,-449.039 343.73,-455.901"/>
</g>
<!-- src/app/App.tsx&#45;&gt;src/root/index.ts -->
<g id="edge6" class="edge"><title>src/app/App.tsx&#45;&gt;src/root/index.ts</title>
<path fill="none" stroke="black" d="M253.123,-120.087C245.148,-157.935 213.062,-302.637 182,-336 181.244,-336.812 180.439,-337.581 179.592,-338.309"/>
<polygon fill="black" stroke="black" points="177.591,-335.435 171.118,-343.823 181.408,-341.302 177.591,-335.435"/>
</g>
<!-- src/app/app.domain.ts -->
<g id="node5" class="node"><title>src/app/app.domain.ts</title>
<g id="a_node5"><a xlink:href="src/app/app.domain.ts" xlink:title="app.domain.ts">
<path fill="#ffffcc" stroke="black" d="M176,-90C176,-90 112,-90 112,-90 109,-90 106,-87 106,-84 106,-84 106,-78 106,-78 106,-75 109,-72 112,-72 112,-72 176,-72 176,-72 179,-72 182,-75 182,-78 182,-78 182,-84 182,-84 182,-87 179,-90 176,-90"/>
<text text-anchor="middle" x="144" y="-78.8" font-family="Helvetica,sans-Serif" font-size="9.00">app.domain.ts</text>
</a>
</g>
</g>
<!-- src/app/app.reducer.ts -->
<g id="node6" class="node"><title>src/app/app.reducer.ts</title>
<g id="a_node6"><a xlink:href="src/app/app.reducer.ts" xlink:title="app.reducer.ts">
<path fill="#ffffcc" stroke="black" d="M176,-120C176,-120 112,-120 112,-120 109,-120 106,-117 106,-114 106,-114 106,-108 106,-108 106,-105 109,-102 112,-102 112,-102 176,-102 176,-102 179,-102 182,-105 182,-108 182,-108 182,-114 182,-114 182,-117 179,-120 176,-120"/>
<text text-anchor="middle" x="144" y="-108.8" font-family="Helvetica,sans-Serif" font-size="9.00">app.reducer.ts</text>
</a>
</g>
</g>
<!-- src/app/routes.ts&#45;&gt;src/admin/Admin.tsx -->
<g id="edge9" class="edge"><title>src/app/routes.ts&#45;&gt;src/admin/Admin.tsx</title>
<path fill="none" stroke="black" d="M408.504,-108.928C426.479,-107.496 450.665,-105.569 470.69,-103.973"/>
<polygon fill="black" stroke="black" points="471.037,-107.456 480.727,-103.173 470.481,-100.479 471.037,-107.456"/>
</g>
<!-- src/app/routes.ts&#45;&gt;src/auth/auth.domain.ts -->
<g id="edge10" class="edge"><title>src/app/routes.ts&#45;&gt;src/auth/auth.domain.ts</title>
<path fill="none" stroke="black" d="M404.413,-120.064C420.181,-126.252 442.09,-134.173 462,-139 480.967,-143.598 534.147,-138.34 549,-151 590.729,-186.569 548.028,-228.51 585,-269 587.88,-272.154 591.277,-274.865 594.943,-277.195"/>
<polygon fill="black" stroke="black" points="593.398,-280.338 603.867,-281.967 596.698,-274.165 593.398,-280.338"/>
</g>
<!-- src/home/Home.tsx -->
<g id="node13" class="node"><title>src/home/Home.tsx</title>
<g id="a_node13"><a xlink:href="src/home/Home.tsx" xlink:title="Home.tsx">
<path fill="#ffffcc" stroke="black" d="M531,-180C531,-180 487,-180 487,-180 484,-180 481,-177 481,-174 481,-174 481,-168 481,-168 481,-165 484,-162 487,-162 487,-162 531,-162 531,-162 534,-162 537,-165 537,-168 537,-168 537,-174 537,-174 537,-177 534,-180 531,-180"/>
<text text-anchor="middle" x="509" y="-168.8" font-family="Helvetica,sans-Serif" font-size="9.00">Home.tsx</text>
</a>
</g>
</g>
<!-- src/app/routes.ts&#45;&gt;src/home/Home.tsx -->
<g id="edge11" class="edge"><title>src/app/routes.ts&#45;&gt;src/home/Home.tsx</title>
<path fill="none" stroke="black" d="M401.561,-120.113C422.413,-130.082 456.044,-146.161 479.918,-157.574"/>
<polygon fill="black" stroke="black" points="478.639,-160.842 489.171,-161.998 481.659,-154.527 478.639,-160.842"/>
</g>
<!-- src/auth/auth.action.ts -->
<g id="node8" class="node"><title>src/auth/auth.action.ts</title>
<g id="a_node8"><a xlink:href="src/auth/auth.action.ts" xlink:title="auth.action.ts">
<path fill="#ffffcc" stroke="black" d="M669.5,-330C669.5,-330 610.5,-330 610.5,-330 607.5,-330 604.5,-327 604.5,-324 604.5,-324 604.5,-318 604.5,-318 604.5,-315 607.5,-312 610.5,-312 610.5,-312 669.5,-312 669.5,-312 672.5,-312 675.5,-315 675.5,-318 675.5,-318 675.5,-324 675.5,-324 675.5,-327 672.5,-330 669.5,-330"/>
<text text-anchor="middle" x="640" y="-318.8" font-family="Helvetica,sans-Serif" font-size="9.00">auth.action.ts</text>
</a>
</g>
</g>
<!-- src/auth/auth.reducer.ts -->
<g id="node10" class="node"><title>src/auth/auth.reducer.ts</title>
<g id="a_node10"><a xlink:href="src/auth/auth.reducer.ts" xlink:title="auth.reducer.ts">
<path fill="#ffffcc" stroke="black" d="M542,-300C542,-300 476,-300 476,-300 473,-300 470,-297 470,-294 470,-294 470,-288 470,-288 470,-285 473,-282 476,-282 476,-282 542,-282 542,-282 545,-282 548,-285 548,-288 548,-288 548,-294 548,-294 548,-297 545,-300 542,-300"/>
<text text-anchor="middle" x="509" y="-288.8" font-family="Helvetica,sans-Serif" font-size="9.00">auth.reducer.ts</text>
</a>
</g>
</g>
<!-- src/auth/auth.reducer.ts&#45;&gt;src/auth/auth.action.ts -->
<g id="edge12" class="edge"><title>src/auth/auth.reducer.ts&#45;&gt;src/auth/auth.action.ts</title>
<path fill="none" stroke="black" d="M548.007,-299.839C562.499,-303.209 579.151,-307.082 594.216,-310.585"/>
<polygon fill="black" stroke="black" points="593.813,-314.085 604.346,-312.941 595.398,-307.267 593.813,-314.085"/>
</g>
<!-- src/auth/auth.saga.ts -->
<g id="node11" class="node"><title>src/auth/auth.saga.ts</title>
<g id="a_node11"><a xlink:href="src/auth/auth.saga.ts" xlink:title="auth.saga.ts">
<path fill="#ffffcc" stroke="black" d="M537,-330C537,-330 481,-330 481,-330 478,-330 475,-327 475,-324 475,-324 475,-318 475,-318 475,-315 478,-312 481,-312 481,-312 537,-312 537,-312 540,-312 543,-315 543,-318 543,-318 543,-324 543,-324 543,-327 540,-330 537,-330"/>
<text text-anchor="middle" x="509" y="-318.8" font-family="Helvetica,sans-Serif" font-size="9.00">auth.saga.ts</text>
</a>
</g>
</g>
<!-- src/auth/auth.saga.ts&#45;&gt;src/auth/auth.action.ts -->
<g id="edge13" class="edge"><title>src/auth/auth.saga.ts&#45;&gt;src/auth/auth.action.ts</title>
<path fill="none" stroke="black" d="M543.221,-321C558.676,-321 577.293,-321 593.987,-321"/>
<polygon fill="black" stroke="black" points="594.088,-324.5 604.088,-321 594.088,-317.5 594.088,-324.5"/>
</g>
<!-- src/auth/auth.saga.ts&#45;&gt;src/auth/auth.domain.ts -->
<g id="edge14" class="edge"><title>src/auth/auth.saga.ts&#45;&gt;src/auth/auth.domain.ts</title>
<path fill="none" stroke="black" d="M543.221,-313.274C557.673,-309.913 574.889,-305.909 590.714,-302.229"/>
<polygon fill="black" stroke="black" points="591.921,-305.542 600.868,-299.868 590.335,-298.724 591.921,-305.542"/>
</g>
<!-- src/home/Home.spec.tsx -->
<g id="node12" class="node"><title>src/home/Home.spec.tsx</title>
<g id="a_node12"><a xlink:href="src/home/Home.spec.tsx" xlink:title="Home.spec.tsx">
<path fill="#ffffcc" stroke="black" d="M414.5,-210C414.5,-210 348.5,-210 348.5,-210 345.5,-210 342.5,-207 342.5,-204 342.5,-204 342.5,-198 342.5,-198 342.5,-195 345.5,-192 348.5,-192 348.5,-192 414.5,-192 414.5,-192 417.5,-192 420.5,-195 420.5,-198 420.5,-198 420.5,-204 420.5,-204 420.5,-207 417.5,-210 414.5,-210"/>
<text text-anchor="middle" x="381.5" y="-198.8" font-family="Helvetica,sans-Serif" font-size="9.00">Home.spec.tsx</text>
</a>
</g>
</g>
<!-- src/home/Home.spec.tsx&#45;&gt;src/home/Home.tsx -->
<g id="edge15" class="edge"><title>src/home/Home.spec.tsx&#45;&gt;src/home/Home.tsx</title>
<path fill="none" stroke="black" d="M420.154,-191.999C436.145,-188.176 454.74,-183.731 470.694,-179.918"/>
<polygon fill="black" stroke="black" points="471.83,-183.245 480.742,-177.516 470.202,-176.437 471.83,-183.245"/>
</g>
<!-- src/home/home.action.ts -->
<g id="node14" class="node"><title>src/home/home.action.ts</title>
<g id="a_node14"><a xlink:href="src/home/home.action.ts" xlink:title="home.action.ts">
<path fill="#ffffcc" stroke="black" d="M672.5,-210C672.5,-210 607.5,-210 607.5,-210 604.5,-210 601.5,-207 601.5,-204 601.5,-204 601.5,-198 601.5,-198 601.5,-195 604.5,-192 607.5,-192 607.5,-192 672.5,-192 672.5,-192 675.5,-192 678.5,-195 678.5,-198 678.5,-198 678.5,-204 678.5,-204 678.5,-207 675.5,-210 672.5,-210"/>
<text text-anchor="middle" x="640" y="-198.8" font-family="Helvetica,sans-Serif" font-size="9.00">home.action.ts</text>
</a>
</g>
</g>
<!-- src/home/Home.tsx&#45;&gt;src/home/home.action.ts -->
<g id="edge16" class="edge"><title>src/home/Home.tsx&#45;&gt;src/home/home.action.ts</title>
<path fill="none" stroke="black" d="M537.043,-177.289C552.752,-180.942 572.997,-185.65 591.301,-189.907"/>
<polygon fill="black" stroke="black" points="590.697,-193.36 601.23,-192.216 592.283,-186.542 590.697,-193.36"/>
</g>
<!-- src/home/home.worker&#45;factory.ts -->
<g id="node16" class="node"><title>src/home/home.worker&#45;factory.ts</title>
<g id="a_node16"><a xlink:href="src/home/home.worker-factory.ts" xlink:title="home.worker&#45;factory.ts">
<path fill="#ffffcc" stroke="black" d="M689,-180C689,-180 591,-180 591,-180 588,-180 585,-177 585,-174 585,-174 585,-168 585,-168 585,-165 588,-162 591,-162 591,-162 689,-162 689,-162 692,-162 695,-165 695,-168 695,-168 695,-174 695,-174 695,-177 692,-180 689,-180"/>
<text text-anchor="middle" x="640" y="-168.8" font-family="Helvetica,sans-Serif" font-size="9.00">home.worker&#45;factory.ts</text>
</a>
</g>
</g>
<!-- src/home/Home.tsx&#45;&gt;src/home/home.worker&#45;factory.ts -->
<g id="edge17" class="edge"><title>src/home/Home.tsx&#45;&gt;src/home/home.worker&#45;factory.ts</title>
<path fill="none" stroke="black" d="M537.043,-171C548.111,-171 561.431,-171 574.738,-171"/>
<polygon fill="black" stroke="black" points="574.874,-174.5 584.874,-171 574.873,-167.5 574.874,-174.5"/>
</g>
<!-- src/home/home.saga.ts -->
<g id="node15" class="node"><title>src/home/home.saga.ts</title>
<g id="a_node15"><a xlink:href="src/home/home.saga.ts" xlink:title="home.saga.ts">
<path fill="#ffffcc" stroke="black" d="M540,-210C540,-210 478,-210 478,-210 475,-210 472,-207 472,-204 472,-204 472,-198 472,-198 472,-195 475,-192 478,-192 478,-192 540,-192 540,-192 543,-192 546,-195 546,-198 546,-198 546,-204 546,-204 546,-207 543,-210 540,-210"/>
<text text-anchor="middle" x="509" y="-198.8" font-family="Helvetica,sans-Serif" font-size="9.00">home.saga.ts</text>
</a>
</g>
</g>
<!-- src/home/home.saga.ts&#45;&gt;src/home/home.action.ts -->
<g id="edge18" class="edge"><title>src/home/home.saga.ts&#45;&gt;src/home/home.action.ts</title>
<path fill="none" stroke="black" d="M546.277,-201C560.203,-201 576.316,-201 591.164,-201"/>
<polygon fill="black" stroke="black" points="591.199,-204.5 601.199,-201 591.199,-197.5 591.199,-204.5"/>
</g>
<!-- src/home/home.worker.js -->
<g id="node17" class="node"><title>src/home/home.worker.js</title>
<g id="a_node17"><a xlink:href="src/home/home.worker.js" xlink:title="home.worker.js">
<path fill="#ffffcc" stroke="black" d="M543,-240C543,-240 475,-240 475,-240 472,-240 469,-237 469,-234 469,-234 469,-228 469,-228 469,-225 472,-222 475,-222 475,-222 543,-222 543,-222 546,-222 549,-225 549,-228 549,-228 549,-234 549,-234 549,-237 546,-240 543,-240"/>
<text text-anchor="middle" x="509" y="-228.8" font-family="Helvetica,sans-Serif" font-size="9.00">home.worker.js</text>
</a>
</g>
</g>
<!-- src/home/home.worker.spec.ts -->
<g id="node18" class="node"><title>src/home/home.worker.spec.ts</title>
<g id="a_node18"><a xlink:href="src/home/home.worker.spec.ts" xlink:title="home.worker.spec.ts">
<path fill="#ffffcc" stroke="black" d="M427,-240C427,-240 336,-240 336,-240 333,-240 330,-237 330,-234 330,-234 330,-228 330,-228 330,-225 333,-222 336,-222 336,-222 427,-222 427,-222 430,-222 433,-225 433,-228 433,-228 433,-234 433,-234 433,-237 430,-240 427,-240"/>
<text text-anchor="middle" x="381.5" y="-228.8" font-family="Helvetica,sans-Serif" font-size="9.00">home.worker.spec.ts</text>
</a>
</g>
</g>
<!-- src/home/home.worker.spec.ts&#45;&gt;src/home/home.worker.js -->
<g id="edge19" class="edge"><title>src/home/home.worker.spec.ts&#45;&gt;src/home/home.worker.js</title>
<path fill="none" stroke="black" d="M433.184,-231C441.599,-231 450.316,-231 458.696,-231"/>
<polygon fill="black" stroke="black" points="458.709,-234.5 468.709,-231 458.709,-227.5 458.709,-234.5"/>
</g>
<!-- src/index.ts -->
<g id="node19" class="node"><title>src/index.ts</title>
<g id="a_node19"><a xlink:href="src/index.ts" xlink:title="index.ts">
<path fill="#ffffcc" stroke="black" d="M64,-300C64,-300 22,-300 22,-300 19,-300 16,-297 16,-294 16,-294 16,-288 16,-288 16,-285 19,-282 22,-282 22,-282 64,-282 64,-282 67,-282 70,-285 70,-288 70,-288 70,-294 70,-294 70,-297 67,-300 64,-300"/>
<text text-anchor="middle" x="43" y="-288.8" font-family="Helvetica,sans-Serif" font-size="9.00">index.ts</text>
</a>
</g>
</g>
<!-- src/root/root.tsx -->
<g id="node28" class="node"><title>src/root/root.tsx</title>
<g id="a_node28"><a xlink:href="src/root/root.tsx" xlink:title="root.tsx">
<path fill="#ffffcc" stroke="black" d="M165,-300C165,-300 123,-300 123,-300 120,-300 117,-297 117,-294 117,-294 117,-288 117,-288 117,-285 120,-282 123,-282 123,-282 165,-282 165,-282 168,-282 171,-285 171,-288 171,-288 171,-294 171,-294 171,-297 168,-300 165,-300"/>
<text text-anchor="middle" x="144" y="-288.8" font-family="Helvetica,sans-Serif" font-size="9.00">root.tsx</text>
</a>
</g>
</g>
<!-- src/index.ts&#45;&gt;src/root/root.tsx -->
<g id="edge20" class="edge"><title>src/index.ts&#45;&gt;src/root/root.tsx</title>
<path fill="none" stroke="black" d="M70.0111,-291C81.1771,-291 94.419,-291 106.538,-291"/>
<polygon fill="black" stroke="black" points="106.819,-294.5 116.819,-291 106.819,-287.5 106.819,-294.5"/>
</g>
<!-- src/menu/Menu.tsx&#45;&gt;src/auth/auth.action.ts -->
<g id="edge21" class="edge"><title>src/menu/Menu.tsx&#45;&gt;src/auth/auth.action.ts</title>
<path fill="none" stroke="black" d="M408.605,-448.513C416.575,-446.198 425.271,-443.325 433,-440 503.652,-409.604 580.519,-360.462 617.175,-335.93"/>
<polygon fill="black" stroke="black" points="619.265,-338.742 625.599,-330.25 615.351,-332.938 619.265,-338.742"/>
</g>
<!-- src/menu/menu.domain.ts -->
<g id="node21" class="node"><title>src/menu/menu.domain.ts</title>
<g id="a_node21"><a xlink:href="src/menu/menu.domain.ts" xlink:title="menu.domain.ts">
<path fill="#ffffcc" stroke="black" d="M417.5,-434C417.5,-434 345.5,-434 345.5,-434 342.5,-434 339.5,-431 339.5,-428 339.5,-428 339.5,-422 339.5,-422 339.5,-419 342.5,-416 345.5,-416 345.5,-416 417.5,-416 417.5,-416 420.5,-416 423.5,-419 423.5,-422 423.5,-422 423.5,-428 423.5,-428 423.5,-431 420.5,-434 417.5,-434"/>
<text text-anchor="middle" x="381.5" y="-422.8" font-family="Helvetica,sans-Serif" font-size="9.00">menu.domain.ts</text>
</a>
</g>
</g>
<!-- src/root/root.domain.ts -->
<g id="node23" class="node"><title>src/root/root.domain.ts</title>
<g id="a_node23"><a xlink:href="src/root/root.domain.ts" xlink:title="root.domain.ts">
<path fill="#ffffcc" stroke="black" d="M288,-360C288,-360 224,-360 224,-360 221,-360 218,-357 218,-354 218,-354 218,-348 218,-348 218,-345 221,-342 224,-342 224,-342 288,-342 288,-342 291,-342 294,-345 294,-348 294,-348 294,-354 294,-354 294,-357 291,-360 288,-360"/>
<text text-anchor="middle" x="256" y="-348.8" font-family="Helvetica,sans-Serif" font-size="9.00">root.domain.ts</text>
</a>
</g>
</g>
<!-- src/root/index.ts&#45;&gt;src/root/root.domain.ts -->
<g id="edge22" class="edge"><title>src/root/index.ts&#45;&gt;src/root/root.domain.ts</title>
<path fill="none" stroke="black" d="M171.068,-351C181.988,-351 195.035,-351 207.55,-351"/>
<polygon fill="black" stroke="black" points="207.879,-354.5 217.879,-351 207.879,-347.5 207.879,-354.5"/>
</g>
<!-- src/root/root.reducer.ts -->
<g id="node24" class="node"><title>src/root/root.reducer.ts</title>
<g id="a_node24"><a xlink:href="src/root/root.reducer.ts" xlink:title="root.reducer.ts">
<path fill="#ffffcc" stroke="black" d="M413.5,-300C413.5,-300 349.5,-300 349.5,-300 346.5,-300 343.5,-297 343.5,-294 343.5,-294 343.5,-288 343.5,-288 343.5,-285 346.5,-282 349.5,-282 349.5,-282 413.5,-282 413.5,-282 416.5,-282 419.5,-285 419.5,-288 419.5,-288 419.5,-294 419.5,-294 419.5,-297 416.5,-300 413.5,-300"/>
<text text-anchor="middle" x="381.5" y="-288.8" font-family="Helvetica,sans-Serif" font-size="9.00">root.reducer.ts</text>
</a>
</g>
</g>
<!-- src/root/index.ts&#45;&gt;src/root/root.reducer.ts -->
<g id="edge23" class="edge"><title>src/root/index.ts&#45;&gt;src/root/root.reducer.ts</title>
<path fill="none" stroke="black" d="M169.595,-360.003C199.859,-369.629 252.348,-381.543 294,-366 324.726,-354.534 351.778,-326.692 367.128,-308.347"/>
<polygon fill="black" stroke="black" points="370.132,-310.197 373.688,-300.217 364.685,-305.801 370.132,-310.197"/>
</g>
<!-- src/root/root.saga.ts -->
<g id="node25" class="node"><title>src/root/root.saga.ts</title>
<g id="a_node25"><a xlink:href="src/root/root.saga.ts" xlink:title="root.saga.ts">
<path fill="#ffffcc" stroke="black" d="M282.5,-330C282.5,-330 229.5,-330 229.5,-330 226.5,-330 223.5,-327 223.5,-324 223.5,-324 223.5,-318 223.5,-318 223.5,-315 226.5,-312 229.5,-312 229.5,-312 282.5,-312 282.5,-312 285.5,-312 288.5,-315 288.5,-318 288.5,-318 288.5,-324 288.5,-324 288.5,-327 285.5,-330 282.5,-330"/>
<text text-anchor="middle" x="256" y="-318.8" font-family="Helvetica,sans-Serif" font-size="9.00">root.saga.ts</text>
</a>
</g>
</g>
<!-- src/root/index.ts&#45;&gt;src/root/root.saga.ts -->
<g id="edge24" class="edge"><title>src/root/index.ts&#45;&gt;src/root/root.saga.ts</title>
<path fill="none" stroke="black" d="M171.068,-343.89C183.645,-340.46 199.043,-336.261 213.2,-332.4"/>
<polygon fill="black" stroke="black" points="214.505,-335.672 223.232,-329.664 212.663,-328.919 214.505,-335.672"/>
</g>
<!-- src/root/root.store.ts -->
<g id="node27" class="node"><title>src/root/root.store.ts</title>
<g id="a_node27"><a xlink:href="src/root/root.store.ts" xlink:title="root.store.ts">
<path fill="#ffffcc" stroke="black" d="M282.5,-300C282.5,-300 229.5,-300 229.5,-300 226.5,-300 223.5,-297 223.5,-294 223.5,-294 223.5,-288 223.5,-288 223.5,-285 226.5,-282 229.5,-282 229.5,-282 282.5,-282 282.5,-282 285.5,-282 288.5,-285 288.5,-288 288.5,-288 288.5,-294 288.5,-294 288.5,-297 285.5,-300 282.5,-300"/>
<text text-anchor="middle" x="256" y="-288.8" font-family="Helvetica,sans-Serif" font-size="9.00">root.store.ts</text>
</a>
</g>
</g>
<!-- src/root/index.ts&#45;&gt;src/root/root.store.ts -->
<g id="edge25" class="edge"><title>src/root/index.ts&#45;&gt;src/root/root.store.ts</title>
<path fill="none" stroke="black" d="M170.582,-341.846C174.505,-340.098 178.433,-338.138 182,-336 199.864,-325.293 200.136,-316.707 218,-306 218.78,-305.532 219.578,-305.073 220.389,-304.623"/>
<polygon fill="black" stroke="black" points="222.008,-307.727 229.418,-300.154 218.903,-301.453 222.008,-307.727"/>
</g>
<!-- src/root/root.reducer.ts&#45;&gt;src/app/app.reducer.ts -->
<g id="edge26" class="edge"><title>src/root/root.reducer.ts&#45;&gt;src/app/app.reducer.ts</title>
<path fill="none" stroke="black" d="M350.052,-281.955C340.714,-278.557 330.633,-274.225 322,-269 254.066,-227.887 188.077,-159.1 159.625,-127.629"/>
<polygon fill="black" stroke="black" points="162.197,-125.255 152.923,-120.133 156.979,-129.92 162.197,-125.255"/>
</g>
<!-- src/root/root.reducer.ts&#45;&gt;src/auth/auth.reducer.ts -->
<g id="edge27" class="edge"><title>src/root/root.reducer.ts&#45;&gt;src/auth/auth.reducer.ts</title>
<path fill="none" stroke="black" d="M419.814,-291C432.243,-291 446.274,-291 459.429,-291"/>
<polygon fill="black" stroke="black" points="459.743,-294.5 469.743,-291 459.743,-287.5 459.743,-294.5"/>
</g>
<!-- src/root/root.saga.ts&#45;&gt;src/auth/auth.saga.ts -->
<g id="edge28" class="edge"><title>src/root/root.saga.ts&#45;&gt;src/auth/auth.saga.ts</title>
<path fill="none" stroke="black" d="M288.535,-321C333.033,-321 414.409,-321 464.59,-321"/>
<polygon fill="black" stroke="black" points="464.8,-324.5 474.8,-321 464.8,-317.5 464.8,-324.5"/>
</g>
<!-- src/root/root.saga.ts&#45;&gt;src/home/home.saga.ts -->
<g id="edge29" class="edge"><title>src/root/root.saga.ts&#45;&gt;src/home/home.saga.ts</title>
<path fill="none" stroke="black" d="M287.019,-311.946C289.624,-310.282 292.018,-308.318 294,-306 329.592,-264.376 279.1,-220.042 322,-186 342.908,-169.409 413.962,-180.391 461.945,-190.324"/>
<polygon fill="black" stroke="black" points="461.298,-193.764 471.807,-192.417 462.752,-186.917 461.298,-193.764"/>
</g>
<!-- src/root/root.spec.tsx -->
<g id="node26" class="node"><title>src/root/root.spec.tsx</title>
<g id="a_node26"><a xlink:href="src/root/root.spec.tsx" xlink:title="root.spec.tsx">
<path fill="#ffffcc" stroke="black" d="M172,-330C172,-330 116,-330 116,-330 113,-330 110,-327 110,-324 110,-324 110,-318 110,-318 110,-315 113,-312 116,-312 116,-312 172,-312 172,-312 175,-312 178,-315 178,-318 178,-318 178,-324 178,-324 178,-327 175,-330 172,-330"/>
<text text-anchor="middle" x="144" y="-318.8" font-family="Helvetica,sans-Serif" font-size="9.00">root.spec.tsx</text>
</a>
</g>
</g>
<!-- src/root/root.store.ts&#45;&gt;src/root/root.reducer.ts -->
<g id="edge30" class="edge"><title>src/root/root.store.ts&#45;&gt;src/root/root.reducer.ts</title>
<path fill="none" stroke="black" d="M288.804,-291C302.276,-291 318.257,-291 333.074,-291"/>
<polygon fill="black" stroke="black" points="333.1,-294.5 343.1,-291 333.1,-287.5 333.1,-294.5"/>
</g>
<!-- src/root/root.tsx&#45;&gt;src/app/App.tsx -->
<g id="edge31" class="edge"><title>src/root/root.tsx&#45;&gt;src/app/App.tsx</title>
<path fill="none" stroke="black" d="M150.606,-281.826C167.888,-253.547 220.571,-167.339 243.798,-129.33"/>
<polygon fill="black" stroke="black" points="247.045,-130.729 249.273,-120.371 241.072,-127.079 247.045,-130.729"/>
</g>
<!-- src/root/root.tsx&#45;&gt;src/root/root.saga.ts -->
<g id="edge32" class="edge"><title>src/root/root.tsx&#45;&gt;src/root/root.saga.ts</title>
<path fill="none" stroke="black" d="M171.068,-298.11C183.645,-301.54 199.043,-305.739 213.2,-309.6"/>
<polygon fill="black" stroke="black" points="212.663,-313.081 223.232,-312.336 214.505,-306.328 212.663,-313.081"/>
</g>
<!-- src/root/root.tsx&#45;&gt;src/root/root.store.ts -->
<g id="edge33" class="edge"><title>src/root/root.tsx&#45;&gt;src/root/root.store.ts</title>
<path fill="none" stroke="black" d="M171.068,-291C183.645,-291 199.043,-291 213.2,-291"/>
<polygon fill="black" stroke="black" points="213.232,-294.5 223.232,-291 213.232,-287.5 213.232,-294.5"/>
</g>
</g>
</svg>
