<?xml version="1.0" encoding="UTF-8" standalone="no"?>
<!DOCTYPE svg PUBLIC "-//W3C//DTD SVG 1.1//EN"
 "http://www.w3.org/Graphics/SVG/1.1/DTD/svg11.dtd">
<!-- Generated by graphviz version 2.38.0 (20140413.2041)
 -->
<!-- Title: dependency&#45;cruiser output Pages: 1 -->
<svg width="723pt" height="476pt"
 viewBox="0.00 0.00 723.00 476.00" xmlns="http://www.w3.org/2000/svg" xmlns:xlink="http://www.w3.org/1999/xlink">
<g id="graph0" class="graph" transform="scale(1 1) rotate(0) translate(4 472)">
<title>dependency&#45;cruiser output</title>
<polygon fill="white" stroke="none" points="-4,4 -4,-472 719,-472 719,4 -4,4"/>
<g id="clust1" class="cluster"><title>cluster_/src</title>
<path fill="none" stroke="black" stroke-width="2" d="M20,-26C20,-26 695,-26 695,-26 701,-26 707,-32 707,-38 707,-38 707,-448 707,-448 707,-454 701,-460 695,-460 695,-460 20,-460 20,-460 14,-460 8,-454 8,-448 8,-448 8,-38 8,-38 8,-32 14,-26 20,-26"/>
<text text-anchor="middle" x="357.5" y="-448.8" font-family="Helvetica,sans-Serif" font-weight="bold" font-size="9.00">src</text>
</g>
<g id="clust2" class="cluster"><title>cluster_/src/admin</title>
<path fill="none" stroke="black" stroke-width="2" d="M479,-58C479,-58 527,-58 527,-58 533,-58 539,-64 539,-70 539,-70 539,-98 539,-98 539,-104 533,-110 527,-110 527,-110 479,-110 479,-110 473,-110 467,-104 467,-98 467,-98 467,-70 467,-70 467,-64 473,-58 479,-58"/>
<text text-anchor="middle" x="503" y="-98.8" font-family="Helvetica,sans-Serif" font-weight="bold" font-size="9.00">admin</text>
</g>
<g id="clust4" class="cluster"><title>cluster_/src/auth</title>
<path fill="none" stroke="black" stroke-width="2" d="M468,-208C468,-208 671,-208 671,-208 677,-208 683,-214 683,-220 683,-220 683,-278 683,-278 683,-284 677,-290 671,-290 671,-290 468,-290 468,-290 462,-290 456,-284 456,-278 456,-278 456,-220 456,-220 456,-214 462,-208 468,-208"/>
<text text-anchor="middle" x="569.5" y="-278.8" font-family="Helvetica,sans-Serif" font-weight="bold" font-size="9.00">auth</text>
</g>
<g id="clust3" class="cluster"><title>cluster_/src/app</title>
<path fill="none" stroke="black" stroke-width="2" d="M110,-40C110,-40 396.5,-40 396.5,-40 402.5,-40 408.5,-46 408.5,-52 408.5,-52 408.5,-168 408.5,-168 408.5,-174 402.5,-180 396.5,-180 396.5,-180 110,-180 110,-180 104,-180 98,-174 98,-168 98,-168 98,-52 98,-52 98,-46 104,-40 110,-40"/>
<text text-anchor="middle" x="253.25" y="-168.8" font-family="Helvetica,sans-Serif" font-weight="bold" font-size="9.00">app</text>
</g>
<g id="clust5" class="cluster"><title>cluster_/src/home</title>
<path fill="none" stroke="black" stroke-width="2" d="M326,-322C326,-322 687,-322 687,-322 693,-322 699,-328 699,-334 699,-334 699,-422 699,-422 699,-428 693,-434 687,-434 687,-434 326,-434 326,-434 320,-434 314,-428 314,-422 314,-422 314,-334 314,-334 314,-328 320,-322 326,-322"/>
<text text-anchor="middle" x="506.5" y="-422.8" font-family="Helvetica,sans-Serif" font-weight="bold" font-size="9.00">home</text>
</g>
<g id="clust6" class="cluster"><title>cluster_/src/menu</title>
<path fill="none" stroke="black" stroke-width="2" d="M465,-118C465,-118 541,-118 541,-118 547,-118 553,-124 553,-130 553,-130 553,-188 553,-188 553,-194 547,-200 541,-200 541,-200 465,-200 465,-200 459,-200 453,-194 453,-188 453,-188 453,-130 453,-130 453,-124 459,-118 465,-118"/>
<text text-anchor="middle" x="503" y="-188.8" font-family="Helvetica,sans-Serif" font-weight="bold" font-size="9.00">menu</text>
</g>
<g id="clust7" class="cluster"><title>cluster_/src/root</title>
<path fill="none" stroke="black" stroke-width="2" d="M110,-188C110,-188 407.5,-188 407.5,-188 413.5,-188 419.5,-194 419.5,-200 419.5,-200 419.5,-302 419.5,-302 419.5,-308 413.5,-314 407.5,-314 407.5,-314 110,-314 110,-314 104,-314 98,-308 98,-302 98,-302 98,-200 98,-200 98,-194 104,-188 110,-188"/>
<text text-anchor="middle" x="258.75" y="-302.8" font-family="Helvetica,sans-Serif" font-weight="bold" font-size="9.00">root</text>
</g>
<!-- ./app.styles -->
<g id="node1" class="node"><title>./app.styles</title>
<path fill="#ffffcc" stroke="red" d="M397,-18C397,-18 350,-18 350,-18 347,-18 344,-15 344,-12 344,-12 344,-6 344,-6 344,-3 347,-0 350,-0 350,-0 397,-0 397,-0 400,-0 403,-3 403,-6 403,-6 403,-12 403,-12 403,-15 400,-18 397,-18"/>
<text text-anchor="middle" x="373.5" y="-6.8" font-family="Helvetica,sans-Serif" font-size="9.00" fill="red">app.styles</text>
</g>
<!-- src/admin/Admin.tsx -->
<g id="node2" class="node"><title>src/admin/Admin.tsx</title>
<g id="a_node2"><a xlink:href="src/admin/Admin.tsx" xlink:title="Admin.tsx">
<path fill="#ffffcc" stroke="black" d="M525,-84C525,-84 481,-84 481,-84 478,-84 475,-81 475,-78 475,-78 475,-72 475,-72 475,-69 478,-66 481,-66 481,-66 525,-66 525,-66 528,-66 531,-69 531,-72 531,-72 531,-78 531,-78 531,-81 528,-84 525,-84"/>
<text text-anchor="middle" x="503" y="-72.8" font-family="Helvetica,sans-Serif" font-size="9.00">Admin.tsx</text>
</a>
</g>
</g>
<!-- src/app/App.spec.tsx -->
<g id="node3" class="node"><title>src/app/App.spec.tsx</title>
<g id="a_node3"><a xlink:href="src/app/App.spec.tsx" xlink:title="App.spec.tsx">
<path fill="#ffffcc" stroke="black" d="M168,-94C168,-94 112,-94 112,-94 109,-94 106,-91 106,-88 106,-88 106,-82 106,-82 106,-79 109,-76 112,-76 112,-76 168,-76 168,-76 171,-76 174,-79 174,-82 174,-82 174,-88 174,-88 174,-91 171,-94 168,-94"/>
<text text-anchor="middle" x="140" y="-82.8" font-family="Helvetica,sans-Serif" font-size="9.00">App.spec.tsx</text>
</a>
</g>
</g>
<!-- src/app/App.tsx -->
<g id="node4" class="node"><title>src/app/App.tsx</title>
<g id="a_node4"><a xlink:href="src/app/App.tsx" xlink:title="App.tsx">
<path fill="#ffffcc" stroke="black" d="M269,-124C269,-124 227,-124 227,-124 224,-124 221,-121 221,-118 221,-118 221,-112 221,-112 221,-109 224,-106 227,-106 227,-106 269,-106 269,-106 272,-106 275,-109 275,-112 275,-112 275,-118 275,-118 275,-121 272,-124 269,-124"/>
<text text-anchor="middle" x="248" y="-112.8" font-family="Helvetica,sans-Serif" font-size="9.00">App.tsx</text>
</a>
</g>
</g>
<!-- src/app/App.spec.tsx&#45;&gt;src/app/App.tsx -->
<g id="edge3" class="edge"><title>src/app/App.spec.tsx&#45;&gt;src/app/App.tsx</title>
<path fill="none" stroke="black" d="M172.803,-94.001C184.929,-97.4329 198.828,-101.366 211.293,-104.894"/>
<polygon fill="black" stroke="black" points="210.346,-108.264 220.921,-107.619 212.252,-101.528 210.346,-108.264"/>
</g>
<!-- src/app/routes.ts -->
<g id="node8" class="node"><title>src/app/routes.ts</title>
<g id="a_node8"><a xlink:href="src/app/routes.ts" xlink:title="routes.ts">
<path fill="#ffffcc" stroke="black" d="M394.5,-78C394.5,-78 352.5,-78 352.5,-78 349.5,-78 346.5,-75 346.5,-72 346.5,-72 346.5,-66 346.5,-66 346.5,-63 349.5,-60 352.5,-60 352.5,-60 394.5,-60 394.5,-60 397.5,-60 400.5,-63 400.5,-66 400.5,-66 400.5,-72 400.5,-72 400.5,-75 397.5,-78 394.5,-78"/>
<text text-anchor="middle" x="373.5" y="-66.8" font-family="Helvetica,sans-Serif" font-size="9.00">routes.ts</text>
</a>
</g>
</g>
<!-- src/app/App.spec.tsx&#45;&gt;src/app/routes.ts -->
<g id="edge4" class="edge"><title>src/app/App.spec.tsx&#45;&gt;src/app/routes.ts</title>
<path fill="none" stroke="black" d="M159.512,-75.9319C173.114,-69.7935 192.242,-62.2347 210,-59 252.907,-51.1842 303.126,-56.4231 336.254,-61.819"/>
<polygon fill="black" stroke="black" points="335.93,-65.3146 346.379,-63.5601 337.117,-58.4158 335.93,-65.3146"/>
</g>
<!-- src/auth/auth.domain.ts -->
<g id="node10" class="node"><title>src/auth/auth.domain.ts</title>
<g id="a_node10"><a xlink:href="src/auth/auth.domain.ts" xlink:title="auth.domain.ts">
<path fill="#ffffcc" stroke="black" d="M669,-234C669,-234 603,-234 603,-234 600,-234 597,-231 597,-228 597,-228 597,-222 597,-222 597,-219 600,-216 603,-216 603,-216 669,-216 669,-216 672,-216 675,-219 675,-222 675,-222 675,-228 675,-228 675,-231 672,-234 669,-234"/>
<text text-anchor="middle" x="636" y="-222.8" font-family="Helvetica,sans-Serif" font-size="9.00">auth.domain.ts</text>
</a>
</g>
</g>
<!-- src/app/App.spec.tsx&#45;&gt;src/auth/auth.domain.ts -->
<g id="edge1" class="edge"><title>src/app/App.spec.tsx&#45;&gt;src/auth/auth.domain.ts</title>
<path fill="none" stroke="black" d="M156,-75.9968C169.577,-68.3553 190.394,-57.8778 210,-53 247.01,-43.792 521.032,-19.2018 553,-40 610.893,-77.6644 628.227,-166.582 633.155,-205.822"/>
<polygon fill="black" stroke="black" points="629.691,-206.342 634.279,-215.893 636.648,-205.566 629.691,-206.342"/>
</g>
<!-- src/root/index.ts -->
<g id="node23" class="node"><title>src/root/index.ts</title>
<g id="a_node23"><a xlink:href="src/root/index.ts" xlink:title="index.ts">
<path fill="#ffffcc" stroke="black" d="M161,-214C161,-214 119,-214 119,-214 116,-214 113,-211 113,-208 113,-208 113,-202 113,-202 113,-199 116,-196 119,-196 119,-196 161,-196 161,-196 164,-196 167,-199 167,-202 167,-202 167,-208 167,-208 167,-211 164,-214 161,-214"/>
<text text-anchor="middle" x="140" y="-202.8" font-family="Helvetica,sans-Serif" font-size="9.00">index.ts</text>
</a>
</g>
</g>
<!-- src/app/App.spec.tsx&#45;&gt;src/root/index.ts -->
<g id="edge2" class="edge"><title>src/app/App.spec.tsx&#45;&gt;src/root/index.ts</title>
<path fill="none" stroke="black" d="M105.977,-90.8082C99.1065,-93.6309 92.7471,-97.8119 88.6667,-104 79.4918,-117.914 79.9412,-164.8 88.6667,-179 92.3211,-184.947 97.805,-189.585 103.847,-193.185"/>
<polygon fill="black" stroke="black" points="102.444,-196.397 112.952,-197.749 105.58,-190.139 102.444,-196.397"/>
<path fill="none" stroke="black" d="M105.823,-90.04C95.5146,-93.3673 85.348,-98.8785 79.3333,-108 71.1371,-120.43 71.4779,-162.352 79.3333,-175 84.8662,-183.908 93.9149,-190.252 103.355,-194.735"/>
<polygon fill="black" stroke="black" points="102.231,-198.058 112.811,-198.626 104.895,-191.584 102.231,-198.058"/>
</g>
<!-- src/app/App.tsx&#45;&gt;./app.styles -->
<g id="edge7" class="edge"><title>src/app/App.tsx&#45;&gt;./app.styles</title>
<path fill="none" stroke="black" d="M275.219,-107.361C279.149,-105.409 282.911,-102.988 286,-100 308.022,-78.6948 292.641,-58.9695 314,-37 319.739,-31.0965 326.973,-26.281 334.379,-22.4136"/>
<polygon fill="black" stroke="black" points="336.189,-25.4304 343.753,-18.0115 333.214,-19.0943 336.189,-25.4304"/>
</g>
<!-- src/app/App.tsx&#45;&gt;src/app/routes.ts -->
<g id="edge8" class="edge"><title>src/app/App.tsx&#45;&gt;src/app/routes.ts</title>
<path fill="none" stroke="black" d="M273.4,-105.912C292.091,-98.95 318.095,-89.2642 338.776,-81.5612"/>
<polygon fill="black" stroke="black" points="340.002,-84.8396 348.151,-78.0692 337.558,-78.2799 340.002,-84.8396"/>
</g>
<!-- src/menu/Menu.tsx -->
<g id="node21" class="node"><title>src/menu/Menu.tsx</title>
<g id="a_node21"><a xlink:href="src/menu/Menu.tsx" xlink:title="Menu.tsx">
<path fill="#ffffcc" stroke="black" d="M524,-174C524,-174 482,-174 482,-174 479,-174 476,-171 476,-168 476,-168 476,-162 476,-162 476,-159 479,-156 482,-156 482,-156 524,-156 524,-156 527,-156 530,-159 530,-162 530,-162 530,-168 530,-168 530,-171 527,-174 524,-174"/>
<text text-anchor="middle" x="503" y="-162.8" font-family="Helvetica,sans-Serif" font-size="9.00">Menu.tsx</text>
</a>
</g>
</g>
<!-- src/app/App.tsx&#45;&gt;src/menu/Menu.tsx -->
<g id="edge5" class="edge"><title>src/app/App.tsx&#45;&gt;src/menu/Menu.tsx</title>
<path fill="none" stroke="black" d="M275.123,-120.163C320.479,-129.126 413.883,-147.586 465.579,-157.802"/>
<polygon fill="black" stroke="black" points="465.152,-161.285 475.641,-159.791 466.509,-154.418 465.152,-161.285"/>
</g>
<!-- src/app/App.tsx&#45;&gt;src/root/index.ts -->
<g id="edge6" class="edge"><title>src/app/App.tsx&#45;&gt;src/root/index.ts</title>
<path fill="none" stroke="black" d="M220.833,-123.318C216.986,-125.173 213.235,-127.386 210,-130 187.852,-147.897 194.222,-162.952 174,-183 171.479,-185.5 168.634,-187.885 165.699,-190.1"/>
<polygon fill="black" stroke="black" points="163.618,-187.284 157.38,-195.849 167.597,-193.043 163.618,-187.284"/>
</g>
<!-- src/app/app.domain.ts -->
<g id="node5" class="node"><title>src/app/app.domain.ts</title>
<g id="a_node5"><a xlink:href="src/app/app.domain.ts" xlink:title="app.domain.ts">
<path fill="#ffffcc" stroke="black" d="M280,-94C280,-94 216,-94 216,-94 213,-94 210,-91 210,-88 210,-88 210,-82 210,-82 210,-79 213,-76 216,-76 216,-76 280,-76 280,-76 283,-76 286,-79 286,-82 286,-82 286,-88 286,-88 286,-91 283,-94 280,-94"/>
<text text-anchor="middle" x="248" y="-82.8" font-family="Helvetica,sans-Serif" font-size="9.00">app.domain.ts</text>
</a>
</g>
</g>
<!-- src/app/app.reducer.ts -->
<g id="node6" class="node"><title>src/app/app.reducer.ts</title>
<g id="a_node6"><a xlink:href="src/app/app.reducer.ts" xlink:title="app.reducer.ts">
<path fill="#ffffcc" stroke="black" d="M280,-154C280,-154 216,-154 216,-154 213,-154 210,-151 210,-148 210,-148 210,-142 210,-142 210,-139 213,-136 216,-136 216,-136 280,-136 280,-136 283,-136 286,-139 286,-142 286,-142 286,-148 286,-148 286,-151 283,-154 280,-154"/>
<text text-anchor="middle" x="248" y="-142.8" font-family="Helvetica,sans-Serif" font-size="9.00">app.reducer.ts</text>
</a>
</g>
</g>
<!-- src/app/index.ts -->
<g id="node7" class="node"><title>src/app/index.ts</title>
<g id="a_node7"><a xlink:href="src/app/index.ts" xlink:title="index.ts">
<path fill="#ffffcc" stroke="black" d="M161,-124C161,-124 119,-124 119,-124 116,-124 113,-121 113,-118 113,-118 113,-112 113,-112 113,-109 116,-106 119,-106 119,-106 161,-106 161,-106 164,-106 167,-109 167,-112 167,-112 167,-118 167,-118 167,-121 164,-124 161,-124"/>
<text text-anchor="middle" x="140" y="-112.8" font-family="Helvetica,sans-Serif" font-size="9.00">index.ts</text>
</a>
</g>
</g>
<!-- src/app/index.ts&#45;&gt;src/app/App.tsx -->
<g id="edge9" class="edge"><title>src/app/index.ts&#45;&gt;src/app/App.tsx</title>
<path fill="none" stroke="black" d="M167.202,-115C180.325,-115 196.422,-115 210.713,-115"/>
<polygon fill="black" stroke="black" points="210.732,-118.5 220.732,-115 210.732,-111.5 210.732,-118.5"/>
</g>
<!-- src/app/index.ts&#45;&gt;src/app/app.domain.ts -->
<g id="edge10" class="edge"><title>src/app/index.ts&#45;&gt;src/app/app.domain.ts</title>
<path fill="none" stroke="black" d="M167.202,-107.584C178.619,-104.353 192.287,-100.485 205.058,-96.8703"/>
<polygon fill="black" stroke="black" points="206.379,-100.134 215.048,-94.0429 204.473,-93.3985 206.379,-100.134"/>
</g>
<!-- src/app/index.ts&#45;&gt;src/app/app.reducer.ts -->
<g id="edge11" class="edge"><title>src/app/index.ts&#45;&gt;src/app/app.reducer.ts</title>
<path fill="none" stroke="black" d="M167.202,-122.416C178.619,-125.647 192.287,-129.515 205.058,-133.13"/>
<polygon fill="black" stroke="black" points="204.473,-136.601 215.048,-135.957 206.379,-129.866 204.473,-136.601"/>
</g>
<!-- src/app/index.ts&#45;&gt;src/app/routes.ts -->
<g id="edge12" class="edge"><title>src/app/index.ts&#45;&gt;src/app/routes.ts</title>
<path fill="none" stroke="black" d="M163.088,-105.958C166.821,-104.15 170.589,-102.142 174,-100 191.639,-88.9248 190.439,-77.1504 210,-70 251.125,-54.9674 302.112,-57.7946 335.888,-62.3515"/>
<polygon fill="black" stroke="black" points="335.812,-65.8779 346.215,-63.8713 336.832,-58.9525 335.812,-65.8779"/>
</g>
<!-- src/app/routes.ts&#45;&gt;src/admin/Admin.tsx -->
<g id="edge13" class="edge"><title>src/app/routes.ts&#45;&gt;src/admin/Admin.tsx</title>
<path fill="none" stroke="black" d="M400.609,-70.2287C418.973,-71.0929 443.83,-72.2626 464.335,-73.2275"/>
<polygon fill="black" stroke="black" points="464.451,-76.7367 474.604,-73.7108 464.78,-69.7445 464.451,-76.7367"/>
</g>
<!-- src/app/routes.ts&#45;&gt;src/auth/auth.domain.ts -->
<g id="edge14" class="edge"><title>src/app/routes.ts&#45;&gt;src/auth/auth.domain.ts</title>
<path fill="none" stroke="black" d="M395.116,-59.9835C430.441,-46.0412 503.508,-23.924 553,-55 606.819,-88.7933 626.156,-168.95 632.368,-205.829"/>
<polygon fill="black" stroke="black" points="628.92,-206.433 633.898,-215.785 635.838,-205.369 628.92,-206.433"/>
</g>
<!-- src/home/Home.tsx -->
<g id="node14" class="node"><title>src/home/Home.tsx</title>
<g id="a_node14"><a xlink:href="src/home/Home.tsx" xlink:title="Home.tsx">
<path fill="#ffffcc" stroke="black" d="M525,-348C525,-348 481,-348 481,-348 478,-348 475,-345 475,-342 475,-342 475,-336 475,-336 475,-333 478,-330 481,-330 481,-330 525,-330 525,-330 528,-330 531,-333 531,-336 531,-336 531,-342 531,-342 531,-345 528,-348 525,-348"/>
<text text-anchor="middle" x="503" y="-336.8" font-family="Helvetica,sans-Serif" font-size="9.00">Home.tsx</text>
</a>
</g>
</g>
<!-- src/app/routes.ts&#45;&gt;src/home/Home.tsx -->
<g id="edge15" class="edge"><title>src/app/routes.ts&#45;&gt;src/home/Home.tsx</title>
<path fill="none" stroke="black" d="M379.062,-78.1261C388.592,-97.4525 410.891,-144.095 425,-185 441.169,-231.877 427.705,-250.35 453,-293 459.997,-304.798 470.902,-315.461 480.649,-323.544"/>
<polygon fill="black" stroke="black" points="478.765,-326.515 488.789,-329.946 483.092,-321.013 478.765,-326.515"/>
</g>
<!-- src/auth/auth.action.ts -->
<g id="node9" class="node"><title>src/auth/auth.action.ts</title>
<g id="a_node9"><a xlink:href="src/auth/auth.action.ts" xlink:title="auth.action.ts">
<path fill="#ffffcc" stroke="black" d="M665.5,-264C665.5,-264 606.5,-264 606.5,-264 603.5,-264 600.5,-261 600.5,-258 600.5,-258 600.5,-252 600.5,-252 600.5,-249 603.5,-246 606.5,-246 606.5,-246 665.5,-246 665.5,-246 668.5,-246 671.5,-249 671.5,-252 671.5,-252 671.5,-258 671.5,-258 671.5,-261 668.5,-264 665.5,-264"/>
<text text-anchor="middle" x="636" y="-252.8" font-family="Helvetica,sans-Serif" font-size="9.00">auth.action.ts</text>
</a>
</g>
</g>
<!-- src/auth/auth.reducer.ts -->
<g id="node11" class="node"><title>src/auth/auth.reducer.ts</title>
<g id="a_node11"><a xlink:href="src/auth/auth.reducer.ts" xlink:title="auth.reducer.ts">
<path fill="#ffffcc" stroke="black" d="M536,-234C536,-234 470,-234 470,-234 467,-234 464,-231 464,-228 464,-228 464,-222 464,-222 464,-219 467,-216 470,-216 470,-216 536,-216 536,-216 539,-216 542,-219 542,-222 542,-222 542,-228 542,-228 542,-231 539,-234 536,-234"/>
<text text-anchor="middle" x="503" y="-222.8" font-family="Helvetica,sans-Serif" font-size="9.00">auth.reducer.ts</text>
</a>
</g>
</g>
<!-- src/auth/auth.reducer.ts&#45;&gt;src/auth/auth.action.ts -->
<g id="edge16" class="edge"><title>src/auth/auth.reducer.ts&#45;&gt;src/auth/auth.action.ts</title>
<path fill="none" stroke="black" d="M542.243,-233.758C557.235,-237.191 574.546,-241.155 590.123,-244.723"/>
<polygon fill="black" stroke="black" points="589.539,-248.18 600.068,-247 591.101,-241.356 589.539,-248.18"/>
</g>
<!-- src/auth/auth.saga.ts -->
<g id="node12" class="node"><title>src/auth/auth.saga.ts</title>
<g id="a_node12"><a xlink:href="src/auth/auth.saga.ts" xlink:title="auth.saga.ts">
<path fill="#ffffcc" stroke="black" d="M531,-264C531,-264 475,-264 475,-264 472,-264 469,-261 469,-258 469,-258 469,-252 469,-252 469,-249 472,-246 475,-246 475,-246 531,-246 531,-246 534,-246 537,-249 537,-252 537,-252 537,-258 537,-258 537,-261 534,-264 531,-264"/>
<text text-anchor="middle" x="503" y="-252.8" font-family="Helvetica,sans-Serif" font-size="9.00">auth.saga.ts</text>
</a>
</g>
</g>
<!-- src/auth/auth.saga.ts&#45;&gt;src/auth/auth.action.ts -->
<g id="edge17" class="edge"><title>src/auth/auth.saga.ts&#45;&gt;src/auth/auth.action.ts</title>
<path fill="none" stroke="black" d="M537.057,-255C553,-255 572.374,-255 589.669,-255"/>
<polygon fill="black" stroke="black" points="590.12,-258.5 600.12,-255 590.12,-251.5 590.12,-258.5"/>
</g>
<!-- src/auth/auth.saga.ts&#45;&gt;src/auth/auth.domain.ts -->
<g id="edge18" class="edge"><title>src/auth/auth.saga.ts&#45;&gt;src/auth/auth.domain.ts</title>
<path fill="none" stroke="black" d="M537.057,-247.43C552.121,-243.98 570.249,-239.828 586.792,-236.04"/>
<polygon fill="black" stroke="black" points="587.879,-239.382 596.845,-233.738 586.316,-232.558 587.879,-239.382"/>
</g>
<!-- src/home/Home.spec.tsx -->
<g id="node13" class="node"><title>src/home/Home.spec.tsx</title>
<g id="a_node13"><a xlink:href="src/home/Home.spec.tsx" xlink:title="Home.spec.tsx">
<path fill="#ffffcc" stroke="black" d="M406.5,-348C406.5,-348 340.5,-348 340.5,-348 337.5,-348 334.5,-345 334.5,-342 334.5,-342 334.5,-336 334.5,-336 334.5,-333 337.5,-330 340.5,-330 340.5,-330 406.5,-330 406.5,-330 409.5,-330 412.5,-333 412.5,-336 412.5,-336 412.5,-342 412.5,-342 412.5,-345 409.5,-348 406.5,-348"/>
<text text-anchor="middle" x="373.5" y="-336.8" font-family="Helvetica,sans-Serif" font-size="9.00">Home.spec.tsx</text>
</a>
</g>
</g>
<!-- src/home/Home.spec.tsx&#45;&gt;src/home/Home.tsx -->
<g id="edge19" class="edge"><title>src/home/Home.spec.tsx&#45;&gt;src/home/Home.tsx</title>
<path fill="none" stroke="black" d="M412.754,-339C429.121,-339 448.172,-339 464.459,-339"/>
<polygon fill="black" stroke="black" points="464.707,-342.5 474.707,-339 464.707,-335.5 464.707,-342.5"/>
</g>
<!-- src/home/home.action.ts -->
<g id="node15" class="node"><title>src/home/home.action.ts</title>
<g id="a_node15"><a xlink:href="src/home/home.action.ts" xlink:title="home.action.ts">
<path fill="#ffffcc" stroke="black" d="M668.5,-378C668.5,-378 603.5,-378 603.5,-378 600.5,-378 597.5,-375 597.5,-372 597.5,-372 597.5,-366 597.5,-366 597.5,-363 600.5,-360 603.5,-360 603.5,-360 668.5,-360 668.5,-360 671.5,-360 674.5,-363 674.5,-366 674.5,-366 674.5,-372 674.5,-372 674.5,-375 671.5,-378 668.5,-378"/>
<text text-anchor="middle" x="636" y="-366.8" font-family="Helvetica,sans-Serif" font-size="9.00">home.action.ts</text>
</a>
</g>
</g>
<!-- src/home/Home.tsx&#45;&gt;src/home/home.action.ts -->
<g id="edge20" class="edge"><title>src/home/Home.tsx&#45;&gt;src/home/home.action.ts</title>
<path fill="none" stroke="black" d="M531.143,-345.216C547.406,-348.94 568.539,-353.78 587.493,-358.121"/>
<polygon fill="black" stroke="black" points="586.932,-361.583 597.461,-360.403 588.494,-354.759 586.932,-361.583"/>
</g>
<!-- src/home/home.worker&#45;factory.ts -->
<g id="node17" class="node"><title>src/home/home.worker&#45;factory.ts</title>
<g id="a_node17"><a xlink:href="src/home/home.worker-factory.ts" xlink:title="home.worker&#45;factory.ts">
<path fill="#ffffcc" stroke="black" d="M685,-348C685,-348 587,-348 587,-348 584,-348 581,-345 581,-342 581,-342 581,-336 581,-336 581,-333 584,-330 587,-330 587,-330 685,-330 685,-330 688,-330 691,-333 691,-336 691,-336 691,-342 691,-342 691,-345 688,-348 685,-348"/>
<text text-anchor="middle" x="636" y="-336.8" font-family="Helvetica,sans-Serif" font-size="9.00">home.worker&#45;factory.ts</text>
</a>
</g>
</g>
<!-- src/home/Home.tsx&#45;&gt;src/home/home.worker&#45;factory.ts -->
<g id="edge21" class="edge"><title>src/home/Home.tsx&#45;&gt;src/home/home.worker&#45;factory.ts</title>
<path fill="none" stroke="black" d="M531.143,-339C542.722,-339 556.77,-339 570.742,-339"/>
<polygon fill="black" stroke="black" points="570.866,-342.5 580.866,-339 570.866,-335.5 570.866,-342.5"/>
</g>
<!-- src/home/home.saga.ts -->
<g id="node16" class="node"><title>src/home/home.saga.ts</title>
<g id="a_node16"><a xlink:href="src/home/home.saga.ts" xlink:title="home.saga.ts">
<path fill="#ffffcc" stroke="black" d="M534,-378C534,-378 472,-378 472,-378 469,-378 466,-375 466,-372 466,-372 466,-366 466,-366 466,-363 469,-360 472,-360 472,-360 534,-360 534,-360 537,-360 540,-363 540,-366 540,-366 540,-372 540,-372 540,-375 537,-378 534,-378"/>
<text text-anchor="middle" x="503" y="-366.8" font-family="Helvetica,sans-Serif" font-size="9.00">home.saga.ts</text>
</a>
</g>
</g>
<!-- src/home/home.saga.ts&#45;&gt;src/home/home.action.ts -->
<g id="edge22" class="edge"><title>src/home/home.saga.ts&#45;&gt;src/home/home.action.ts</title>
<path fill="none" stroke="black" d="M540.143,-369C554.542,-369 571.327,-369 586.741,-369"/>
<polygon fill="black" stroke="black" points="587.146,-372.5 597.146,-369 587.146,-365.5 587.146,-372.5"/>
</g>
<!-- src/home/home.worker.js -->
<g id="node18" class="node"><title>src/home/home.worker.js</title>
<g id="a_node18"><a xlink:href="src/home/home.worker.js" xlink:title="home.worker.js">
<path fill="#ffffcc" stroke="black" d="M537,-408C537,-408 469,-408 469,-408 466,-408 463,-405 463,-402 463,-402 463,-396 463,-396 463,-393 466,-390 469,-390 469,-390 537,-390 537,-390 540,-390 543,-393 543,-396 543,-396 543,-402 543,-402 543,-405 540,-408 537,-408"/>
<text text-anchor="middle" x="503" y="-396.8" font-family="Helvetica,sans-Serif" font-size="9.00">home.worker.js</text>
</a>
</g>
</g>
<!-- src/home/home.worker.spec.ts -->
<g id="node19" class="node"><title>src/home/home.worker.spec.ts</title>
<g id="a_node19"><a xlink:href="src/home/home.worker.spec.ts" xlink:title="home.worker.spec.ts">
<path fill="#ffffcc" stroke="black" d="M419,-408C419,-408 328,-408 328,-408 325,-408 322,-405 322,-402 322,-402 322,-396 322,-396 322,-393 325,-390 328,-390 328,-390 419,-390 419,-390 422,-390 425,-393 425,-396 425,-396 425,-402 425,-402 425,-405 422,-408 419,-408"/>
<text text-anchor="middle" x="373.5" y="-396.8" font-family="Helvetica,sans-Serif" font-size="9.00">home.worker.spec.ts</text>
</a>
</g>
</g>
<!-- src/home/home.worker.spec.ts&#45;&gt;src/home/home.worker.js -->
<g id="edge23" class="edge"><title>src/home/home.worker.spec.ts&#45;&gt;src/home/home.worker.js</title>
<path fill="none" stroke="black" d="M425.258,-399C434.242,-399 443.586,-399 452.534,-399"/>
<polygon fill="black" stroke="black" points="452.811,-402.5 462.811,-399 452.811,-395.5 452.811,-402.5"/>
</g>
<!-- src/index.ts -->
<g id="node20" class="node"><title>src/index.ts</title>
<g id="a_node20"><a xlink:href="src/index.ts" xlink:title="index.ts">
<path fill="#ffffcc" stroke="black" d="M64,-274C64,-274 22,-274 22,-274 19,-274 16,-271 16,-268 16,-268 16,-262 16,-262 16,-259 19,-256 22,-256 22,-256 64,-256 64,-256 67,-256 70,-259 70,-262 70,-262 70,-268 70,-268 70,-271 67,-274 64,-274"/>
<text text-anchor="middle" x="43" y="-262.8" font-family="Helvetica,sans-Serif" font-size="9.00">index.ts</text>
</a>
</g>
</g>
<!-- src/root/root.tsx -->
<g id="node29" class="node"><title>src/root/root.tsx</title>
<g id="a_node29"><a xlink:href="src/root/root.tsx" xlink:title="root.tsx">
<path fill="#ffffcc" stroke="black" d="M161,-274C161,-274 119,-274 119,-274 116,-274 113,-271 113,-268 113,-268 113,-262 113,-262 113,-259 116,-256 119,-256 119,-256 161,-256 161,-256 164,-256 167,-259 167,-262 167,-262 167,-268 167,-268 167,-271 164,-274 161,-274"/>
<text text-anchor="middle" x="140" y="-262.8" font-family="Helvetica,sans-Serif" font-size="9.00">root.tsx</text>
</a>
</g>
</g>
<!-- src/index.ts&#45;&gt;src/root/root.tsx -->
<g id="edge24" class="edge"><title>src/index.ts&#45;&gt;src/root/root.tsx</title>
<path fill="none" stroke="black" d="M70.2106,-265C80.2826,-265 91.9647,-265 102.811,-265"/>
<polygon fill="black" stroke="black" points="102.875,-268.5 112.875,-265 102.875,-261.5 102.875,-268.5"/>
</g>
<!-- src/menu/Menu.tsx&#45;&gt;src/auth/auth.action.ts -->
<g id="edge25" class="edge"><title>src/menu/Menu.tsx&#45;&gt;src/auth/auth.action.ts</title>
<path fill="none" stroke="black" d="M516.699,-174.184C526.974,-181.886 541.565,-193.451 553,-205 567.016,-219.156 564.375,-229.025 581,-240 584.106,-242.05 587.489,-243.823 590.998,-245.355"/>
<polygon fill="black" stroke="black" points="589.88,-248.673 600.473,-248.874 592.317,-242.111 589.88,-248.673"/>
</g>
<!-- src/menu/menu.domain.ts -->
<g id="node22" class="node"><title>src/menu/menu.domain.ts</title>
<g id="a_node22"><a xlink:href="src/menu/menu.domain.ts" xlink:title="menu.domain.ts">
<path fill="#ffffcc" stroke="black" d="M539,-144C539,-144 467,-144 467,-144 464,-144 461,-141 461,-138 461,-138 461,-132 461,-132 461,-129 464,-126 467,-126 467,-126 539,-126 539,-126 542,-126 545,-129 545,-132 545,-132 545,-138 545,-138 545,-141 542,-144 539,-144"/>
<text text-anchor="middle" x="503" y="-132.8" font-family="Helvetica,sans-Serif" font-size="9.00">menu.domain.ts</text>
</a>
</g>
</g>
<!-- src/root/root.domain.ts -->
<g id="node24" class="node"><title>src/root/root.domain.ts</title>
<g id="a_node24"><a xlink:href="src/root/root.domain.ts" xlink:title="root.domain.ts">
<path fill="#ffffcc" stroke="black" d="M280,-228C280,-228 216,-228 216,-228 213,-228 210,-225 210,-222 210,-222 210,-216 210,-216 210,-213 213,-210 216,-210 216,-210 280,-210 280,-210 283,-210 286,-213 286,-216 286,-216 286,-222 286,-222 286,-225 283,-228 280,-228"/>
<text text-anchor="middle" x="248" y="-216.8" font-family="Helvetica,sans-Serif" font-size="9.00">root.domain.ts</text>
</a>
</g>
</g>
<!-- src/root/index.ts&#45;&gt;src/root/root.domain.ts -->
<g id="edge26" class="edge"><title>src/root/index.ts&#45;&gt;src/root/root.domain.ts</title>
<path fill="none" stroke="black" d="M167.202,-208.461C177.059,-209.763 188.595,-211.286 199.782,-212.764"/>
<polygon fill="black" stroke="black" points="199.529,-216.26 209.901,-214.1 200.445,-209.321 199.529,-216.26"/>
</g>
<!-- src/root/root.reducer.ts -->
<g id="node25" class="node"><title>src/root/root.reducer.ts</title>
<g id="a_node25"><a xlink:href="src/root/root.reducer.ts" xlink:title="root.reducer.ts">
<path fill="#ffffcc" stroke="black" d="M405.5,-224C405.5,-224 341.5,-224 341.5,-224 338.5,-224 335.5,-221 335.5,-218 335.5,-218 335.5,-212 335.5,-212 335.5,-209 338.5,-206 341.5,-206 341.5,-206 405.5,-206 405.5,-206 408.5,-206 411.5,-209 411.5,-212 411.5,-212 411.5,-218 411.5,-218 411.5,-221 408.5,-224 405.5,-224"/>
<text text-anchor="middle" x="373.5" y="-212.8" font-family="Helvetica,sans-Serif" font-size="9.00">root.reducer.ts</text>
</a>
</g>
</g>
<!-- src/root/index.ts&#45;&gt;src/root/root.reducer.ts -->
<g id="edge27" class="edge"><title>src/root/index.ts&#45;&gt;src/root/root.reducer.ts</title>
<path fill="none" stroke="black" d="M167.211,-204.531C180.099,-204.323 195.863,-204.102 210,-204 243.777,-203.755 252.29,-201.865 286,-204 298.756,-204.808 312.506,-206.279 325.208,-207.889"/>
<polygon fill="black" stroke="black" points="324.759,-211.36 335.131,-209.199 325.675,-204.42 324.759,-211.36"/>
</g>
<!-- src/root/root.saga.ts -->
<g id="node26" class="node"><title>src/root/root.saga.ts</title>
<g id="a_node26"><a xlink:href="src/root/root.saga.ts" xlink:title="root.saga.ts">
<path fill="#ffffcc" stroke="black" d="M274.5,-288C274.5,-288 221.5,-288 221.5,-288 218.5,-288 215.5,-285 215.5,-282 215.5,-282 215.5,-276 215.5,-276 215.5,-273 218.5,-270 221.5,-270 221.5,-270 274.5,-270 274.5,-270 277.5,-270 280.5,-273 280.5,-276 280.5,-276 280.5,-282 280.5,-282 280.5,-285 277.5,-288 274.5,-288"/>
<text text-anchor="middle" x="248" y="-276.8" font-family="Helvetica,sans-Serif" font-size="9.00">root.saga.ts</text>
</a>
</g>
</g>
<!-- src/root/index.ts&#45;&gt;src/root/root.saga.ts -->
<g id="edge28" class="edge"><title>src/root/index.ts&#45;&gt;src/root/root.saga.ts</title>
<path fill="none" stroke="black" d="M164.494,-214.044C167.831,-215.787 171.107,-217.774 174,-220 194.025,-235.409 189.66,-249.01 210,-264 210.377,-264.278 210.759,-264.551 211.147,-264.82"/>
<polygon fill="black" stroke="black" points="209.464,-267.89 219.872,-269.868 212.97,-261.831 209.464,-267.89"/>
</g>
<!-- src/root/root.store.ts -->
<g id="node28" class="node"><title>src/root/root.store.ts</title>
<g id="a_node28"><a xlink:href="src/root/root.store.ts" xlink:title="root.store.ts">
<path fill="#ffffcc" stroke="black" d="M274.5,-258C274.5,-258 221.5,-258 221.5,-258 218.5,-258 215.5,-255 215.5,-252 215.5,-252 215.5,-246 215.5,-246 215.5,-243 218.5,-240 221.5,-240 221.5,-240 274.5,-240 274.5,-240 277.5,-240 280.5,-243 280.5,-246 280.5,-246 280.5,-252 280.5,-252 280.5,-255 277.5,-258 274.5,-258"/>
<text text-anchor="middle" x="248" y="-246.8" font-family="Helvetica,sans-Serif" font-size="9.00">root.store.ts</text>
</a>
</g>
</g>
<!-- src/root/index.ts&#45;&gt;src/root/root.store.ts -->
<g id="edge29" class="edge"><title>src/root/index.ts&#45;&gt;src/root/root.store.ts</title>
<path fill="none" stroke="black" d="M162.416,-214.084C176.025,-219.835 194.025,-227.405 210,-234 211.586,-234.655 213.211,-235.323 214.852,-235.996"/>
<polygon fill="black" stroke="black" points="213.702,-239.307 224.283,-239.844 216.346,-232.825 213.702,-239.307"/>
</g>
<!-- src/root/root.reducer.ts&#45;&gt;src/app/app.reducer.ts -->
<g id="edge30" class="edge"><title>src/root/root.reducer.ts&#45;&gt;src/app/app.reducer.ts</title>
<path fill="none" stroke="black" d="M355.534,-205.885C343.818,-199.55 327.905,-190.866 314,-183 300.31,-175.256 285.129,-166.396 272.883,-159.181"/>
<polygon fill="black" stroke="black" points="274.554,-156.103 264.164,-154.029 270.993,-162.13 274.554,-156.103"/>
</g>
<!-- src/root/root.reducer.ts&#45;&gt;src/auth/auth.reducer.ts -->
<g id="edge31" class="edge"><title>src/root/root.reducer.ts&#45;&gt;src/auth/auth.reducer.ts</title>
<path fill="none" stroke="black" d="M411.721,-217.919C424.724,-218.939 439.519,-220.1 453.316,-221.182"/>
<polygon fill="black" stroke="black" points="453.383,-224.698 463.626,-221.99 453.93,-217.719 453.383,-224.698"/>
</g>
<!-- src/root/root.saga.ts&#45;&gt;src/auth/auth.saga.ts -->
<g id="edge32" class="edge"><title>src/root/root.saga.ts&#45;&gt;src/auth/auth.saga.ts</title>
<path fill="none" stroke="black" d="M280.531,-276.009C325.516,-271.742 408.261,-263.892 458.882,-259.09"/>
<polygon fill="black" stroke="black" points="459.24,-262.572 468.865,-258.143 458.579,-255.603 459.24,-262.572"/>
</g>
<!-- src/root/root.saga.ts&#45;&gt;src/home/home.saga.ts -->
<g id="edge33" class="edge"><title>src/root/root.saga.ts&#45;&gt;src/home/home.saga.ts</title>
<path fill="none" stroke="black" d="M280.606,-281.68C317.501,-285.98 379.286,-296.902 425,-324 440.689,-333.3 437.533,-344.336 453,-354 454.25,-354.781 455.543,-355.523 456.868,-356.229"/>
<polygon fill="black" stroke="black" points="455.423,-359.417 465.974,-360.376 458.324,-353.046 455.423,-359.417"/>
</g>
<!-- src/root/root.spec.tsx -->
<g id="node27" class="node"><title>src/root/root.spec.tsx</title>
<g id="a_node27"><a xlink:href="src/root/root.spec.tsx" xlink:title="root.spec.tsx">
<path fill="#ffffcc" stroke="black" d="M168,-244C168,-244 112,-244 112,-244 109,-244 106,-241 106,-238 106,-238 106,-232 106,-232 106,-229 109,-226 112,-226 112,-226 168,-226 168,-226 171,-226 174,-229 174,-232 174,-232 174,-238 174,-238 174,-241 171,-244 168,-244"/>
<text text-anchor="middle" x="140" y="-232.8" font-family="Helvetica,sans-Serif" font-size="9.00">root.spec.tsx</text>
</a>
</g>
</g>
<!-- src/root/root.store.ts&#45;&gt;src/root/root.reducer.ts -->
<g id="edge34" class="edge"><title>src/root/root.store.ts&#45;&gt;src/root/root.reducer.ts</title>
<path fill="none" stroke="black" d="M280.804,-240.244C295.719,-236.138 313.709,-231.185 329.79,-226.758"/>
<polygon fill="black" stroke="black" points="330.798,-230.111 339.511,-224.082 328.94,-223.362 330.798,-230.111"/>
</g>
<!-- src/root/root.tsx&#45;&gt;src/app/App.tsx -->
<g id="edge35" class="edge"><title>src/root/root.tsx&#45;&gt;src/app/App.tsx</title>
<path fill="none" stroke="black" d="M167.02,-255.891C169.611,-254.225 172.013,-252.275 174,-250 210.624,-208.058 172.514,-171.174 210,-130 210.747,-129.18 211.544,-128.404 212.384,-127.669"/>
<polygon fill="black" stroke="black" points="214.389,-130.54 220.821,-122.121 210.543,-124.691 214.389,-130.54"/>
</g>
<!-- src/root/root.tsx&#45;&gt;src/root/root.saga.ts -->
<g id="edge36" class="edge"><title>src/root/root.tsx&#45;&gt;src/root/root.saga.ts</title>
<path fill="none" stroke="black" d="M167.202,-268.461C178.716,-269.981 192.519,-271.804 205.383,-273.503"/>
<polygon fill="black" stroke="black" points="205.064,-276.992 215.436,-274.831 205.981,-270.052 205.064,-276.992"/>
</g>
<!-- src/root/root.tsx&#45;&gt;src/root/root.store.ts -->
<g id="edge37" class="edge"><title>src/root/root.tsx&#45;&gt;src/root/root.store.ts</title>
<path fill="none" stroke="black" d="M167.202,-261.045C178.716,-259.307 192.519,-257.224 205.383,-255.282"/>
<polygon fill="black" stroke="black" points="206.071,-258.718 215.436,-253.764 205.026,-251.796 206.071,-258.718"/>
</g>
</g>
</svg>
